<mxfile host="app.diagrams.net" modified="2022-05-19T09:59:58.580Z" agent="5.0 (Macintosh; Intel Mac OS X 10_15_7) AppleWebKit/537.36 (KHTML, like Gecko) Chrome/101.0.4951.64 Safari/537.36" etag="-inqPpypNKtnEE_BPMSU" version="17.0.0" type="github">
  <diagram id="tbHGBSiBHl1CVqf5RgN-" name="Page-1">
    <mxGraphModel dx="1554" dy="868" grid="1" gridSize="10" guides="1" tooltips="1" connect="1" arrows="1" fold="1" page="1" pageScale="1" pageWidth="827" pageHeight="1169" math="0" shadow="0">
      <root>
        <mxCell id="0" />
        <mxCell id="1" parent="0" />
        <mxCell id="juLNzmiUpROk8GgBu0bY-8" value="Designing Your Clothes&amp;nbsp; ----&amp;nbsp; Type Choosing" style="strokeWidth=1;shadow=0;dashed=0;align=center;html=1;shape=mxgraph.mockup.containers.window;align=left;verticalAlign=top;spacingLeft=8;strokeColor2=#008cff;strokeColor3=#c4c4c4;fontColor=#666666;mainText=;fontSize=17;labelBackgroundColor=none;" parent="1" vertex="1">
          <mxGeometry x="94" y="100" width="640" height="520" as="geometry" />
        </mxCell>
        <mxCell id="juLNzmiUpROk8GgBu0bY-7" value="" style="shape=image;verticalLabelPosition=bottom;labelBackgroundColor=default;verticalAlign=top;aspect=fixed;imageAspect=0;image=data:image/png,iVBORw0KGgoAAAANSUhEUgAAAWQAAAIICAYAAABZxZScAAAAAXNSR0IArs4c6QAAIABJREFUeF7sfQd4XWeV7bq996Iuy3JvsdMriZPA0DJAQihhhhYglGFgYIDQQq8zMG9mgAEylAyQAIGhPBhKKAECSSB27MRxlW1Zsrp0e+/vW/s/VzYPmI8i25L1n3wXWdK95/xnn8M6W2uvvbap1Wq1oDcdAR0BHQEdgTMeAZMG5DN+DfQCdAR0BHQEJAIakPWNoCOgI6AjsEgioAF5kVwIvQwdAR0BHQENyPoe0BHQEdARWCQR0IC8SC6EXoaOgI6AjoAGZH0P6AjoCOgILJIIaEBeJBdCL0NHQEdAR0ADsr4HdAR0BHQEFkkENCAvkguhl6EjoCOgI6ABWd8DOgI6AjoCiyQCGpAXyYXQy1iYCBSKRdSqtfmdmcwm+H0+mEymhTmA3ouOwCmMgAbkUxhcvetTG4FKpYLjYxNACzCZAZPJjHvvvQ+HDw/DYrWANi1OhwM3XH8dHA4Hmq0mWs0GAoEgOjvjp3Zxeu86An9GBDQg/xlB0x85MxEgwDYaDRw4MITJqWkUiyU8tGO3ADEB2GK2oNlqodVUfln8X37GbDKh0aijVquhVquit7cbmzauQ73RQEc8jq3nbJJ3W63WM3Ni+qg6AkYENCDrW2FJRKBeryOZTOM7370HiWRKwNhstsBiMQuQWixWg5YwCSC3mA2fdGYE5nqjjka9jnq9hnK5jEqlDIfTiZ6uTpjMLTzvpmchGPBrYF4Sd8TZuUgNyGfndT1rzqpcrmBiYhK7H9mH6Zk5ZLN5yWbNJgvMFguszIwtFsmSyRO3XwTgZrMpGTI3/pzfn5wpV6pVVMolFAoFNJst+P0+bNm8AZdffhG6u7pgs+mM+ay5kZbIiWhAXiIXarktsw2oP/3pL3Dvz+9HOByF2Ww2wNUMq4CxTagKs9kEE8xgAc9kNkPKd60TlAWzZbCox5+1CMoNVKsVkIMmhcFsuVQqolQqyzEcDjue8Pir4HY5sXJwAJ0d8fljL7froM/39EZAA/Lpjbc+2h8ZgUce2YPfPPQwpmdScLncUpRrKyUsFhtsNpuAckvQ1yT/JpiSLyaY80VwJgjXm415Lpm43Gw0BYhL5TJq1QpIh1RrVRSLBOWSfC+ijFYL3T1d6O3pwjNveJoAtd50BE5lBDQgn8ro6n3/yREgkO7YuQvf+tb/wGp1IBgMwe32CNiSfCAo2yQztkrWy/fbrFZYySFLpqx+RnqCVEYLLSnm8XtyzQLqBOl6HeVqGZVyWThlAeVqFWVmyuWSfIbvJePBDDwUCmDrlo34q7+6Rh4GetMROBUR0IB8KqKq9/lnR4Cg+L73/zOaLQtCoTD8/oAAKWkGZsLEU5vdDqvZggYVFGYz7MyWrdb5DLnRbEp2y0IfpW6kJvh5AqnKos0C0ATdYom6ZfV7grJkzqWi+rkByuSXCfQWqxlPffLjcdFF58Fu19nyn32R9Qf/YAQ0IOubY9FEgIB4z49+ih0798Dl8iIcDsHpdEnmSsBkxsqs12azC0/MjJnZMcHRarMK0BJwG42m6JKtFhuazQYKRUVDsEhnNjObNsn76rU6CqWCcMfMkqXox2yZQF0uoVgsyOdUYVAVDLmP7Vddhqu3X6GbTRbNnXP2LEQD8tlzLZf0mZDP/dUvH8Qv738ILqdbqIpAIIB6s4VyqSTnJtkwwddiEVUEKQq7zS7crtVmE7DmJoAMSNZMQM4XCKwN+b1SZJhgI53Ragk9USgUhUOmAkOUGU0W/aooFPLye/5M0RcKyD0eFy679EJcdtmF8kDQm47AQkVAA/JCRVLv5y+KwG8e2okvfulr6Ih3wuf3IxRkduwWQCQ4EhAJhm6Xa75oR5UFAVpAmpSFAbLMavleAjcza7ZTMwMWVYaFdAVgMatsm2qLQrGASoWAbGTJjSaajbpQHbl8To7PYqFk1Y0m7A6HKDAef+0VosDo6urQ2fJfdPX1h9sR0ICs74UzHgEqG7729W/j4KGj8PsC8AcC8Hv9TIlVhsqM19AYk8JQOmSTcMkERynymZn5AuSPmdGyEEdAZmbMffAr6QbqlbkxO5bfN+oK9EUCV5csmSDOzJqgzOyZnPKJIqEKl9Plht1mRbNRwzXXXIELzj9Xg/IZv5OW/gI0IC/9a7ikzyCTyeDrX/82Dg0Nw+P1wef1w+vzwulwosquuhqNgpQxEAHXbneInI2UA8GYcri2woLvU80fBPCWACTBtWxw0Cz+WUTLrN7HvfIr6Qo2iZA/JigTjIW+EL1yVTJofuVnmVUzS2bB0Ovxoloto9Gs4Xk33YDVqwaX9LXQiz/zEdCAfOavwbJdATPjr979LTy042EEAiF4fX74vT643W5B33KloqCYkrdGU7Ji0SNbLHCQO3Y6pMBHGoIFPZbeCLDtV7sJpFavi8eFXSgLxSErrTL54hZq9RqqNVXMI7XRVlwQmNtt1lwrv2+3aHOfXo8PHrdLAPua7Zfhggu2aUncsr2bF+bENSAvTBz1Xv6MCDzwwG/w+TvuhD8QhMfjg5cZss8nWTDBj5ltuxlEVBIEYrsDZqtVXNwcDue8lK2dRRNkhW4g0NZqyGbTive126XBhFnyyYDMZZPOkKKeoUXmsZpNvlqSNfPBQH0ygZv+GaLkMJQXAZ9f9pnPZ3H+eVvwpCddq6mLP+Ne0B9REdCArO+EMxKBZDKFz37uizh6dAShcESaP7xer2SdbPpgBsqCGykEfmXBzu10ClizgEcuWegKq9IWSwdekw0hqiuPWTK1xGPHR6Uw5/P6RLlB8HcYGuK2zwXfy0yYx6xVq6JFJki3wZ10BXlkFvm4kXumrq5Sq8HldCHg9wnPbbY08cqXvwhOp/OMxFQfdOlHQAPy0r+GS+4MCIAHDw7hYx+/HQ6HS4p4zHZ9Pj88Hq+Aa7FURiGfQyabQblURjgcQSDgNxQVNrhcLtiYIVuoLT7RLk26od06ncmkceTIECYmxuDxeIQWiURjCIfC8gA4YVrfEgBWxkP0uKgKOLcMcyL+nNI7Fv+4f6FIjMYUJsrkkv0+rxQGY9Egrr/+qfB6PUvuuugFn/kIaEA+89dg2a2AnhEf/qd/w/T0DILhiNAQLrcHfp9fMl8CXyIxh2QqiWwmLVTCwMAgIpEobHaHUAQOpwsup3OeE2YQlTpCObwRRGdnZ3D48CEMDx8RZQaN6SORGDo6OtHR0a24atlozUlAbiiKolxBrVFHS7oDjcJfpYxiuSg8s5LgKeqCWTJ57HAwBKvFDD4Err32Clx6yYXL7rrqE/7LI6AB+S+Pod7DnxABgt7Pfv4rfPOb34HJbIHfHxQLTa/XL7QCGzympiYwMTWBTCqJdDolfhLbtp2PeLxD6Y4dTjgdLjidDoOuUBky1RWKZlDmQZOT4zg0dBCHjxxCuVg0JoV0oaenDz09/QiGwoZ+AwLIVFW0i3jyfUspMdgoQipDPJSrFWnLFpqExcZWC9VGAwHK9bxeOa7X68DTn/YkdHR0/AmR0W/VEdAcsr4HTnME7rvvftx5191CC4QjUdjt5IXt83QFgW56dgZTE2OYnZ3CzMy0gN/FlzwO8VhcpG4EYxrL83PUH6sctyWASh6Z3zELHx8fxdDQQRwbOQILmjBb7WLj2du3An19A4jFO8Sjop0FtwG5UFLUhJo2oiw7Ccg0tCePzGOQJqHqg/xKrdkULXTQHxBt8uzMNG545nXYtnWzLvCd5vtrqR9OZ8hL/QousfX/8J6f4Mtf/josNivC4ZhkmW6nS9QV7MwjCGbzeSQTc5idmZRsmc0eF110qYCp0BsuBcgEQVIHBEVmswRUZq98P6mO8fHjOHz4IMytEl76nCfh7v/5BcamM+jrX4kVK1aiq6tXfZ60BCVwjQZq9SpyBdUIIgZFyodTFBsVwx1O+WqoVm5+XhQdzSaouPB63CgW8mg2a7j+GU/Fhg3rtJfyErtHz+RyNSCfyegvs2PPzMziv75wJ/bs2Q+P1wuPxy+A7HG7JUOmaoLNIBzPVK6UMTc3A3uriCOjUzh324UIhoKw2hzwut0CyDQPahvSNwy5m6mluGR+VgHyIbhsDfzjy27Ef375fzA0MitgvGLFoFAXzLiNDhFU6zUUCwUBZLH1ZCMJDY3MJgFkZWpfln9L9mw0irD7j+umAiQU8EsxcHZ2GjabCe+47c1yXnrTEfhjIqAB+Y+Jkn7PgkTg0Ucfw3vf/0+S4QaCYVisbOqwwOf1Cn9MuVupXJGuOLHNLBUQcVdx/+6j2Lz5HGmrZlGPAM7in5gFSYbbEhP6dkGPwDk9OakoiyNDCLhMeNMrn4vDIxP4/N0/QiTaKaDc378SblF1kINuijfy9OwUUqmMyOyCgaCAss1qkWKemi5SElBWgKxm+vFrpV6XjsGAPwCn3Sb652w2g2c+8zpcftmlCxI/vZOzPwIakM/+a7wozlAV836J//zPz4uiwucPSlGPmmICMmVo3Irkb8WLwow1nTZ8+/v3wuoKYd269SKJs9qdBiBTYWGFhd7GUNOoVeddU1zaWNA7PjqC0dGjWLeyAzc/5ykolap49799EV5fWFQbzJKDoYgythff5DLGxo7j2PER6fyLxuIIBcNw2G3ia8HMmIBMfrrRbAgAt7Pkar0hwEwtdcDnRalYwFxiDtvO2YgbbnialsEtirtw8S9CA/Liv0ZnxQqz2Rze9e4PYWp6Ck6nR9qkxeCHgOz3S9ZcrdIwviQ/p2/E1kEv7vrmj+ENxgWQCeQ2m8qQSVkwOyal0KTkTRpCFCBnUilMTIxiZOQY0uk5vPnlNyIY8KFcruK/v/8L7D86g96+AQysXIVovEOOJWqJahWTE2PYu+8xGX4aCUfR1duPgN/PDqp583oORaUpkeKwlb9Fy2SWBwkz92gwKLK7dDop1MktL3sRzj//3LPiOuqTOLUR0IB8auOr925EYHp6Gu941/uRyeSkQcPhckv3GzNRWm4SYOkXkSsU5BOxgAtbBwP4zFd/CF+oA2vXrTcc1ljUc8PpcshnmSFTYSFz89jq3KgjOTcr/DH1x4V8Gu/4h7+F36M0xzOzSfzrHd9FR2cvBgfXIN7VLZ7KoqSo1TA1NYlH9+zG3PSk8Nx9KwbR19snDw6RvpWKskbSIk67XThscZozm1FrtGCz2xANhsRZLp/LCpe8cmU/XvHym0/SPevbQkfg90dAA7K+M055BAh0//7vn8JvduwU+0s2Z9AgKJGYlaaK3t5+UU/Qtzifz4sR0GC3H1sHI/iPO78PX7gTa9euFyC22uhJQQ2yU02bpp2mFPLUZI96tSJSuePHR3Hk6BBctiZufeVN8LhVO/PETAIfvf0b6OjswcqVq9Hd2w+Xi3SJAuSZmSk88uhujB8fEZqit38Aq1atkXFSolEuFpHN5aTo6HKQNmGGbBVjI5rpU0dNHtnrdqFSKiORnEW9XsG73/lW6TTUm47A/xYBDcj6/jjlESDQffBD/4J9+w+I9WUk1iHdeLNTE2K5ObBytTLoKShAtttMOGdVDAOdfnzirh8gEO7C2jXrpCHEYrPBwynUbAox0cNC0Q2iQUYLpVIBM5MTOH58BEeOHMaLn/V4bNu4ytADt5DO5vC5u+9BvmyS4/atGEDAH2T3h9AQk5OT2P3ITgHkeq0qmuXBlasFwOt15WmRy+Xk4cGHgt2Y5Sft2iYLzFaL8OHkkU3NJlLppIyCuuH6p+LSSy6WJhi96Qj8oQhoQNb3ximPwM6du/DxT3wauXxR/vQPRaKSxc7NTIm2ePXqdbDa7WIGTyvLmN+B7ef1CzerMuQurFm9VppIqMQQykI4ZHbL0du4JRpiOrDl8hlMjh+Xgh4pi9fcfD02r1khGayawgf87IFH8MNf7hFAXjm4RjJ2AjJbtCenJrDz4YcwMT4qGXJ3zwoMDq5CR2e3fE9AZobMB4fL6ZDMnioNmhqZrcqrmTwyvS0cNquoLZKJBFwuO97yln8UPlpvOgIakPU9cMYicPfXvoE77viicMAEU5fHh/GxUSTmZhCPd2LNug1iLsQMmTxyzG/H9vNWSDb5sS/+D/zBDgO0HQLS3AdHOYnrmlGQo2UmlRbJ5CwmxljQG8b01Dhef8uzsWH1CuPcDUB+cDe+85Od6O1fidWr14u3BTN3jnCanJrErocfkgyZNEZ3dx9WDKxCZ1e3gDZNhtLZrDjIeZxOeTAwS6ckzky/ZatNJpl46M3hcYEFwFQqgVw2jSc8fjtuvPH6M3Yd9IEXfwR0hrz4r9GSXiFtNr9011fx05/+TECP3hVsApmZnkQ2NQOz3YPNW7YJp8yGEBbLVpM/Xh0TbvZfPv9NePwxrF+3ETa7UzJQWl7SvY0DRgmG0hQi0z2oPx7H8ePHMDo6jKsu3oynXnuJmP5wU03SLZQrNfz3D+7H+GwJq9esQ2d3n5oEUieHPI3du3di9NgRmNASQO7vH0BXd698nhlyKpNGLp+H1+OB2+WWn1cqJWnNJsdNHllsOb0e2Wc6lUQyOYfLL78Yz//b5y7p66kXf2ojoAH51MZ32e/9wV8/hE984jNiykPQYru0LxBCMZuEpZbC8EwR55xznmh4i+WyZKlPvLAfHqddqIDv/fwhHJ3IYcOGLeLw1jKZJCttS98IhpSbNeoN0QiPHT+GkeHDaNaLuOlpV2PtYO88VTF/MVotfOX//hxDx1NYtXqtZMrspiPXzQx532OPIJecRk9nBIlcXYqO3T19wlmTo06mUzLJmvQDAZkKjVKxCIvNLpagFqtFlBvUV1tNJuSyGSRTCXTEwnjBC25Cf3/fsr8vdAB+fwQ0IOs745RGgNOkP/mpz4lTWrGYRyTaAa8viEYlj1ZpBkemiti0easYvst0Z7TwhAv64HZysgdwfCqBr/3gIWzYeA6cHo9MjKZtpsvlFLWFALK4tDVQKORwbPgwjh09jJW9YbzkpqcYXhQy1VQYZGa9LMB9+dv3Yu+RaeGQ+WLTSaVWxdjYKI4c2ounXLIBhVIFP/z1AQHkXgKyxSw+FclMWs4nFAjJGlj8Ewmf1S6dhMyQyZUTrF0OuzSJUJNM6uLFL3weHve4y09pzPXOl24ENCAv3Wu36FdOXvd7378H3/6/PxClAQt2kWhcuvQsrToa2XEMTRWwbv0mAWQWxi5cF0VH0KWGkRKQJ+dw13cfwKYt2+Dx+kVaxjl25Jzph9weZEpD+WwqieGjh5BJT+NlNz0JndFQm6c4ESu6wTVbmEmkcftX70GIBcP1m4RGoQ/ysdGjOHpwD172jO04NjkrgMzsuLe3T9aUL+TF87hebyIYDMooqSq9kktFaVqRLNluN6aaOOFxOVGvVJDOpJBMJvD4a67E05/+VO1vsejv3jOzQA3IZybuy+Ko6XQGt73jfSiWKsjnc0IpUPLGDNllAyqpURwYy2L12o3KEa3VwhWbYgh4FF1htpgwOjGHL3z7Pmw55zz4AkFUKjXxQaaRDykBcr8EY3pNzM1M4uiRIVRKabzhFTfC7ToxSokssozBIyC3WigUy/jIZ/4bnkAMGzdtQyAYFA57+NhhmAozeNqV5+LQyBR++BsCcj+6e5UzXCGfF48Kpu/0uiA9US2V5dyYHZs5fNXB4qNV7EG5BlOjgWwuIxlyuVzEu9/1VvT29CyLe0Cf5J8WAQ3If1q89Lv/hAjMzs7h/R/4KI6Pj0sWSRCjBzFd3nr9LVjqJew9noQz2C0ZJb2HL10fEUBuG8Afn5zB577+E2zach6C4ZhMEqH8jFw0vSbYEUdTIfLTx44OYfTYMJ545RZcct4GGYraomUxU21SFpxI3VCvWrWGR/Yfxf17x7BmwzkIBkKS/Q4fOYhLV4exrr8TOw8O457fHEJP3wC6e1RRj3I3Zruc5cexUtzYZl0tl4U/Nlusqq3bYhUVCOkVm9kkQ1BTqaTQF299y+sxMNBWfvwJAdVvPesjoAH5rL/EZ+YEybF+7GOfxtDREUxOjMusOnblxTq65c/8dRHAYTPj0eFZ1J0R2G0O9EbsWNPlEWqAfC1BmV17u/Yfw9HpCmIdXTIfD/UyovFuxDp7xU+CnDCLbfv3PoJidk7oio6Yoitox8npH9VyBYVcAflsAUXK64pFZPJFPDScxKp1W2T4aTabxbGhvbh8XRzrB3rw6LEJ/Pihw9I80t3VSwt85LJZMQ1ig0pnvEt4bj4MSHcwMzZZbFJ0pEsc1+90OEWPTCBmhkxd8sCKXrz+da+B2+06MxdHH3XRRkAD8qK9NEt7Yfzz/93v/SBS6bwY9hCgmVVS0WBqNbA+ZoHXYcXOw5NouOKSVcacDUQdVTHqsdutAmoOlxOzmQIePjiDYLQL+Wwa560JYyJdB+whacJg9ktAfmTXb/D4y9bj4nPXK4lbC5IJpxIpjI9NYmZ6FulUFpVyRWbnNRotpC0ehHsGhZ+mB0Z5ZhgbuoKIxcKYypTx66Ep0SF3dXWJX0Y6nRZ/CsrvVvSvFMpETaQuSyehycyJ2E5pGOFDxWYlhWFDo1qRwl46lYLL5cD73nubdoBb2rf4KVm9BuRTEla901wujw988KNIprMYHyMgF8V7OBbvgq2ew6qYS6RtDx0cQ90ZFeC15OfQykyL2Ts1xiyOuT0u+AJ+HJktoGkLIBpy40mXrsWxyTR2HJhCIBgRKiSfy6BemMNTtp+LjihboUlRkCsuYmZqDnOzSdEEy35tVtjEg8KC8UQej03kxUmuUUjhwtVxRHwuNGoN7B+dxo5jCbHq7OjoEjUFJW/T05OwtWoYWL1e7EDZzMLRTipDJiCz6Kjm/fEh5KR5UbOGTCaFFAHZacc7brtVe1vo/5v8TgQ0IOub4pRE4Dvf+R7+5/s/koxx7PioZJGBYAgebwDuegK9YY9wu7OpDMYKVulq63TVYW41RHHBeXUyIskAZovTgYcPz8DrduL6a89HtVbH1374EGyugNAHuXQKa3p9eNJV5wsQs6uu2TBGL5XKYu1JyZuNHsoWHlnxynuPTuCenUPwedx40oVr0BcLiK4YjSYePjSKn+4ZETP7jniXGAoxw52YHIPDasbgKuWvIYBcrUiWz/Ntmx+xMEknOIfNDrOpiWwui3QyKdn81Vdfgefd9OxTEnu906UbAQ3IS/faLeqVf+GLX8Z9v3wQdqdL2qQL+QJi8U7JZp3VBOJ+BzycIO10Yu94UnwqLlrTCYvZKgY9VpsFVjO78FS7M0H3ngceRb5cw/OuexwcdjvS+RJ+8Ku9yBersJjqeNEN2+F22NBqtKTQx+Jfs8Zp0nVlPkQT+2ZT/C+omCBgHp2Yxvfv3wu/x4Ebt18At4vjllrif7zrwAh+uucY+lcMIt7RJcb3pB1o7Wm32rBmzToxEirKFJETgMwuQiXJUzy4ZOUWs3ye0jdmyuds2YDXvuZVi/oa6sWd/ghoQD79MT/rj0gwvPPOu3H/gw9Ju/P4xBiK+Rzinb0oFPNwVJPoC3nQFY+KhK1UreOxkWlcsWUQoGOakiALKBKPZbgzJWfVGkank9i2cVAkZWzAmExkcO+v92J1fxyXbVunxjE1VOdekzxxtSZ8cZPfN5tSAOR7TFYeR2Xi4zNpBL1OydJVe7XSyO06NIp7947KZJFoNCYub7QMnZockyLkmrXr4fX6UK6qsVO044TFAq/HJ14bbUCmJwfHQNFLOZ0mbZGEz+vCS1/6Qqxbu+asvx/0Cf7xEdCA/MfHSr/zj4zAzod340t33o1arSHeDpwczVZjny+ATDYDh9WElX4TemJheDwu6aArlqsI+TxSLBM2gS15HPzMrwRnOrtJ5myHzWmX4aQs+jGT/uF9u3DlRZvhdTnnrTjrtTrq1SoafNUIyg1xhJNZeBZlkylexjI52qAwhMhQGTkBmZTFfQfGsXJwtTSzsAV6empC1BLkrnu6usU+lDroaq0qigpyyJwPSLkb96YKe1ax6STlQZOhVDIpmfZNz70BT37yE//IqOq3LYcIaEBeDlf5NJ/jT+/9Oe686+vSjmyx2DAzO40amyOyWQHkcCiMFZ4aeqJhBP1eMf+RUUgcWGoSHFZFOQIos12CstmktL1sTXba4XA55kGZsjanwy6qCmqM6Wtcr7YBuaKy5GpVAJoAz6xYAL4NxgRkcr0Oh+ihmZHzfbuGjuP+oSmsWrtRfkf+eGriuFAUdKmLR2NCWZTKZVFg0FCIjm/s+mPbNAGfmwxKtVllHbkc9cgJeT3rxqfhyU/6q9N8dfThFnMENCAv5quzRNd2789+gbu+/A0BK3K1lIpRnTA+OSbAy+kb3fYSeiMhRMNB4YPJ6wo/YbwIxiDvS+MgNnNwXBNpCgKxywkbpWUOu1AX7dl2bL0WX4taXeRukhkTiEsllPN5NMpleTBU6g0UK1UUS2UBe76XgBkNBRCNMmsnmFqwZ3gSO49nsXr9RsmsE3OzmBwfhcvrg9fjRVdHpzq/TFrOSw1hdSAQCMLr9qhuQxb2xGyIg1Ib4udBpUUqNYc1a1biRS/4G0Qi4SV6pfWyFzoCGpAXOqJ6f/jZz+/DV77yTThdLtTqTWSyWRwfG5GCFgeasuU41EyjJxJERyQk2Sd9L/Ji/M45e+SPTSIPI/eKWh0mKiPsDrgCfjjcHtj5O4Kz3SHOanaZDN2U/bCNmiDLGXj1cgWVXBaFXB6pdBYzyTTGZxKYTaakmYONJxz/ZDNbEPC6EQv5BZi7OmLINCw4lAVWr90gOuOZqQmMjY0gEIqKKoPTRNilN5dMwOV0y3nYXR7EInH4vB6hK0hbENyZJSs/5QIymYzYcVLP/I6334qNG9fru0ZHQFFzLT769aYjsEARIJ/6ne/+AN/73o/gdLpx9NgRTM/OSEGLW2dnj3SouUrT6Ar5EfS4hZZIJJKYmJ5FMpMTyoLKNRbDaCQU8LgR8nsRDgcRjkbE9c1Og3qX8o3weTzCRVPmJtmxALIC42qxiEI2hyOjY9ixwg6pAAAgAElEQVQ/NIzh4xPIFsqoVRvCFsvdz0IfTGiaa7BaTHDb7RjsjKOnvx9zjpg0szCzpeF9U/Viw+NwoH9gFVLJOWnnDobCojmG2YKe7l74/X5jxBSlb2YZfkrVCD0vFG2RFE/ot731H7FhgwbkBbr9lvxuNCAv+Uu4uE5gbi6Bd7/3Q0gk0tIqfXxiTEzfqdFlw4TPH5A/3y2lBOIOwG4yYWJyGsenZpDK5VCs1NBsmuE0uwX4SCvDUpesddVALzatXQV/MAibyyXFPTaOhEMheL1uoTdUMY+gbGTHhQLSiRR2PnYAe4eGkUqXUS4BMW8HHBYHaqWqMieq15EzJxGMezEzNw1Ls4benn4EVm2WAl42mxKVhRTxalW47A4MDK6WcVFUXnR19wlFUalW4fb50dfdKzxym6+mmoTFPWbUnDaSSdP9bQ7XPfWvcN1Tn6QyaL0t+whoQF72t8DCBoCA/K73fBipTBZjE+NI0vfBbEL/qvUoF/NSNJPCXLMGb2EC1UIBjx46iul0Fo0W4LfF4LZ6EHQQdO0oVosoVfOwuuro7PBh6/o16O/rgcPjgcVug9vnRiQcFoqAs/XIITfbtEWpghJHKM0lceDYcUynypgezaJYqGLtuo1wl22YGptEqVUCrGY00cDWy9cjW8ng29/9JhwuH9afe4nM8aNbXSAUE40yfSmcdpu4wJHCyKaTGBhcK6DO5o/JuSQuPPc8UWFIsdLCgqFTPkPqg4CcZddeMgmzpYUPf/C9umtvYW/DJbs3DchL9tItvoUTDPfs2Yv3fuAjGB07jkq5LO5uPd19mE3ModFsqCIcO9daDVQmDiKXTGLo+DgC4TiCjhiaBRN8Ni9i/hi6VvdibHoMYyOj6FkZhzsM9MQD6IyF4fS4YbZZ4fK4EY1G4CcgCx+sAJmtz/QhrhTpVVxCuljF+Eweux/kMfPoiffC3rAJb12oFYWPhhXYetkGxPui2LXj19j92B4EulfJiCh2GPqDYXGt44PFbrMgFI5jfGxEjPHXrtss3XqUs03NJnDR+Reip7tH6AqqQ5wumgzZJLumBJAZMgt7rVYDb7719Vg5sMKYjL34rqte0emLgAbk0xfrs/5ItKb8wIf+Gb+8/9eiQSb4XnDBxeJNMTR0UACTnK/Mxms1kRwdQm7yGBL5Ai6++EpkJouo5OpwtRwIe0KIdMcxk5qWSdD9a/pw/pWbkE6OI+x1weF0wGS1wuF2oCMWVRkyJ0ezQ6/WQKPOrzXFKTcaSOXLGJvOYe+OIUwdmYKtZUPIG5Suk1y5BKvTBVfAhm1XbkIg4sGun/0QtaYJB5IFWOxOxOLdcHt8qFSKKBeLMLM1G8Ds9IQ0gKzftFWyX9IQiWwOF247Hx0dHbBSqkcdst0hLndsUqFZP03uSXXQ/W3L5k140xtfK+/T2/KOgAbk5X39F/Ts6elw511fw8O79ohZO1+cED0yNoJ9jz0qXhacPM0/38m3ZiaHYcvPoVJrYMWGbUiM5pCdysFpsiPqD6FWqyNfLsBkM2Ng0wqcd9Vm5PMJmKoF6fCjioHAHI9FVFGv1UKTQGx4HvMrC4bUCE+lC5hOFTExNIVj+8eBWgvWllmmfDg9XrQsFnjCNmy9fB2sDgvqY4cwmcriOzsPiqoi3tktHDjpimq5hGI+i0KpKAqSUCSOgRX98hfBXCKBVK6AS86/AB3xuNJO88EhsXCi1aT0TSkt5uZmBJS3bt2CW9/0OuGY9ba8I6ABeXlf/wU9ezZ+vOVt70GLkjWXWwzbC4UC9u7bA7+0GFfFwJ1ddswq09Mj6HM0EfR60PJ1IDlbRnayCFvLAlPdaOBgR53Tgg0XrsHabatQqxaQT07BblE+Fy6vCx1UXrjswiHTx4LmQgLG7MozmQSo86UaJlMFzEylMXJwEq1iC04zM1ebeBgX61V0DITRv6YDlnwCUXsLe0Ym8e2dBxGNdSISp88Gh5wWpduOreCVWk0M66NdfYj5vfK7TD6PXLmKi7adi45YXJQX5JB5zl6XS9ZEQKbSgrI3OsfF43E8/2+fg8svu2RBr4fe2dKLgAbkpXfNFu2Ks9kc3n7b+2jNA7vDJU5oLF6RMw0GQxg5dkSaMpg5s0tudnIcqwIWbOnrQKrcRKruRmaiCK/VCRvM4lXRoMrMacLmi9fC67cjm5yE3+0UNUOlUoU/6BPvYrYmE+wEjMkliJizKVM7CP6VclU0zpOZEmanssgny7A0LDLNo0KPC5sJ8W4vzNUMIqY6OqJh/PLwKO4/PCVjp0LhqOiVmSFPTU6I2iIxO41StYZIvAteuxVFSuyaJjEaumDLZunkY3bMoqDT5gBNh6QoWCpI1+LcHAF5Svwwrrn6cXjWjddr0/pFe3efnoVpQD49cV4WRyEgv/OdHxS1BLNj/olP4KQmmE0RR44ckqzS6WIHn1n41g5LGVduWo1StYGZmhWFggmmigl+B2VvZpjcVoQ7/YhGnKiXs/B6nDBbzchkcqjWaghHQ4gEA8LVcq60yOql4U9lx1abFVazBY1aHdVSFaV8HolUDql0CflcUWw5+QGX245WKS3a6N6OGFKlCj5178NweQPGYNaAKuiVS2K3SV313OwUrF42tthhb1RRqrdQN9tQq1awbcMGxCIRyY4JyDQe4gxAbsyQOWNvbnZGsmS2WlP29nevfInQF3pbvhHQgLx8r/2Cn/mXv3I37v3ZA4qusDvgcLqkfZob9br79j+GQqkkyguKjPO5LDy1NJ6wdQNsphZmskUU64DFHYPLxW48J1BJIxKme5oNTrdqmy6WWTxLS7EwGgkgEgxKC7PCYqbHJuGoOVOPLdGSJbMIV22gWa2imCsI5VArqll49K1wGE0oXrdLwPHA5Czu2jEkygpmxyxGUkNMWqJUKqOQzyIxMwl7sEN1E1byaNi98hBp1KrYtHY1wsGQPCi4P04RIW3DjftgMW92dlayZD+ncFsseNUrb8a5285Z8Ouid7h0IqABeelcq0W/0ve9/8M4fGRUvBzInRJQmQ2TQxg7PoJ9+/cgXypJJxu55EI+h0Z2Ck/csg798YiMViLY1QmmdjtcXo/S7/o9yhfDbkfLbEIqmxWdM+VsPbEYIuGQqCuEsjCc4Wg2RP0zC2UEO7MU+hoyARr1Okz1Bkz1OsyNuqyPKmTSHfwvW6ziU/ftQh42hEJRAWTO5mO3HiVu1Wod6XQCs1OT8MR7YKEbEY9rqEc4WWRVbw/i0ajQLpT50Xgo4PPPUxb095ibm5WiXijETNqMv3nes3D5ZRepCdx6W5YR0IC8LC/7qTnp97zvQzhyZEQyPoKQSL1cbjTqdYyMHMG+A/tQrJSxom+FSN8IyGw9ftxgDOcP9sNLSZzYYtKk3grY7bRKkxclbrTfrDebSGYyKJUrSCQzWNXfg3AggFK1IlQJM2OXk4oGh7K/pEscXd0I2ALGBOUmzI2GvEyNOkyGmT0tOhvNOnYMT+J7B8dg9wQRicbETrPZoFNbTnTLlNGlE7PSWegJxZVhM8Gfo5qo6qhVYUEL527eNO9I1wZkQjeBXc3mmxHXt0gkJoAcjYTxhn98Nfx+lUnrbflFQAPy8rvmp+yM3/Xu9+PwkREEg2EBJ3oXk7aoVss4euQQdu/ZI4A7ODAoXhRUGpA7Xutu4ILBHnQE/cK12qkxtljQ4kRpq/oKi1my30qjgVKlIiOcxsYmsX7VSnFno4Kj3mgKn+vzugWUxYwexEp6ehJ8W+IgR0BmpiyA3FQ+yTL0lDK7Uhl33P8opspANN6BSCQKt8MhU6rZhUerTQ5sTSVm0bC5YHG4xF+ZDwJu3BcB2WxqYeuG9cYEajvcLg8CPp/QIzJ5JJPC3Oy0OL+Fw1EBZJ/Ph7e99fUIBphJ6205RkAD8nK86qfgnCn/evd7PoCx8Wmx15T2aKtNuFeC2dDQfuzeu09c0lYProLT7RE1QqFahzM/jUtW9WBVV4dM2nBxcgdBmFkyRy1ZzEJjiFWm0AqQgt7Q0FF0RkJKmWCxyCw7r8cDn89jeEOoUUzKRagJk8jiGmjV6zIzj1kzwZlgzEIcC3wPHhzGD/eNSOdgrLMToUBIwJXnxwdIowkxqif3a3H5YXFyMgizeouY2yv7TwIysH5whUwP4UPJ4/bA5/FKps19saBJjw82iDBe5MD9Ph9e/7pXoq+vR3ftnYJ7dCnsUgPyUrhKS2CNd33lq/iPT3wa3T19CIYiwgFbbbTHtEvxbv/+x3Bo+Bh8bhdWrRyEPxAUQM5WGpgeH8HjVgSxZXCF/Lnu9XokuyZfLPOcLARmAnILdcOckE0jR48Ow95qwmW3w+v3wxsKwR8wPt9uspAsWfksMzttyWinOlp1jiNhxlyX8UvMetOZPH70yEEMp8uIdXSKM53X45ZGkHwuj1K5JIXEXCaFZCoFuy8kXXw0tyfvy8IhpXH0tKDmoyceRSAYhNcbQMDvF1Cu1yrICqDPigaZBT6qLJTnhRVr16zC6/7hVdL4orflFwENyMvvmp+SM77jji/i07d/RgFyOCoqC86dIzBn0kk8+ujD4ujmczmxcmClTNyQKc6lKo6PDGN90IzNK/sRj4YlU3S7nQLGMtWD3hdmlt0gPDF5CGaiiZk5tEolWFoteLxueCNh+MPKYL7dhiwgzDM2OGR+L+OcCMpNSDZLGiKTy+Nnjx7C0ZmsyNzCfIUjIFFSLLCYl0e5VpeHSCY5h1KtAYcvqMDYajNmACo/5lq9BnuzKu3cpG9ozRmNxMWRrlIqy5BT6o8JyDxHely05++t6O/D29/2Bunq09vyi4AG5OV3zRf8jOk//Lk7voivfOVrku1Foh1it8m2ZEq+kqkEdj38EGZSackUB/tXoKenB+VqDclsAcOjw/Chgs1dIfR0xhEK+OH3eWXSNIt71BK3Ry6piaf0S26hUiihVixIxssZdt5QUBQetOQkhUAOWaZPE3lJV4g9Zw2ZXFENPeUsvGoV+WIJ9z82hIlMWQqSgXBExkyxi69WqUoWS/1xpd5EqZBDMjGLatMEdzCqAJkqjnaGbABys5SFx+mCPxgSYO/s7JYHDfXLpCumpgjIEzLiirw3HxrMkAdW9OGdt92qAXnB79KlsUMNyEvjOi3qVR46NIQ3vultilKo19DR2QMHtchWNRmaSopHdu3ATDYnoDTQ24tVAyvRhAm5QhGJfAlTxw6i39NCX1eHyNgIyvQTttrZ6abajznmSYagyrRoJr0tNCpVUVHYHfRGdsPn8yqAE5aiqQCZxK9BWaSyBXz1+z+XqSEEaP6eIG+x2mWQKTsKQ+EIPG63ZOE0DGIHHtfK79l5WCgWYfcF0Wy116IyeSnsNRuoViuoF9LwuAjIYSkMdnV2we10IV/IYW52Vga/cho3O/7YQMOPUqJHT4x3vP1NGpAX9R1/6hanAfnUxXbZ7Hnfvv14/RveArfbK2Pue3r74HT7VJec1YZUYk4oi7lsXmbN9XV3YcPadTKhmU0eiVwZQwf3IGKuoC8WRFcsKtNBAl7OqLPDYiMoE5DNUuDjn/dq3xY4LDYE/R45DrNmu80qAEsQJoDSzEdlyic8LkbGp/HDBx/FVCKtABlNyVT9/oBks/xKcKVVJr04qnXVXVirlOXhUixXEIh1KfqE6Tpn55HnViN4UKmU0Chk4HW7EQgTkOOIxztgMbEgmBa6YmpqEvsPD4kEMOD3yToIyIMrV+Dtb32jBuRl8/+e3z5RDcjL9MIv5Gnv338Ab7z17XC5vJicHMPAwCDc3oAAqdViQzIxgx27dyFbKMDrdKIrHsc5m7eI10WpUsVsNo99+/fB2Sii22NGXxcnOoelwCd2nZwwYrOqhgmCn9Us7cgEML+bcjIWARUQK0GFynzrpCUa9fkxTcJcUAXRqOOeB3ZjaDxldPjJnGuR6lF6xkIkP89MmMU+t8crlAjBlGOX6OXs6xqUMVMEbtIWMqTVOHalVECjzIePG+FIDNFYHNFITJQcnCs4PTkulqJHjx/H+rXrBZBJpbCjkL7Ib3+r5pAX8v5cSvvSgLyUrtYiXCv545/9/Bf42Mc/DY/Xj+mpSXR0dsHrCwhdQV6UioKHdu8Wu0q3zSrubOdtO0/Ar1SpIVcs4je7dwsIhppZ9MfD6OvuFL6ZxS3SEcyAlda3pQp9bCAxc9STBQG3G1aHXQzrbQ4W2KjIaIgnM7vvJInl/xgG9lIQTKXx/V/tRrlJxze7okEkxTUL8JdLJZkSQi5cGjfMZkzNTOLo+BTWr14t+uN6vYmWALL6DFdHXprmQagWxbsiFIkhFo0Lt10q5iUWbCMfHjmG49MzuPSiixHy+1GvVuVhMjiwAm99y+t1hrwI7/XTsSQNyKcjymfxMaanZ/Cim18mWtxYZw8C/iCmp5QbGpUWVDvQQOfhPY9JxmkzNRELhbD1nK1S6KpQRpYr4IGHHxZJm7NaQNwNDPb3iGkQeWFO22CWTKpC3NxaTbRqdTSLJZRTGZlKLeDMYajRMOxeD8ocRBrwiTaZ3Xr8T6gLZsgEzXIFmWwOO/YPo05qA2ZMpfJyDAJsPpeRh0k4EkUkHEU6m8GBo8ek9fuCc8+TBwS7BtvdgXKEFjn0iuiuOZMv4KcxUVSyZIfNLvrl6ZkpjI+P4vDwMLKFIq664nEI+v1iwERaZaC/RwEyfTz0tuwioAF52V3yhT3hqalp/O0LXgyH04vO7h4EAiEcGTogZvQ0GaKemH/m79q7XzrsLGgg6HFicGAV1q3bIBkpPYQf3LUL1XpDGkG8zSL6g3Z0x6PS6OH1ekWXS4BkhlwsFDE7MYVg0wR/vYVmtSbdeF6XU5QWRZcVk+USuvp7Ee+ICyCzyCcFviYLdRUUi2UZuVQqcuhoQWRvozMJoSHY8TeVzMPrD0p27PF6cWxsDEOj47BazLj0wotgtdpR54PBmNlOMEWTqo0yirks3E670BSUzzFTZsZNQ3o+rMYnxjEyMYGWyYxrrtwugFytVCSD7+vrxlve9Frp8NPb8ouABuTld80X9Iynpqfx/BfcDJfbj87uXsTinWo0UTolQEYt8uTUOB7Zf1C8kM3NBtzWlpi3n3POeZJJs+tuYmYOjx48OE8d+E1V9AetiIXD0kpML2G7wwaL2SIFO85oDtFjuNqAEyzm2WB1OmHxeVFz21FqNdAklWDI31SBrylTSGhgROVEvlhELp9HNpeX1mvqk7mWkZkMSg2TSOCouKhUa9hzZFjMj1hcvOKSy6TYSIBvS+vIV7PJpFwuolrMw+/zo6OzW7rw2CySTiWFX58YH8PYzKxon9mdd+32q4WaqVUqsr++ni68+dbX6gx5Qe/SpbMzDchL51otypVOE5Bf+FK4PD5pCvH6Q/j1jh0I+1ySXZKfpaH7IwcPqQy42YTLCkQDfqxZsw5d3b3yp/psKo0djz0m1AHJWHujhiBy0hrdEY8gFAzC7XKqQqHJAofdLpaZtmYL5lpdMleX3wu71ytGROR2BSyNLJaAzBclacUSu/KySGezQluUyxWhLQi8E4kc8rUm3G52/PnQNJlxeGxSnOWYwbKQeNUVV0rDC1u5pVW6URcDpWadJvg5tGoVxGId6OrqEWojl8tgdnoSx0aOYWJuTh4ILDbyYXHNVVfD7/UKZcGi3vYrL8WNz3ya0fq9KC+5XtQpjIAG5FMY3OWwawLyC198C1wuH7p7++Dxh3DPL36JiNuGnq5OoSwo8zpwdBhVpROD3dxEwGFDd3cvVq9ZJ45onKu3d+gwpucS0pFHCsJWLyBkqaGvI4Tujk5pqbY7aatJ9YYZNlp8Wi0cFi3fO1wu5aFMikJKbIDFuAjMPpn9MsvN5vOYS6WQTtPCs4hane3ODWQKZYzO5eG0mtAyW9F0+JDJq0yaVAnXtGbVaqxds1b2ygGqnNfXlteVSwVpq6bTW0/vCuGOpREkMYdjI8OYmFWSOYIx/TO4v2u3XyPabOqdqcp49zvehGAwsBxuHX2OvycCGpD1bfEXRUAV9V6uALmvD75AGN//+S9hquTRE49Ic0cqmcCRyWnUm1RIWGBpVOFx2BGPhLFq1VoEQyHYnS4cHjmOfUOH0GgZ/sImE+zNMqLIY+3gAKLRsDRX0PmNRT66sDlcTjjtdqEsbHabFBGpxmDxTyZQU2csY50Ud5zLclpIFolMGvl8AWXadtaY5TaQLxSlc1Baqc0+VFosIiodM5tMuO/Hb79WOGFqlAnkLBISkLmlEzNIzkyis6sHoQhHPjXk3CcnxjCbLYgxEjcaHNWqZcmor9l+rVAWHJBK3vld73wzQhqQ/6J7cil/WAPyUr56i2DtCpBvgctNyqIf3kAI9/zqflQKefjsZgQ8bjF1n0zlUCfQstW4VoLbbkXA68aKFauEtiCXPDWXwMN7HpUxT+QtmOVa0YS7nEAs6MYKMX2PwOl2wu1UFpucIEJpnEu8M5SXsjTMCQg3UavWQGkeFR6zswkkkykUymUpopXlVRVw5bw9Zs75SgN5ixdlkw2tJs3rFRgTlJmRP/7qawRAqdTgi7wzwZ4AOzM1gVqlJIb2pCDmknNgZ2CZVA3VG7xe1FGbAKsJqFfLuPD8i8StjkU/m9WMD3/gHQiFQovgyuolnIkIaEA+E1E/i445MzOLl97yKlhtTnT1MEOO4N4HH0ShWEC9UobH0hJtbqZck/ZjelPQFN5pacmf6NFIFIODa8TzgYb2P7nvF0hlMsbkDxrVc9pHHfZ6ARGXGQPdMfT39Mif9VReMEP2uNxiSC8NJGZFUoiJkLQ+V5BKZXB8bByTM7MoFkuG2oIFvpo0frB9O5cvimFQ0R5E2WyTzJeqCZnRx63ZQldnJy676GI4HQ6RvJGyIP1Ag6JMOoXJ8RE4KbOzWJFIJDAxOQGr2y/yP9EpE4zZ5m21IuhzY256Elu2bBNpXrFQwHlbN+LlL79Z2rb1tjwjoAF5eV73BTtrmvP86Mc/xZfu/Boi8U4EglH8/NcPIV/IolzIo15VxTBO2WDWa7U7pdBlbVQQCvpht5ixYuUaaS0mcP361/dL8S9TqqAjEkYyVxSqg/9Za0X4GxlsWLMS6wYHxeGN8jByy/RR5vw8tndI/4jRqTc9O4sjw6MiM+NwUk70YOaswLoqWTHleG6bHUVYMWsJSUddU7LjhnJxM5nlHM4/Zys2bdyoPi90CP2P6yjksjg8tA9lcs2mFly+kBQyM7mC+D6TjuE504SetIfLboPbCnG5O/f8S+XBQkvO173mFbj4ovMX7NroHS29CGhAXnrXbNGt+OChIbz7PR9GKNqBUDiG+3bskOJWKZ8FC12kBKhCUBNEaBjkgKlWEv0t/3z3eHyiSIjGOoTeYKsyJ4KMHB3CZLaApskiVpnNVh2WWgneVgkbV/Ziw6oBaRxhUczv8cBiVbRAo9EUJcPE1AxGxsYwk0iiyjWwCCcObzXJnElZMKMmQJKDTtaA8aYHtXJRjXsyBqZSnuZyOKQhZGV/vyF3Y5mvJdTH7PQERkeGZd3UFqc4by+RFLMltoeza5EGQpTM2a02BD0OrBtcgVVr1uKRPfulYaTVqOIfXvtKbNuqh5wuuhv8NC5IA/JpDPbZeqgDBw7hbbe9F+FoByKxTuzatw+5dBL5TFIyvzWr+jE4sBI/+9WDqDcIUi6gUYPX7ZSRTSY04fEF4HJ7EAqGjUGgRYyOjaHQMMFksQn4NYziGukDVy2H1REXers6Racc9PvET6JRrYvPciKVwdTsrEjchEumwqJSFTVDnbI2lx1Omw0dkZBokPPFMhKVFo7V7agVCmi1mB2zLZqcrwUrV/Tj8osumdce81oyy84QfGemBHzZfs2pIuPHR1GsVOSvATbHkFN2ebwimXNy4Kmlgadd90SYLQ587wf3IDE3i2ff+DS84Pl/c7beIvq8/sgIaED+IwOl3/aHI7D/wAG84Y1vQzAURUd3P44cH0M6OYfEzARKhTxe83cvx/Nuejae+/ybMTWdgI3ZosUC1MriO0yqgUDNBg2rwymKB9IbhETKz2iTJlwuB4i2vY0bDdhreYQtVQF2joYiHSCDSkVvzBl7qk2aQMzvmdNuHRwQHpfKDNYYC+UKCvStKJUxU2rgaNGMajGHFnXCVmWMT2OhKy66BNFwSGgKpuHcL433Ccbs+ON0FGbdbBOfSyZkDXSIIxjT8N7t8ckaPTYLbrzhyejp7sbtn/0Cho8eRTjIWXq3Yu3aNfo2W+YR0IC8zG+AhTh9ysQ+/enP4Gf3PYi+vpWYyWQxMzWOmYnjOHfrZvzLP38IkUgYP7n3F/joxz6FXL4keuFKuQRbqy6Wl+K05g/KjLnxuRRq9aY4urEI2KSMjRM+2v7G8hUw1cqI1OZgMZlht1vhoOzNYkGxXBV9MBUWzIL9bpdMI2FRzet2CbhXanUUSmXky2XxpxBALtRwIFMXQGaxzuHyCiBz6vQTr75aeGSl3qhL5k9VRbFYkMyYNEi+kJfGED4A4vEosvkiOjt7EYqy/doPl90KW6uKd912Kw4fGcanb/8sXvqSF2L1qkH09fXqOXoLcTMu8X1oQF7iF3CxLP/HP/4pPv+FL0sLdbXRwLHhw0gnE3jJi/4Wr33N380v8+vf+i4+9dkvCZdMbjmXnBYOmLK3Qi4n2Wrd6kCzSUWGXbrZmqaWmoU3722simqolhGrJ9AZCiDk88p4KI/TiUNjkyKdo1Liok1rEfJ6jckhJgFT+tXz95S/EZD5NVcqYypbwt7ZIirFvHyWXYc0x+/r6cZ5W7Ya1p0cUpqVidHJuTljrFRT1Bot4bqbQm/8/atuwa1vfxdi8S6EI3H4AwEE3TY87znXY+OG9fje976Pjs4OXHH5ZYvlEup1LIIIaEBeBBfhbFgCedr3ve9D2L1nv5jTHz16CE6rBXd/9UuIx2Pzp3h0+Bg++ZkvYXRiWppEOAC1kJqRNq1CUuEAACAASURBVGua+uQq7KYrqakcNLl3uNRwUqMBQ7VCK41xq1JCuDaHvlgIYZ9Psl8BZZcDbpoRmTkRz9AkN8hBK2UEp+wRkIulyglQLpUxlspj91hCjOhpWO/0eOF0ka64WIp6pD1orckRTOy+Y5efOxA2/JAtaNRq6O/pwHve8WaR9N34vBch3qGaRKiffsFzn4FztmxEoVDE0OHD2Lr1HOnW05uOQDsCGpD1vbBgEdi37wA+/M//B3PJNNLpJG576xtx7TVX/44vw/CxUXz+zm/g+PikFMPKxQKqhQzsLjeyBMlcFtlcGuVSGSvWbBSbSpPR6CFZMv+jt3G5hFBtBgPxKCIBv4AxHd/cTr7YYq3m6rUlapwoQlAmHU0VR4Gub8yQecxSCaliCYmaDTWHXzJ8yt0G+vvR3REXlQjboPO5HLJ56qRN8AYicHrVxGiCMadOX3HpBXjzP/49qDx59etuRWd3PxxWK7riQbzztjeL5lhvOgJ/KAIakPW9sWARIPgxA37lq16LYCiAf/3oh9Hd3f07++f7qA3+yL/dLh7IzZYJ5WIe5UIW1SakySKfSQvwffh978YXv/oNTCfyYhTULqox822Ui4jUE1jZGRNAFjB2MDu2wyN2ncoZTpkMGS/JmKm6aKJYLaFQrhqFPcUlV5wh1N1RPLzj1zI1ur+zUyRzBOMiM/d8XmR7lPixmYXaaTlOs4GLzt2C17zyZtFEv+FNb8PIxJzI+no6wrj1ja+TvxSUyb7edAR+fwQ0IOs7Y0EjkMvl8J73fhDbtp2D5930nD8IQJlMFnd88SvY9egB2JxOKcDlMkmZNUentmI+JxM2vv3fXxHFxfs/8nEcPDoi/hH0qZBJHfUKOpDFYFccYb9XWqnddgdcDptQFlRdtMc50bCoTV8wQ2ajSqlC/pi0BTNklSnXXCHUBJAfVA0cbje7nsUo6XFXXIavf+PbKFfrCATDMgWExUjqqy8+/xw855nXIRoJ48Hf7MQX7voa5uYSGOjtxCtuuRmrVg0uaJz1zs7OCGhAPjuv6xk9K/pbUBHR2dn5v64jmUziPz/zBTy6f0gkYpzoTBkZQZe+wn93y8147nOeJX/mHx0ewUc/djsODB3FXJJNF03Ymg1028tY3dMJv9cNl8MuIEq+l4DMFmVmx2xzVjSHavUQBZ0AMrNjA5SFtiij4vCj5ghh1+6d4klMQ6PXvuoWrFu7WqRqL3zpyzE+OYNQMAKvzy9KEB7r1S9/EbZt3Sxr/9Tt/4Vf3v8APA4b3nHbWzAw0H9Gr4c++NKJgAbkpXOtzsqVzs7O4uP/8Wlk8xXMzCVRKhUxNzsDl8OCf/nIh7Fp44b58x46MoxPffZOPLp3v/hEoF7Bar8FK3s6RNp2MiA7HXSAU4BMuuJkMBaQJiCXK8iXySOr4l6hWEbB7EKmYUcqk8SWTRvwzGf8Na6+8nLJttl6/eKXvRITU3MIBkNwOF1yjCdcfTme++xnyl8DP7/vAfzwnp/gOc96hgwsjUYjmqY4K+/cU3NSGpBPTVz1Xv+ECMiUjpFRfObzd+LwkaNiWfn4qx+HN73xH2G1th2Nmdm2MDExLbK5Xz7wAGYmx7A+4hJA9hmAzIYPUhYEZBunhRgZMTNk9nQQmPlv+h8XmCFzcoioLTjWqYRsy4bZUgs3PecGPP+mZ0lBUqZdAwLIL3vF32Nyek5GVV16yYXo6+nAM69XhvJ0kvvmd76HC8/bhs2bNsx/7k8IhX7rMo+ABuRlfgMsptMfPjaCd77ngxgfH8cTH3813vCG1/1eWdjx4+P4yL9/Ense2Y2YuYQVXTH4XTQacogTmwAymzBYbJMTVDP1lK+xau4gh0wQlqaQgtIiU2mx/vyLsP2J10lmzv2dvNEf4xWvfh0mJmdw1ZWX47WvvkW8kfWmI7BQEdCAvFCR1Pv5iyNA9cP4xKTofQl0J+uX//+dT03P4NCB/fj8v/4zOsIB+D1uUVg4nXY4bARkm3hHkK5QW3ukkwLlao2AXEaOQ04LRdU+XSzjmqf+NZ5388t+77mwI/Hv/+FNGFixAq+45cVSwNObjsBCRkAD8kJGU+/rtEbgyOEhfPAtb0RH0I+A1yNgTMpCANmhpofIxJD5zWTwyS3Uag1plyYYU+fMMU35Yul/BWQ+KO6866t42l8/VVrB9aYjsNAR0IC80BHV+zttESAgf/itb0JnJCj2mwLINrv4WpC6sFkNHXI7QzbmkFA2R89lmTpdKM7PzcsVi7jmKX84Q+ZuCPBtTvm0nag+0LKJgAbkZXOpz64TpdvajgcfwH994t/QFQ7C63FLIU+mUQsgO4WyaDTVvDsK30zNEzyyeCZzxp4BysySc4USXD4fbvmHN2Ddxk1nV8D02SyJCGhAXhKXSS/y/4/A9NQkXv/yl6IzHEAsGBT5mYMjnYSusEuTiNhxNtSQUjIX9DjmZqIOucVuvYaY1At1UWRxj914FVz37Ofi2idfB5vdrgOvI3BaI6AB+bSGWx9soSLwrbu/gh98424xmKfDG8GXoEww5ovty+Ix0WxI+zSVFQRmE5UWxhDUer2pmlBqVQFimtmzsGdy2PHGd74fsY6OhVqu3o+OwB8VAQ3If1SY9JsWSwQIqt/5xjfw3a9/GQGXE0GfR2gKmVdnscDB7FgyZKcC5AZtO5WfRXtgqTSJNFVzCB3m2qBcqdQEmMu1GrZccDGe8dy/gc/vXyynrtexDCKgAXkZXOSz6RTZyfepf/0/2L9rB+KhIDxup8zDMxOQOdHZboXLqbr22DlH0G0DstAV0ijC4aR8NcXInkNUa/UaKtUaytWazOPjWKdN552H5978cng8Wmt8Nt1Di/lcNCAv5quj1/ZbEcikUvivz9yOnb/6BUJ+LwLUHsu0aTXRma5rLOSRPyZtQQMi2mYKXcE2vXlApsE9M+S6AmV5NVCrN1DlyCcCc6WCOoAt512AVWvX49Irt8Nqs+kroiNwSiOgAfmUhlfv/C+NAAGVg0Pv/dGPcHDvY3j0od/A73XB43ZLduxxucREiBOdySMTnKVt2moFbdpIWXAfNLgnQLNlmhQFf04QpkmRaq9mQ7WyhOMsP87mqzbUhGqT2Yx1m88RI6Htf/UkROMdcLndf+mp6c/rCPxOBDQg65tiUUaAAJlKJnF06BA+9x8fR6NelQkgNrNZqAiL2SScsdPphIMKC3F6o6GQDQ4W+WxKYdGsN1CpcshpDdVGDdVqfd5syERXC8OfeL6hj1m0WeZNA8ywOTC1VkelVkWtWoXd6cLA6rV45t88X+XbwoH8bggJ73xAhMLaXGhR3mCLdFEakBfphVluy5qZmsKju3fCLAinUO6+n/4YydkZGTgqmTCLdwZYUlHBbJhgyEyXRvBKacHGEJuANjNjmb1nMglQk3IQlcXJLxrdN5sqk2a23GwJIEurtWTOSqFBekNAvVaV72lSPz9OiioOgj/fb3QG8qs/EMRVT3yyFBfbY6fWbtyMjt9j2r/crrc+398fAQ3I+s44pREg0DGzVMmkCYf27cXunQ+Ji5vZbJGfMUmdmZrE7h0PiRm83eZAmNpiu02yYoJruyWa4GYmKJvUz9tA1xA+uCHZr9nE91B1YRYQtliswi8Lzp608T3cBwGYn1H/Vp/lxmJgw5jfRwqDoEy6o16ro8Z/82utDjap8KFA8CagSxFRlB0Ec4I1OWp+roa1m7cg3tOHrt4+XHLldlmX3nQE2hHQgKzvhVMSAfK+lVIJB/c9hm/d/VWRoTkcDhSLBeTSaVitNtENW23kfm2wWawC0pyDxwIds+F2rsx/mE+iBQSU21SDAZztidTqZEwC2qQ0CPrtgt/8Z4x9CTVBUBcKxABkAWU+KH53E5t7ZtfzkjkF0iwMSgMKvwoYK2WHZN38ufFvAjKBvFKtw2yz4ak3PgcXX7n9d2YOnpILone6JCKgAXlJXKaltUjSD1/+/H/iyIEDIkWr1muiFSalQPBVIEygpCObRQEnU2Mji5ZM1WSC5KkGMvKLpf1zyWZVIW5eY8zWaOP37WgRgE+AMsFZ0RDtrWlk5+1sm+9nhszveQB1fI4zVYto882/zT0bs/oM8GW2LI0oRuFQiodGds3sndl1pVJBuVqRouOTn/lsXLL9GomN3nQENCDre2BBI8CZenf8x79j3+5d8LjcArykDVhkI3VA9YPFZoXZwmzYKJ6dhJL8CYFTslzCp2ChKuIRtNVXQWNVnCNFgKYCcCPLlQYQduXx/ZTDmZUkjhkxQfhEJe4EQM/TF8Z+VKKt1kdgZnffb21S8zvxw3YDCsGXfDKBWX5mvASomc235XXVigCzyWLFE55+g4Cypi8W9FZckjvTgLwkL9viXDRHL33x9k/i2NAhpQkmDSG0hAJjq90Kq0FNSEbc3toUAsHQyH7bsClAyxeBldywAYTkZ4nXqvtOFeJINaikllmtAnJmvARlAVzhhk/OkvlZ9X0bXNucsnxWFkHwVxD+2wOjjSO018PioFAXCojbrzZAM5M3kbowXuSeWSCkAoRDUq/566fjgsuv1PTF4ry1T9uqNCCftlCf3QdKzM7iq//1eRzc84hoggmAzIYFkK02pROmMkIyVWop2noxk5j9tAtqCoDV96o4ZwDySaAskfwtn2NDGdEG85MAXknkjEKdwRcLhiuc/e2HQjvhNTLjtqpNgbzx1vZ7jDXL74zMnFm5UBRNA5CFqiCfrHhkzpBSHLPil1kg5PgqgjL/YrjmumfgosddJXpnvS3PCGhAXp7XfUHPOpVK4ku3f1IaNygvE0UDM1M2aghXrGgKgnGbGlALaMFMoVtb3WBwwMx22yBKcJZ9GYW8eTWEQUsYibDifE9KYeepD9mnOoY6ItCUf6rBpwpnjX/PA7nxgDiJwJ4HZEBRKWLpeYLrPpkuUR4ZBGWVMSv1RXPeHL+tvCA4142WbaEvzBZsf8pf4+Krrtac8oLeoUtnZxqQl861WpQrnZ2expfv+CyG9u0x6AjrPJiarKqV2WJWCgopmkn2aQBeu4hmcMnETAFcAjJphjYHLIBq8McGMJ+gNAyu1ygItguDkrlKFtzmmw0wPgHBUKxHu0NPfW3L8NoFQvX9Ca5Yjmt09bXPgym9ZOLG+6hTbjaVFI6yOfLcSgbXnumntM10oiNocxIJAblSqcIbDOElr3+jaJj1tvwioAF5+V3zBTtjZsaf/fi/4+ihA3AYtASzY5XdkvdV+t/2z3hgyWLb2azwukq9QHATAG7zyPOyNVWsoxyOn21nzpZ5WuOk/RkFwPYJtlUYApDGtGklXTthVM9vVJeeAcfGfk0WI3Nvc8ltrYXxXpOoL9qZtHqvcN1sAuGEawNsBfCNwaryVQD6hD6Z2TL9M+ZBuVrDOZdchic+/Xq43J4Fu1Z6R0sjAhqQl8Z1WnSrnJ6awuc++XEcGzoo45IoL5OCncWQjFkITkpXLI0XRiuyMMfz8rJ2dmsClb8s3PF9qvlDvZRCwgBk7qf9MyniKQCfz2YNQG5noqoDr60NphrD0BGfBMonCoMqxCcaRVTDyHxx7yRAljKgwWG0z0seJEbhUP4SMCBewFcAWhUfVcas1qVMj5QFaL1WRbnCVxmFSgVbL74MT3vWTdIGrrflEwENyMvnWi/YmTKre+C+X+Bzn/g3eN0eIwtmEY9ZLHlio9Bl/Lk/X76TopoStEmWbDE4WIPjpaStDeCiqGiD8nzWrbrv2qqLeW7ZoDFU8qoKZ206gJpgfi+ZqZENCzlhZLrzyXG7xPdbtIrSO89TFm1FB9crumeBcJUpG7SFlQ8gZvKSYTP9P8mHmQ8CUhWtkx4UzJq5RnGZq4o+mXP+6i3g1W++TdqsT6ZMFuwi6h0tyghoQF6Ul2VxL2rk2DA+8U8fQr1UgNlK3wgog3jSCgYwtRs9qL8ljp3ctNGmA5hBt4thitowMmCRt50AZO5Tfm9koZJJG+CtJG1G0wepCaoXDA9kJT07CYyNsLaN6hVRcUJrMS+Vm6eM2y0h8x+Ugp509rWbUOZpEtVAQmBmHMidqxbstu2nMiJS5vhcE72YVWOLKvIp7TJ9mAvFkoByMBbDS17zeoQj0cV9Q+jVLVgENCAvWCiXx44O7tuLOz79SeRTCWmHFu8HA6AEKAVMVeabz2XRoleDwQu3uWMxk7cQsCyw2IzW5nbzhuzLAGMDgKUZRI7TBmmj6CeUiPodN+VrrFqZCXCKFhCios1HnHSR2qoLQ2dxst3bibR5XoN84oMnuOOTVR1G+VCyYq6nbQmqcuiTRMzEZSNBZ9Yu2bvx0GCWTE/mQrmMXD4PDl5duXYdbvh/7H0HmGRl1XTNTOc4eTM5Sg6CYPgQFQHJOWcEMYCKYkQQVCQtOWck54wiin4KoiBgQHJYwsKGyZ17pv+n6rxvd6/yfy67M7szu90+bc8O3T3d77237rl16lTteyCmTJ++fOxgy/m3bADycr4DfJiv//JLL+Kis85AbrAf6WTS8bnWzPKTcqITnB64p39AelvpdB39IK5ZI9QmhdMINTXKAldHR3gO2TfKqiPTjjd24F0/gUeLTIExJ+XKTgdMGUX97HX9aLVXTjisZsXKzp85vNUc4aomybV3ksrCa5RrdIIDak0VNptPR72e2FXdVdWGPgv/JEHZXOJEZZSHVSWzQu4nKA8OYdtddsN2u+xePfF8mG3WeO7EWoEGIE+s7bXUPi1B6pEHHsBN116BrvY2hFThev7UTdDVNeT4QWfPnSfpl9EZATQTeENB+RdzWITNwKBzdPMVsMndbHxawO6A0HtbeLc3r+AgoPOWzedRKpUwXHIjyxockYhZSg7vT6Fx6Cov7Eajm5trZkBquDk/Cqd1rlEcrrStcFSbemSrf72vhgZcqBZpbkY4RJ+OgGvuWbiq2c3Zd2tqcgMy3lnO23zSuKhUwlAuh4GhDPoHhxBNJnH4V7+OFVZaucEnL7UjYMn84QYgL5l1ntB/hVXu4//7e9x14/UIVEaUyFGdqPMGPe4bep6XleWb772HYnlYXhZBmsfT4S3CANIo4vEowkGGk5otpm/gWaXtgNL5v3vGgdCrgQ9yzb7SDgYFpoNDGRQKeQyXaMFpYNzk/Ct8de4n6ur/hrfetJw9ZwRUZwxklAKtNY3v1U0CZmvqVfUULtGan5U0SoTf2U0sOkVdVe4nNzk3zm3KDNI6xi+zSmYadi6fN0AeGlK1HEulsf9hR2KdDTac0PtS48P/3yvQAOTGHvJ/roAH42svvQipaBjpRMIBkRuiMIQy1YGrZnnJzrHg1955D8MAIpEowtEIYrzHY0jFEohEwmgJ2Ah1FYzdmHR1OMMPYTjfiiaXi+ebfMEwHeSCGj/uHxhAPpsTHysAJhgS7P3deV0YANZoFq8f5t+06TrzO9a0nQdmUiCUpzkqhABt4mXnmeGnBlk5VypyuAtzSlE5f06p4YDXvmsLu6D6/vKE1jBMs1XQBOWRioZEBjMZ9A0OCZgHskNYdc118PXv/bBhQrQMH7MNQF6GN+5ofLXf/voRXHfZxYiHg6IqyAEvMCXHhA1VpDbB1ixPsyYByaw58xFJppBkGGksikQygVTcgTGbfS3WwJMTGykQotHISI0KMJGwRo/F7xrZqmqSTcFQJCLgZUp0f1+fHiWFo7tcoAVNytoztYPuGutmUCmBlOBplblNDzZVaQtvl0lgFkA7+0xSCRzgYAAqM/qMsLATEj83zYP4M50oQvR0bmnSCUMnBX6O6gkiAE4x2oi56bRVNbspRb4r/yYBmZQFeWRWygTxL+yxDz79uc83QHk0du5x+B4NQB6HG2W8fKR8LodfXHUF/vz732La5G55Ght36gVijhutDAswCUoETwLT7Pm9GBppQiKVQiIRRyqZRCoeRzgSNuc2r5oI8Gfyy0E0jbDy9IBsmmL+W2PHUkyYnSVGyEsHEApHREtQkTA4MKCq3Kw+Q2oYCozrq2TRIwQ+njhM+VBrQlr6SL1/MX0mfCgqwdgDciaX06izB2V+RlXvMhAaRnNlBMEmIBRoQiQcRTAcRrNr8jW3BPVddXXAkxCpC56QtLA2jehhPsfm3iBBedDdh9ASCkl1sSWN7UOh8bKrND7HKK1AA5BHaSGXtbfJ53N48N578OCdt2FqZweSibi40apxO6tMkyQIhAjCzL4jSI2US5jdNwDEkkin01JkJBOsjCMLWGF6yZqXiuntnXmPVzoI5NloU3K0e3+CMnPyNMXWjIGBfmSyWX2UlmAIojJCljzNKtkAz9EHTivsfTM8AAoHnS6Y8jkme3j6olQuqWGo6CbqhHM5ZLMOlHkSIRC7E0eJYJ3NoqWpIqOlzrZWJFMpZf016SQRND9oX72rSg44JYqfDPSSjCZpksUlDxCUB1Qx09TopDNmYvLUacvabrfcf58GIC/3u8B/LgDB58Zrr8GjD92HqV2doiq8+sGrHZwZMcDqeHgEFRmzlwXG+VIZg5VmhKJxVceJaBTRaBThMKkEl2/n/CmqXsV1lbdoCldtE+B1VxIH35+Pw+qTkYLg49DAkKbcKhwWESCHVUkyBJVVMukNNdHqxqz5N3yVLNLBTfGJN+ZdXK5V5JadV0K5WBSvTEVHrpBHPs97Qd+Zn2+4XEJvTx/m9fSKDo6Fw5gxqQtTJnUhEY/pJEE6hZ9J1bv7mYoRoyy8M11tOpBctnTJvlIeGNS/P7H157D7/gc1XOGWseO3AcjL2AYdja9z20034J5bb8ak9laBCdUQql7lY+zlXgTNsoCYgOzBkhVkT66IkWgCsXgciVgUsWgM0WhYFSstOC3jzoZDqEFWnh0pDH5454omRQN9hKuAXLJYJAKyew4lbQSsbC4vaoH/bmZUlJfTEZwd+GkkW2WwmQh5dQMpDz9Lx2/mtcCqjlkll2zARBVzqYhivoDM0CBy2Szyxbz+diGXxXCRjzm8M3su5vcN6D1jkRBmdHVihSmT0NXRJh6dsj9VyQ6QZd7PNGzPIYtHduoNNwVI8yFW5FSSkL7oGxwEddcf+9SnsdOe+2idG7dlYwUagLxsbMdR+xZDg4O45NyZeP2lf2KFqVMQi0SskVd1ZHOgxupRYGw0gqrKYgkDQzm8nSti0tRpUlQk4nHEYjGEwxGlSIeDLQosbWZlXamIBrG7ZepVzX5IBbj4I1EV1Bj7wY+6CTwCcYHNN1a4VE8QkEPUN5sCo+o257hk8bZstPEkQ966JWCTfN6RjR7FLpiU1bAqYz9own+TshgcQGZoAEMDA8hkhpAdGkI+l0Euk8Gsd9+XSZDP3+tMpzCjuwvTJ3WjvTWFaCxiSdgajAmhJWSAbBFTrrFX9YU2pTM/X7FYQiabt0Yf6YuBAQxlszjw6K9gi0/+z6ht/8YbLd0VaADy0l3/cfXX582di6svuQivvfg8pnV3IZ1KIsjRZg1o1AYqRCc4CgHlko0pl8pSOWQLZZRaOxCJEYijAuRoLCbtMikEc4RrMVc3qR2Mg62UiwJ2s7QEmn16c5lVctFRAkZZmLE7TwIllIcrKAuymgXITayKCcZBqhuosAggGI0iRBMkArGvTp1ZvpnQufRp0hRO+ibDH0dX+OaeALpYxNDQEIYGBjHY34/BwV7098xHpr9PXO+8+T0olYxSoeaCJ6HJba1YYVI3JnW2ozWdlPyPICzKwuUNNgdC1uBzIauihuic5yKmeFVAWiabyWEgk8GAq5RX/8h62OugQ9HW8LsYV8fSon6YBiAv6sotY6/jAT/z5z/Fs08+gVVWWgEdba3yY1DkUtWPwX1pR1WMlMidWnVMPjWbKyAXTSKYTIszJiCzOvb8MRtbwRDfkxRInfE7G4LlIobzBWC4pKrbHgnWpEXIGxvwj1AjTE1wqSRwlPisqRnDAmTqjgOqkoPhCFqiMQQjMYTCBGRTOyi1xJkT+U1Y80cm+2JAbAGlpkmmekMqi2ECcgnZTBZD1AYPDKC3txe98+egf85s9PT2iVMuuuEU2Q01NSEeCasxOn1SFzrb29CaSiISDTs+OagqmdRFU7NlD3r5mzdhEii7Cj5HyiSTUaVMORwfV1lrbex3+FFIt7YtY3vl8vd1GoC8/G3z//jGPNhnvfkmLp55BgIjRXR3dCDEKtPZXnrzs2anCbYmGzndEkZKw5KA8XI6x0v1zskIk6aIRqWqICjThIjvxzulc14BIZrCJTHTw0FKCjbIigWMFPIYKeRQKeWrTTNVx47bLZWKAktRA80tGEELKoqKiiAQTyIYTwiUOZASZoVMMFbYKmkBobhr5FmSh9HXNo1nQyGszG1ApKqwUIVcQjZLQB7CwMAg+vr7MH/+fMx7exYG+3ulU5avhoZY7Kpi9bXWQldHBzLz3kd3Wys6WlNIJVOIRNnkCyNAGkc0RtCc6xxF5P2VbdzbPq9x5jlkhnIYynpQzmKDzTbDAUce0xitnuDHcwOQJ/gGXNyPz4OcdpqXn38uSkMDmD51suRaHKzw3sO1PDkOZ5jigRRDuTSMYqGIXJ4ysDwKTQEEO7oRScRVFROICcqcyvNg7IHZsvdsis0sKVkMO4WDgL4EsALODKIw1I9iPmujyzTgIRgXixqRrgRCVh1XmhCIJxCIp9ASicnYnZpnSuNYGfvvZJSAkzi7ceiqT7IAzwyKqLDgdyVNUa9FFmVBHrd/QIDMKrmnrxdz3n4b2cE+lGkyTzWGG7MmwP78ggux8iqr4LvHHI10JKQGX2s6hXQyrvWhbrqZVbKGSMwFT17RLgzWmzOZjXNFqg9K7zKZrBp9g5khJNs7sPsBh2ClVVdvgPLiHhRL8fUNQF6Kiz8e/vRrr76Cmaf9FE3lIlaYOhnxWEweDBz/NcCUnbylJtMARw02A85Cvuioirz44+FUKyLpdkSjBsR8DEeiMhEilxoJ2aN8LUhfBC1dWSGgQmXnFSxQJBCWUCkUyN+DSgAAIABJREFUUWQDq6/XONlIVIqHMqtncs7hqJQPfH0klUZTJGrVOMGYSSb8e1JbmMucIpbqYptMscGhE/vbXuomUHbUhbhjxx8TkAc5OTcwgL6+foFy/0A/5r3/PvKDAyjnc8iwuqcUsAnYcfc9cex3vise/aoLzsdv7rsHUzra0NaaQls6gVQqVQNl53xXBWWNU9dCYL07M09EHBcfytaDcgatnZ3Y74gvYcq06Q1QHg8H1yJ8hgYgL8KiLSsvIQD94FvfxJx33sTqK6+o4Y1gC5OiXXSSBwPpglkxcmKODTwL5cyRM+aQRK6A7AjQkm5HLJmsAbKq1AiiAuQQwr5SdRphq8CdksD5QQgg3V1AmC+gkMkgNzSESDSGWDotkJK3RInTcsBQf78+BytzKiwIwryLdlG1b1aY3imOwGYzLT541J0IvMKiDoj95B4pEtIV5MrlVVwF5AEMDg6ip6cHxcwgSrmsKldy0eFYFCf86GTssvc+2mWoYLn+skvx+CMPozURQ1syKWBOJskps9HnPqem96xS9tWxmd87JQqM6+bVyaDokwyGMlkNxyTb2rH3oUdipVVXW1Z20+XqezQAebna3LUvywr0r0/9BbdddzVa41FdQksn7HTBkqLJ19inJluTqyLO2CpiqSr4yEGJpiCCrR1IJhMCF9IV4o4dIBOMyR97BYQGROrSRWxQzg2EuBQNVqlFDl8MDaGYywuMefccsBpwxSIGevuQHRpExA1fUFtMW0+qOvj3vPTN+1bQnMjUCwRk44792LQZ25vJEKkBAbIbDBF/nDP+WNKzflbIAxjg6HZ/P8qFAkr5rE4QbDyute66uOzGW5BIJqsLPzg4gG8cfihyfT1ob02jLZVEayqFdDohaaBGvltstFoDIy5/UCb8bnCEj1blj2gbsLFHGoWgPJTJYdW1PoJDv3pcw+9iAh7bDUCegBttND7yU39+EldfdD662lJq4hEg6U7mG3m00WTTrUIdgwMpKiqK+SKy+ayq4rwDY4JyFkHEOjvVrKLW1gMyKQtyuZS9hUVZhGwoos7zWOPYBBzP6brBD7muFQrID2WQz2YRT7ci2dFRDV5SA65UwsD8+RrKiMRiaA5xyIKmPlQusDpmo8wkZEqudm5rfI4SoWVKTw8LKj0MgHkisOQR45A1qcdHNi8JfFRY0F+CgDw4qIqZYMiG5HChgP6+HqRa0zjlrJnYbMuPLwCMfM9fPXA/Lpt5pvhkA2QDZdEXTn3Bxp4oI1clGyBbTl9VDierTmvy8TMRmFklU/q37a57YNMtPjEau0rjPZbgCjQAeQku9nj5Uy/+63mcc9pP0JaIYXJ3lxnFu8pY3LEb1pAYQdWqDYEUCMKshnM5q475c76gKjnbFECiswvtra1SNVBrGwkbl0w+V7SFqmQ3BOEDUOvTQJrI75rXsJkJjYgmoDdEbigj6Vqqs7OqOBAgl8sCZDb5oomEPCI4Vqg0EXpGVNOrzVVNoKwwVvPl4N+rxih5y00BsxnVey0ylRb87kYPZERTsDoWGA9lkM3ntFb8HIP9ffjOySdj5z32/EAul0qMX913D2696gpQH9KaNFBuSztQjtiItRkjeW2y0ReaRnTNPp9uQj6ZQFwF5UwWoWgMO+y9n/yTeVJq3CbGCjQAeWJsp1H7lASYRx68H7+69w6sOG0qouGIycEExM0IKDGZmFaTP4g6KOSlpMiTN87nDIj5mKPkLYd8cwDJzkno7OxA1EndCPQCZTb3HI9MGsHSQczy0i7JneuaG822Rl+tai1SUTAwJCBNtLeLd/aG8ZSBDfX0CLyjSQNkfXZhV31QqvtZUj5neeku/X3QqKYN1cwzuRtBub6hx3FpqhqsSqYtpquOs1lx6iSm2fTLZgZx7qWXYbMttvj/bjduBwbFPvbwA2hNJgyQUylRRynqlOUX7dzguC7OIEkaZW6g6gnNKBfFPlGXrGrd6IvSyAj2PfwobLjpZo34p1E7gsb2jRqAPLbrO67enZf3d992C5598o/oSKcQj0Y1kGBVsSU5BwVkVFY0oWmEbEUJxQK1txmBrw2AON5Y1XEOg7k8ik0BpLsmoaurE/G4ybnqZW+iK8I+IcQb/XjQNFMdn8XnF00ub0WqOXLIDdHNraKmIaftiH7U+nJaj1Ny5ILD5JAlHXMm9PxOUorUsvo4bOG9M+r0b1JFeEN672EhUB6x4RBprVkdZ9m0c1Wyr44zQ1I98CxQKBbwqU9vhWOOPRaTJk/+P7f/c399GjN/fJIUJJTAGSjXKmWmq0ib7KtkN8Ung3vfcNWJk/z7CHKkS6T6GDRQzmYRjsWx/a57YotPbdVQXoyro/GDP0wDkCfARhqNj0hv40d/9RB+86A5uElRIZP0WmWsJA55BDtbiTI7+Qa6nqbgQU+6ghNp/JnV8VA+j3JLCKn2TnR1dSGZSlY55KoOWVNyNBOylIxqOrWvllkpu0QQVcgj1lwrFzmRZ05rvESPxONGS7CCpm64VEJucFDPDYQ59eaMe2i3qagk+46qlutik3yDz/4W6Qk/oWe642qV7HTI/P5UTxDoSA9k3bQcK1Hy2wRxrhrX5bhvfwu77LH7Qm22p/70BC47+0z0zZtroJxMIp1KoD2d0jryyqJWKVv0k06XHKsWp+yGRtyADc3ze/v60UepoD5vFuF4AnvsfzDW32RTNTobt/G7Ag1AHr/bZtQ+GfnPX953Lx644xasudrKcl8jTeErY1NUmMmP/Q8yizcwJmecRT5XRFaWkwV7JHVRyCOTLdggREsA8dYOdHd1ojXdKpqClIWUFuSOWR0H6GXhwJFyNzchJyAmb+ykaEoHqcYi0eGTleqI/ns4GrPClonNqmqHkc9kxHPzTFJVJbiGmBpjLc12MtAkn9EAprHmZ6hJ3mTryck8xTXVAbOMfXIGxKyQdSdAGzgTrP20H09eXz/hBOy6kIDM1z35xz/gp9/7NqLBINKkL5IJ+YiQwkink+bvTG9n579hAalucETTjrUxdMoBecLs6etHb5/5a8hQv1jG9049DSuusuqo7VeNNxr9FWgA8uiv6bh6RzaQ7rzlZjzx2CNyHPPyNq8BJggHFOfmk6OBpmEbPLCq2HjiPKVueT5yMs+qYzMTKmCIlEVzUAY33Z2daG9rs6EQccimrPASNP5dP4Hm45modDBQtqUTBUwahW5sYKOs5oHMxp7SSajFdeoPVqj8WQ5qIXokG6BbCnQTKoxSYqUcDCBESRn5WCZ2OGWH9NWkP0ZoXOSm9RyHPFwqKd+OQGtgTGDO2L9d1Uw6gycCctHptjb86Kc/wTrrrrvQ+8G777yDM085Gf969q8GyEpYITCTvkhKNheJ0J3ONSnlDGcnlNqjpRoyRotTgqSW5vf2yV+Dlp0MSt1mx12w8177Nvjkhd4yS/6JDUBe8mu+RP8iUz/uuvl6rLriDHS0tjrHNTf44apiSdDkl2YWZaWiga2adwLj2p1+FR6QCUjpji7secjh+NOTf8af//QnTOrsREd7uyb+bBjEwFgTekHzxxB14C+33WqYvQQBhdFxljfHG6VmGpMeGREFEYyE9XvTDxvvW8znVCkTFAP8e9GwGntWtZqaQj7OzpujalQvLbL5V8gH2SVMe4VFpWzvL3UFAZjDFxz8cFWx9NfyYi7rb5M+WXv99XDmeefpu3+Y2xuvvooLzzoD//rbM0hGowqTJSiTviC3zNQVcfBUiPhoqrpK2UyUfQZ2RVcP1EzP7+1HDw2Q+gdAL71Pfvbz2H7n3TQ52LiNvxVoAPL42yaj9omoCrj1uqsx7+03dGBLl0tQcw08Kip4HOuiV2ozk22RpmCEUz5ftGQM+jMIlPlogMyDfSQYxPE/OhUf3WJL3HH77bjq0kvlnzy5q0sZerLclKEQDXQCGpemR4ZsOOvz7lgRVy0+Td0hyqBQkOqBFSwrPwaD8jt4syMOkohnJmi7FBFJ23gCIGcdCVsVXHfzoaRepWHMiPHHAma5vLnH8rCZCVFhQnqCFTGvGKiqKNoVBK8kPL3CgZm11t8AMy84/0MDMj/ie7Nn44ffPBbvvvkGUrEYUsm4gDidiIu+SKSSOrHJ1L4+MNVXytSNu1F3r+mmAREr5fk9faIxMoUCdtlrP3xmuy/oCqZxG18r0ADk8bU9Ru3TcEz3vjtuxruvvqzLYPMiNsOgFkcJqCrWpX2TmmiUbImWkKzNjUfXAbGvlHn5G0234kvHn4CPfmwLUQWkRu67+25cc8UVqu462trMF4Om9G5Cj4BMQPEGQyZRM3WHl9kRgGmxSWCUf4ab2iOl0UJXtEBA1bH3TebPHOVmsgf9kB3fYVU4h0N8k89V3LLn8SAsntjoEIKw5G8yFqJnhz2SmmFahxqbWpd8NXmafDo/I08M9Pkgp/yRDTbEORdduEiATGB/561ZOPe0n+GfzzwtIOa2SyUS1vCjJI7NWH4nceEtdQ5xtSESu9LgHCINm8h/Z9DT2495BOa+fg31bLPDzth9vwMa9MWoHXGj80YNQB6ddRxX7zLQ348H7rwV7772kibAPBgrNqlORdHkhjAYUMpKkGCjwQ+aBlWB2FfG1B8X5J0QTafxxeOOx5af+p8FDmhyqQ/dfz9uv/FGNdEIIAJfVsd19pv0t4iEIrr8VnNKSgc3Nk0+V59Lv5Q3Mm04h0vU+Vbc9JoZ5lvSB4GUySMtaApGUAmGTadbTd0giFtjz3tDWEVswamkGXQSkKqD70WArghki8M03bchGK4Nvx9N4nny4TqVmJiiEWYD9HgiLiOhLT7+8cUCutdfeQUXzzwL/3z2aSRZKSeoviAomywukYwbKLNK5knNJ6NoKMZn8znKht+1zGDWLHp6BjC/r080RqE0jK222R477bmXPKsbt/GxAg1AHh/bYdQ+BS+n77zpesx981WZ1oi3XcCfwghYgrEAmU0seTQYGLOBRZoiVygJlPlvaY8LBTWGhpsD+M6pP1VlrHHef7uxsr3lhhtw6w03qMFHCsNzyLTAJJUQlyNbWKoOtedkVWlKAStyWeENW2xTfggo5sHOY0szq0I26ALSSQ/zOa7alZk93ywYRXM4BgRDAic2urwCwobzrIqmZM6m8JgmXaryyGZuZI0xqkzsBEXT+SIKpZL5HeteADlmTTFqwq+EyTOm48qbblksMPbL+fZbb+HkE47H7FlvIhGNCJTrFRiULVoen+USGq/MRBQzuPeTiLZAdqLhJB9pCwIyK2X6Xuyw+974wi67ygSqcVv6K9AA5KW/DUbtEwz09+GBO2/D7NdeUkNIbmeuM6+RYQ2wjYAVMe8EQma1SVPsKkCCMBt35IoLDoiVrNzcgjU32Bhbbbs9Nt/CaIr/3+2pv/wF5595phza2lpbERFlYdRFKBg2f2RecrthEH2uZk7QOT6baSHlotJC+Ds6uNGkiAoKSvUYy2RNO5PCqbql9I7NP/pJjDSh0hwwUG4JodLULGGGnk8TejXyeKdnhZnRS7FR8VWyKS0IuuTR6fRGMGZ1TABnpczIqspwyegSPrdcxjY77ozjf3jiqAxg8CTy/nuzcfZPTsE/nn4KqQQrZVbJ/p5EIhHVCVeALGA2JYYCY11wrGSMcrWzKp7DIpTDze8dwPz+fmSzBakvdt1734ZGedSOxEV/owYgL/rajatXkjO+97ab8PbL/0J7m1NT0ATeNfDIG5NXJGesitRVhz7KPp8vIV8kR2qVsRQETt7G7vzuBx+GHXbfc6EP2if+8Aecc9pp+vvpVErJ1eFISDK4cMDSO6S48MY/VFegbCA8MoJAoFnex/TFaHHpJd5c3k/0WSZqkzTJVGeoUqVNJumEIhuCI6g0N2OkhVK4AEb8yDXpClbIjqZQpex8KzQurbVhFUwQJk1RQrFcq46Ns3Z3ejZXRpAvlnDBdTdi7fXWG9X94o3XXsWFZ5+B5595BolYBKm4Vcq8074zluC0peOUqfN249ZNnPBrcp4d4s2NXuFJiCPwVF0wHZuyOARCOPmMc9Da1oiAGtWNtwhv1gDkRVi08fYSgvEdN1yH+e+8bhN48tW1QNGWFjOYN76Yjzb8wIRoq4xrHLGfviMYZx0YE8T2PuxIbLvzrh+qUcXPdPgB+2OwtxeTurr1uWhQL28LN+igBiMBeaQkg3y6zXEIIsSEajUEw8aTqulnq27KEKNKBMjmxel+57Ln9P2KksPpUXl4I0BTAJUAgblFFbLl51HaNiJApqMbeWU+kpYoEJRpkC8vZP67IBqDoE9eVs1AUhYVIBiJ4oxLr8Aaa6096rvHW2++gdNP+hFef/lFxKNhpONx2Zy2SoWRULo3U0ekw1a1zGlFSgcDNs1nhJBFevP6YHgYmVwefQ6UOTyy8hpr48AjjkK6rX3UP3/jDRd+BRqAvPBrNS6f2dfbqwbee6+/7DrwbiLNjQy3sHQkZ+ym4ZoU3FmSc5uaeE7SxkYeeWJfGROQGRq65yGH4Qu77i7u98Pc2Az7+Y9PxuOP/RapRBKd7R161OQek6xJRTRBj8EmqMpTGGosLi2xWXQ6BYYbFvGAXM9dE5BNw2xjxM4s2fyCZabP0euC6JdSoWhVMcFYo9dGZZR5wcDGJk2UHD9MuoLZeHzk63kloZ/5fgpcNVUGX0eLzK9+9wf4zHbb63uM9o3f5e1Zs/C1Iw5DYWgQqURUlXJSvHJcU33MLmxxoEwTJgKypvtI79Q1+jQ+QvpiZEQ5iKyUe2m2PzCEdTbeFLvtcwDa2mlx2rgtjRVoAPLSWPVR+pscab71umsw+7UXlWYsoyD5/zozHXKzGo6occYEKO9FkS+YskLUBB8p8ZLsrYjhJmCvQ4/AjnvstdA0xb9/rXlz5+LIfffCSKEgLpnWnAk2+QLN8tHQ9J5M5K3Zx2EFPsp2Ug0+Nwrtp/c43OG8k33oZ9XLQZWyGyEWMFtBKN6YQEsgpYG8mnjMAyxVvY6NPwZKwxUUCzn5PJMnJk1BL2TSFgJqUhnUJjt7Tsnk2BxtasJ3f3Y6Pv7pz4zSlv3Pt6EXyTmn/xz333U7UtEYUnEHygRkTvbRPyRm+XyqlDkR6dQXZuNpXtAE5Gb3mdkHHcoMoX9wCL0Dg1JgrLvhptjvsCMRT9RM9cfsSzXe+D9WoAHIE3Sn6O/rw22/uAa9s99GG4c+VBXVUpWbK2yQsRoyRQX1stTcFrxTGx/91J2TuhkoFzHc3Ix9Dj0CO+25t6qsRb0RkA/few8MF3Jol+dvSvItDiRwYMTuHHSwib5IhE0qH35qVIToljqpHqkLjT5XL8GtOlZlXEdfqFqWwoKX6Kx+LaNPAycuE5DgzBMU7z5d2pqbpjUuiLogf1xWtWwqC4K0USAekNfdeBN86+SfoLO7e1GXaqFe1zN/Pq68+EI8dO/diAYCSNIfWvQFh0hsso9XGazS5fkszw7K4niiJiB7SRzX1daHJyaOgw9khtDbPyjvizXXXR97HXgYWtsb9MVCbZhRfFIDkEdxMZfUW/X39eLOm27A3DdfUeVJxYK4Qx+J5IFY3LE18Xjg+YQPjkN7c3mrjs2bguKz7ukz8MnPbYvtdtrlQ9MUH1QhH7rnbhgp5tWAak+n0daalvGQT/PwfLe5wkWcKqSuMnZVMZuSAmgPyG402vPIMgpyoGxVs+OZOTiiZA0bApGlpipcB8wyFDIjIVNV2Ji4+GM19YrW1FOOYE1pwUrZ+yh/cpttBMh+3Hss9wOmlJx/5un47a8eQrg54CrlGJLJuKRxqRQjtKIaGPFm/OKTRWE4K0+3VjytUXNSLJalvqAsjr4X/UNZrL3BRtjrgEORam0dy6/TeO9/W4EGIE+wXYI64xuuuhzvvfYiJnV3ahzZwLgF5Is1LsFLUhr2uOEKT1MolJSpyB6EXZWsZl6xiM/uuDMOPuYrAkU1hBbzNm/uHBy0x+6oFPOyk+xoZdpyUvI3jjcTlJnjx+8Qoak9m3gcFvHeE4554L+lKHacsoDP23U6oBaXLB6ZjT6fP2fedbo6oALDgbEqZRfVxJxARjd5wOaJiSBMbp0NvbyjKwjKNhhiFTKpDObmkW896Mtf1SjyB+myF3MJP/DlzOW7aOZM3H/HbRqxToq+qIGyQlNlRmSqC2v22UnbV8o+IMAixSv6PoNDWcVADcjoPoO1N9gYexx4CNKtDfXFWGzHD3rPBiAvqZUehb/T2zMfN117NebOeg1Tu7s0hixZm6bQ+Ae8rM0aeRr6IGecNdc2q4qpoHAGQU5hwQbXp7+wA/Y86FC0jmKXvWf+PByx/77I9PWis60VXW2tSDNM1WlmleMXDEoKx8gnArUZyjszIHlcmEJAPs1OW0tlhlcPaFmdjaeIY2chWquWSdzQG8MUEaxsCcjeKY56YlbLBGarkjkYY8oTAbADYQ7IWLVs6dPK2BsuY+PNP4aTZp6/xMDY70a98+fj8osuUBRUuKUFCYJyIo5knE5x1vDTlYiA2MnhXHCqficTk1pQAIdHaKPKYREBM4NbBzNYd5OPYtf9DhzV/WIUDoVl9i0agDxBNi0z3K6/4lK8/+bLmDap26pMpzH2lSGtKpulprAJPMUJyYfBUj7oYaApvDqaYrjShM3/Zyscddw3Ea9LRx6NZSHo3X/nHbjorNPVdOxqbxPPqQBSBxIcXrFAVLPprLcB9an38mp2lpMWK2cRRqIwHJfsp/H0S1XILKLNK5jgzIrYD4L48FJl5vmhEGdK77PzNBxDPpkg7CcW2egrkk9mU9AA+WcXX451NtxoVIZBPuyaZ4aGcM7pp+HXD94vL2VWygLkREzqi2TCRUHJjMhCX2XY7xK/LfTVX1mYZSm/92AmZ4kj9FLO5rHGuuthv8OPXiA9+8N+1sbzF24FGoC8cOu0VJ9Fb4rrrrgUs19/CStOnWQ2jM3MwXNjxs62kt1zb8jDcWjRE9m8HMosdsn4YikpdDlexOd32Q0HH/3lMbNjfOzXj+BnP/huFZD9yK8HZWqSmesn32RN77ES9o08ggWlcS79w0+giZ6wylnNO2dmbxb31qxyWrhqo49XATYS7dJAPBBXOWUbgRYgu5Fpr9MmIGtYhuoLT1dQgTE8jItvug0zVl5lqe0flD1eet65eOieuxALhwTKplMmMNOYKK7Ub+ORXZqKKCk7ycl32uu6naczx+Z92giBmfvLOhtujF32ORBtSv1u3MZqBRqAPFYrOwrvy8tnqiluv/F6vPHCP7DK9KkIR/z0Xd2BxEpRo9AEHU6rmbSNIEwfXzXxXEp0/cDHp7fdDvsdftSYTmgtCMjtSCTiZhZP7pjVMU3sI2GNV4fEhTuj/AUoCqoFvGzLnYTcMEgVkF0wqjTXbnrPNoFV0jQLMt9jjkXXRzQ52826gFMPyCYPdHFVbliGJzLPQZMHP/faGzB9xZVGYWsv+ltwZP6ic2bikQfuQ6SlBcl4TFI4qS88KDttt8VBUXnhVBguFFaVsk5w1GYPI5ujIVHeBaayWs7iIxtujJVXWwOf2Ppzahw2bqO/Ag1AHv01Xex3JHBQY3z3Hbfj948+glQogNVWnCa5mCqaFqsMZeHO5p1UFTVvCmvesTK2PDyzjrTKmHfKuD7+2c/hmG+egFg8vtif9/96AwLyT3/4HXS3tatKprOYLp8DAQExqQpN8IXY3KOG2umPffCqr+JEWTSBcj7BrKcxWNV5NYmvlKuccjWExCKgBMoGyDQPqvLIrsFnXsjDoijMnN8ZLuULuspQMgo55HJZlffXfvAjbLnV1ous0x7Nhaf15wVnnoGH7rlTWm9r9BmfLG45EbP9hxasVVB2qdY+RJVNUyb2tTRpeIb7zJCiqixLkHQGl/8z2++IrbfbAeFwZKlQNaO5buPtvRqAPK62SAWvvPQSXnvlZdx7+63I57NoT8Sx6grTVEEKkBxvbOPQpjNmdcwBBVloOjAW+OYIynUJ0aQqSFPsujsO/CI5wdSYf/u/Pfsszv3ZqSgM9qOjvU18Mas0NvOUSh0OWpXsbDrt+5lVJhUBMspxoCw6w/kxKChVv6fiwsn7BNZmnSnqxgGzGRDZVJ0fl/b/tmq57s5mHVUWbt18hSxZGLPpCmYwRC721PMvxtrrbzDma7iwf4A65csuOBe/ffABXW2kqFNOJATG1vCLWmiqIqxMeSFPZeUOumEcl2bN3y8AyjTlV2OzpNfEEklstd0OmD5jBcxYaelRNgu7NhPleQ1AHgdbigc4tcWP/+4xPPG/v8M7b72pA4iRS1MndSEc4virVcQCKOGON5c3nbHUAVWOuK6Jp6rY7DNH0IRPfHYbHHLMV5BKLzl96U1XX4kHbrtZk3rkMzlRqKqYFbJoCzMdovrCAKIuEcMBNHlO8cYyrB+2SjoQqmp/xR7TZciMlHXlwJOUB+Z603lWx3KI4wi1SwehuxvNiOSRXDbNtqWm2PqJU83mdEITIDe34CcXjC9A5m5BWeR5p/8Mjz70ICIBr1N29EU8jkSclbKtW5OGcNyJ7d8TuXUlZqDMkzpP7hqWcd4g0mYXi5gyfQVstNmW2GjzzXWCZ7O2cVv0FWgA8qKv3ai8ktXYjddejX/94znMn/M+4pGweFZOtLW1pmS4Qy1Bc1PFGl6uKhZN4UzdFTPkuE5K2ljV6SDyAM3Js9IwPr39F3DY176+xA3Jb776Stx/281ok+TNT+VFBMQGxmY4JJWFmzb01ZsfofaA7JuWBsikOIzKcESGPXjqwgEvT1jVKthpkqsVMwHZTTFW1RfK6atZkjJDj17QBsimReaU4annXYS11lt/VPaD0XwTNoGvuvhCPHDbLZITklOmTtlXyZTE1dba0xY2bi0JpVO0KNswEJD5EtU5VJiY7M8qZQ/OlBJ2TZ6CVdb8CHbac5/Fmu4czXWYiO/VAOSltNU4iPDyi//C3//6Vzz68IMIBWhTaeOvPHB4GR+tDtu7AAAgAElEQVTgeBovvV1OmigKDXxYxhwNbgjGvorzo9DWuGMAZ0GVcWlkBJ/ZYSfsd8QXl2hl7Jf2F1dejoduv0VhnfSqYDWs6pj+FRqZJjiHEeR3dkMppq12vr4KY7UKmeuhdeCayOvZhkSMWPauZgbK3mCoaiLvFBUEYyokKiOc3LO4pvKwa/Z5xzcndyP/TrqC2lwCMvP16Iux9bZfwDHf/o6c6cbjjfTFpefNxP8+8ghCzU2a6KMkTvRFPIZELC61Dm1OBcBVCsPoC663toUsXFt0QmPvwWSAlsRtQzNmUUpfFMoNP/rxT2H7XfcY897EeFzz0fhMDUAejVX8EO9BkCAY/+WJP+KKi85HqKXZgizTCWXR8ZKS/KqBj3nYip5QECnngIeNMx52NIUaULU7AdjbaBKYywA+/unP4vDjvoF4IvEhPunoPfUPv/0NbrriElTKJemnpTsO0x+ZTT1qkG1smmDtE6e9qsIMcdhoMmMcz5uTuvH8sqUtm9TNeb+JtlDeHddMqR70s7CBkDKN5Zn24T2QtZ4uMJXmQfx9iVcaxsNzek0VMlOn8xZsusOe++Corx8/eos0Bu/EE83pPz4Jjz5wHxLRqDhlXy0nPH2hqxKCb1Am9xYJZWvrB3dMt9wsHp7+HuKS/aCMeySVw98Vy8P4+FafxUqrr4ENNt50iQ/MjMEyLtG3bADyElxugvFrr7yCe267Ce/OehMj5aIMd+hpy8tIcntqZFmwkc+6N+EWK0N6+jKF2R0U9S5t5kdhU2a6M6S0XNY49AFHH7PUwJgfnR7CZ/3o+5j16suaHotGomrmsVLmz9FoBLFoVDSARsDFIzsJnPfncBWyudc5nbKrojUIUr3VQXIdh2wxSzYiTZUEw0wVZEpwJmVB+kc5e5zms/FocqRWHTtAZmMvm9NE30777ocjvnrcEtx7Fu1PPfv0UzjuyMMRbG6SGZHdrUpmxcwCQMkyrIRDBsotrJrJIatCdnau2i4EZZhJlbw9TMtuU432M7c1FT60bv38TrvhM9tuPypj+Iv27SfeqxqAvIS22fvvvYd3356Fm665Crmhfl2+szKmLIlgpMtDBz6mB3XJHq5CVmYcwVgUBZssbOKRJ87pgPDjvlnX3OME3lbbbY99SVMsZYMYco5nnvg9ATK/q4yExB+HDaCjBGUPyDXNsR9aEI+sCtmiTS1x2ozq+ftaXey5ZH8+swYfK2V6I9cDMpt3IwRjT1ko0sm4ZqWOyAu55KrjjKMssgp5XW3tj+CEU09DZ9fYuruNxq5J+eR9d96Bqy44HyOloirkZNQBs+OVWS2Ho2yqBtHECVCZ2zcbXeH13zr5uZFrjqJzDL3kJIJuzLw2bl7UOhGUd9x9b6yx9jqYNmNGQyK3EBu0AcgLsUiL8xRWxfQdOPfMn2PWqy+hu6MDraQnUinEacjOqkSX3+b128LYnfqCTxKuYaDE9OWiJSDz0tlpjC1uyeRsNAhilVwaHsGWn9kGRx//rcV2bFuc7+5fS0D+2Q++g9mvvyojdQJylbpQdRxTlUxAMDmbDb14QCbwyr/CnahsXNopTmTFqX/9x0etjlMz5NNTEcPegnNY+XuUvRGwLXHaAbL3QdYYMatjA2SCDCvmdTfZFD8++/wJAzA8+Vx7+aW47RfXYaRYRIJyOIKymn1Oq5xKIBRlbqHzU5a3tqleGAVFzkycPleZ20gmVhUUyzWFj6pkZ85EqmdA6zaESCyJrxz/Hay59toTZs1GY79flPdoAPKirNpCvoYDBrffdCPenfU63nnjVbS2ptCWSpnxC/nSqpcA9cUWU+SByPv58hqRYZplcsMEYvoLZHLKRfOm8lYh85KxhDzDNnfaBfscfiQSqbHXGS/MUhCQzz75h3jzlZcEvKyMqYdlY48VsypkpVNbk65+pFdVsHN5877zZj7ECtl02VUO2X0YL35zDvWifuRlQWMh8cZl52lsXhaSwMnrgpF+rKQ5jccGVtncz4YGMThoTmg031l3003x45kTB5C5LPx+t994Ay4952z1LZJUX4hTttSRZCqBdDqNcIx+ygEXA+XTRqTzESjb2rOA0P9rxUn5mEOepZb7FBr6LNP8nusWT7bhkKOPwTrrrf+hosAWZv9alp7TAOQx2JoE4rnvv4cH7r4Lf33ycbSlE9LgkitWJeiaJJYObCY4VTB2I8OqBlUd26BCQWA8hKwzfKFRkJe6sTJml3sYwCe33Rb7HXHUUlFT/P+Wkp//nB+fiDdffcnRFXVKCwfGjKEPeclblT/2KgtfIZugwlRuNUBWaqCPcqp+COd4p0qOoEEfZD8AwtQQ0xubHM50yUqiLtM7mT4VRllwQo12lLpnzGxni60/i+N/9OMJV+3R8e+he+7GlRech5FiwSplDY+4jL62NFLplAXLyuTeToZqoOrqxHunmEuc1tw1UjWY5HobTJzxV262fhkZ4EfjKXR0TcKRX/kqpk2fMQZH3sR/ywYgj/I25GXvQ/fdi+uvuARdne3obm9HWzqJeDxq3sUutNP4Ynr/VuzS3MUVeVUBY5eoDCgXCxL757ME5CyymaxVx15n7MC4XKngU9tsi8OO+zpCoQ+XfzfKS/AfbydAPuVHeJNNPSdzE4cshYVVyGxoMtbJBkMou/JNPcrd3IlLOOxCW8UhOx7ZObrVKyz4VFEWTv5mumMPyt6cvgbIAmanXiFwU4lRoslONivTdg/II2jGGZdfjSkTFFDYrKSF663XXiNQTsWoUzbagtao6dYUEqmkJIi1BBpqvWv+er6I8ADN6pl+1DR3kjzON/kK5jbICrl/aEh3emKsuOrqOPb4E8QrN24LrkADkEdxj2BX/lcP3o+H77kTsVAQk7s6NORB8PGJHgQaJS37EdX67LhqlUeNMXfsAgq5nMCY1Q2pCl4G5rPmSWGNvJJ8GbbeYSfsfdgRSKbTo/iNRuetBMinekA2/bEBc1SDC9IhR8xnQUBcp7LQicqtVY2ycE5vWkfjkOsDTquUBZUTdLpQf5T8MOkKq5JpwKTUEOdfoYk9D8iuAcjtqaGQoSwGCMpDGQyjCWdecS0mTZ06OouzFN7F0xdXnHcOwi3NSFB1kYyhVbRFSvQFPU6CHHN320QURV0qiyypXbBsbe1ra81hEs8pE4QHBMhWKfPfq6+9Do459huYMm3ahLvSGMtN1gDkUVhdVmKMvf/LE4/jnltvQHsyga6ONtETPo6dYgCNPxNwdBnoYoqYfed/FiBXQNP0ogY78sjnsshl+UgwpgUkwdnL24qSa2213Rew31FHI7kEvCkWZbkMkE8y2Zsbk5bkTRI4qiwcIGvqzlfIbjDEHfRcI+c/X23i+ZOa1pKMpqMy/Gdkcor3sxAguwgnM6P3mmQvfyNQ1ykt3BAEKzyCsqct2Ezdesed8MXjvjmhgYRKnYfvvRsXn3kGwvS9YINPCdYJJFJxxOMEZQud9c09a6paA5pLrYESR2XY4tv+yxvpH8oIaVfKAaXBDGkf8vEOlLN5rLDSKjju29/F1OnTF2W3WiZf0wDkxdysrDae/8c/cOVF5yHUDHSmk2jjJR/TPJxPgKV6mIuZ2UvaHu3FFMQaNacYSS99Z8HMbWSd6VzHaBqk3/kMPILxCD69/Q448EtfHteTUQTkc089qUZZuGk9D8h0gCNQV42FnGmQT8+2kFPPVzrHYy97q3r5WtKIYzX06CkLAwgCsoWTqkp2jTtr5pE3NpUFQYSSLjX1eMlNaaEH5KEhDDBvbsONcPLZ501oQOaaUBP/ra98Cb1z3kfaj1cnE0gkYognYojGE4jHYlU/ZZ/wbY8BNLl9ujooWcfjm8+T8feUEGrAxjX4BtgPoWIlk8Oqa6yNL37t2Aan7HCoAciLAciUSz3716dxxQXnIBZswbTJk1Rp0Gu2CsLNlA7Z5Z7nilXtuZsr/AgZ2nHlLpYjIGfNVJ4/U9ZWZzDPpslwE7DVtttj/yOPHpc0Rf2y/jsge5UFq2NSFgRkme57x7Gqu5uLc9LodA1srQqzqw1PZ9Sm9Qy4vcGQ/eQqXxduKo54gQrZyd6qPLJRGRwRps6bJ0IOh0gxMJTBWhtuhJPOOnfCAzJPQL//zaO4eObZ6Hl/tlQX9FEmIHObEJRj8ahAmbQSfZStEPZxWi5xxFXOC+QCyOzJD5qayoVRYpIOMibKSQjZJF1l9TXxxa8cKxrIn1QX47Cc0C9tAPJibL6//fVpXH/lJYg0VTCluwuxSNgAwmto6VvsOWMpKbyqwscP2ZADdcaMBRLwkhtmw45cMTPwnJ1mQaZBLumD0rZddsVBR43vytgvbaGQx3k/ORmzXn3FpvMchyxAjkV0wMvsxvvyOlqnSkm4CpnQSjCmJ7IMhZxNp3GYLthePzYZU0HKwmOz+GGTuREc2NwyPpkDInX88QhTqA2wCcgZ5RAWHG3BRGaGf26EE888Z5kBjyf/+AecePw3eHmmgiIeJyBHEI/znlBDWvLESNQGdDynX11/d3WikF1/3Ue/EXPg4/S6nSCHJc9kH4SgrClINquzOUyetgK+cvy3MXnqtMU4Iif+SxuAvAjb8L3ZszFn9ju468ZfoGW4iEmd7aIofCqyLrHdFJmZ4phsqxY7ZEAs715v2FKfTKEKmaby5txmMiJLPSZn/Lmdd5FRUDI1/hp4H7ScD9x5O+675UZFNNH32HjkkA7yeCyqYREbm3YyNwGyz3ozrr16JUFjJfKX0r+5FBFWyk6lUvOzcDacqtJs6lFj0i59mrI3Uhhs5smOk/yxB+YR+2/1gCy1ABtTmQzW2mBD/PD0mcsMIJOeefapv2Dmqaegd+77tk2iYW0XA2ZyygbK0s9zom+BOC1uH5cEXm/05BwAjEdyVNNIRU5xSiNRo9oN3Axlscpaa+OgI7+EyctxpdwA5A8ByDyw3541C1ddcgH657yHad2direnY5YqNPGZbsjDJV4YODsVAGBx9vqbRlH4vLYqJeGoCYsR4t3ctTiJx7/xic9+Dod/9bhxM/SxMMt30zVX4pG77zS/jioghxF31TEP+kDQfCzqHd5qXXzTH1OXzapXNZhOco6ycFclfpjGY4LICr3GjJpMZWF0RLnklRYmd6Pvb4UGQ14eN0z6yHwZlLaipirVAhmssf4G+MHPz15mANno3gpoAnXhWWdgYN5cqV6i3D6klBxtwe0UjcYRjYQQDPJqsKYWUqCs9x2p8xapGqP6JHHu/ZzwY7OPVx55mjcRlC3ZZvpKK+OQo7+C7slTlktjogYgLwyiuOe89+67uOScM5HpnY+Vp01WAgMpCakmuJ8JlHmpZsBs1TGd2uxRl9ty1KRtpqt+/eizC9Gs0hJ5Z3FYddMqYce99sbBX/qKdLsT6XbztVfhVwTkeByRUFBTeqR3WIFZhcy4elZdHwTIPrbUCElZjzpA9qkhtWqtKpb1WdQuw4mvc3I3mQdRh8zGnlXMJomzpJFqqghN6vNs6plJvWSHuZwAec31N8D3TjtrmQJkD8onnfAtPPbwQwbIrJI12s572KrkWMzRF5ystJOo9xUxQHa8f90ou796MWsAR9NVmjR8w6m+jI/IUrMvj6lMIVllVex14CHVAIKJtL8vzmdtAPJCrF5/fx/mvvce7rnlBgzMeQ9Tu7tU3dU4Tq8DstEEP6Bg/Q8zlrffW4ffhPNOR0xKwoOy44hZEWsUulBEqq0Dk6fNwB4HHYyVVl1tTANJF2IpFukpt1x7NX55Tw2QRVdEyB1HdZBLHthieXpNDOD0UjevmvBEsGRsVALbge99L8ykvo62sL6TmnmmwqKPtANk8scEZXqDOC8LArKm9JggoruBNdefjVXj8nNSXLCaW2O99fHdn525zAEyV+rlF17A2af9BHPeeRuDfX0CZtEXnsKIGsVEkGZauHH/AZPCyfPCTfG5RPDadB/B2FFPdWoMXq2QjlN+n09myWTlvbz+ppth7wMPRbqtbZH2u4n4ogYg/5et1t/bi19cfSWef+YpzJjUhcmdbTIEsuEw4zxVsNWukz1lZhUd+U6WxZURDSOIE9Z0nUXLFwTCZpcpkyABcUn6zc5JU/Dl73wPa35kHQVKTtTbLdddg1/dfYesHskh8yCnsRJPajy4DZAJqvROcOO6nhN2X1pzYPKHZqPOrkg0YEMgd6oM08n6u73QDIa8J7I19NjY4wFPG80KKQyBtQGyVcs2Pi3DJqleHCAXCmpGEZC/89PTl0lA5nqxWHj6yT/h7J/8GP29PdpmBsi8snHbzU1YEphJQ9HU3qpjVyG77EdTZBhY+/QXGyqx7cRjhOtdKJUtmJd3qjCkty9gi60+gx332GtcWQGM5XHYAOT/Y3WzmSFcc9nFePm5Z7HStMnoaCVf7Cux2qRSNbHCv5eLWfKZx+zal5y+WNN1VRA2MDZAZlVsgByOJbDLPvtj3Y02Fhh70B/LHWEs3/vW6wnId0pNQWN6fxmsClnubzSmZ5XlKAvnk6DGXXVNzUKTHHDFhYwGQs4yklW191uoa5463gIcEGGFLL2xq5A5fFMaLpnuWI0+45G94xuHSGTaJA7ZVckuGmv19dbHCaf+fJkEZL/cXIennvwT/v7MX3HbL64VBy8+ORZBQpapvMeMeiIoh70szjwupCiqqmb8FQ0tApyXtaP5/JQlG6o6AUr7bZy9ElryBWz8sS2w/+FHy7N5Wb81APn/s4X7entx143X47V//R1TO9uVcUfj7ioh4c/yZIbrjW28f7Eur1lpmWesNeksbFSAzNgbStocNUH1RDzVik997vPYYNPNsPZ66y8z2WS3/+JaPHzXHRrRtUtgR1c4QLbQTbN6tAqr5ipWPanRbJ4ubUzsyAxpbSLJVkUoKTFZr61VxwtcsUhlUXN14zYhbWHJIWYuxN8tMKk3bA3XaghAnk5mliCy2nrr49unnLZMA7I/LChZ/Pszz+D3v3kEv37wATWlKYdjAglVFwRo0k/8mb2BgMvj09Vj3XbxaenWV/GDPk5B464wzTXOUUU+nDebQ2G4jHU22hS77HMA0q3LNn3RAOR/A2TqU2e/8zb+8Otf4rV/PIvpk7p1ae3n9f1llo0m2K1ax7n4efnrUlvsctkMiMkb56sArJ9JUxTLaO3oxIyVV8OXjj8ByRSr8MAyUwgMDgzgpquvwFO/f0wVsvGRUXXuCdA8oHnJSx7SqyzqncUc76Aql4by+YF+FDOD4pxjrW2IxJNoUjCncc/mQFaTGNYmxuh7bGPSBF9SFlJdUG2hUWqjKnzFXBopQ9pvl4DBKpmAzAbUmuutj+N//LPlApD9jsjjYuZpP8VzT/8ZPe+/j0gkKFCOx0k/WUYfgZkDJLLvdNaytl3rxuBlH2A9lXo/F7NZbbKYKFF7RuFlXLObDdVNP/Ep7LDHvks1/WasD8wGINetMA+4e26/FU/9/reY1tmKzra0gYW7hPaXwMZNmpGKgjQ9EJPndNwkgx+NnrCmnfeI9d7FHMvNFUtYZc21cdTXv4UZK64k34BlbVLpd795FGefcpK02vVVFZt5PIh5sqOEStOMVcWKMxSyhTYOWBx8EbnBAQwX8rocJhjz3hyo1zAvOEJdBWSGw3IkmpSFANjupC4EzA6QVS273D01mxwge5qJVzhrrrcBjj/5J8vctvpvYONtZWf+/Gd4+vE/Ih4jGEeQYJUcjYl+0lVQLIow00Y0sVoLHVDTVkBtOnJfKatqdpyz3DBGRpSSnis6Ey2ncsmXylhv082xy74HIhqL/bePOyH/ewOQ3WYr5PP41f334rGH7sdKU7rR3dEmw3RVwOo9WNPHgy9/L+8DJ8WyhtCw5GykIfh+PHirdIUaeeQlC0r4jSXT2Hmf/bHammtjtTXXmpA7z8J86N/++leYecrJmDapS408dedjMSQIyPG4KuQgAzbrxqW918cC70/ZGiPoC3mpIxTCGQojHI2jRZI5X4XVfHqr9HPVhpPJIaZDNumb+SL7qrkmgbNcvZxTu3gtsqrlQhGrrrU2jvvhycssKPy37fr6a6/h78/+Fbdedw2GBvo04acBElFRrJZ5JcRqOSpLVdJRliZuuvFaxVyn2XeUk2/8DdNfWVYCZqTFQRKqXEg1rbvp5thutz2XyUbfcg/IPAjnvP8+/vT7x/D4rx/GqitMRUc6JYCwAq2WXsyqWPlsAmcPxvbfZc5dNPkO6QhfEVuSQkHxSuQoEx0d2GaHnbH1dl9AKtU64Rt2/9fBy7V9+L57cONlFynMVVyjlBU2nsuDlyBtl7hOxuYuXS2Voqpak9zNQknLdJvXUIJcyBRTT6MbP93HV5K6qKCiuXR3EnWgLNAVZWGpIARlSwnxqSE+xmkYhTK9LAgINhxigyIFlEaGsd2ue2Cvgw/7b9i1zP537vP9fX34w+8ew8Uzz5C3cq3pZ9I4v32pVyYYc4DKAmxN4lgz3zLNvsVF1atkmjRAUqMvnANioYT1N/sYdtx7/2XupLjcA/L//uZRXHvZxehuTWHFqZOkpGBJLND1YMzcNR5avLTlYL4bxeVzyBWT81IlLM7R54p5msKilXiZu8Y66+ELu++pnWi8mciPBXL0zJ+PE758FFAquIRpN2gQiyn5mKDM4QMOhaDJgjXrJ/XkTuGuTgxYmbHE7TJiEirvCueDOKvj1vZtTIf8n4CsaT2XGOKpCz4yLcSrLDS8Q0Mcl6YsfxEnU+Qjt+VR3/w22to7xmLpJsx7klv+za9+iWeeehJ/ePQRNI+MuKYtK+baaHwoGNR2pkrJp4p7r2UD63+zXXUnZm5DVcrSKnPcmifFnOK11tn0o+KUx0tU2WhstOUWkFkpPfG/v8dt112DcPMI1lhpRbSnEwJjSqAs/NICMCukKvSz/dswueIsGr1RPCtjD8hF5EpFzuUh3dGJ7XffEx9ZbyPMWGml0dhmE+I9eIK65pKL8aff/RqRQNB8LJwHMvXIvEsGF6F5/4JTerVmT82oxgMrK+VKxQ0YuEBU+igYP+lNbhztTDB2oMyNRrN6GdE7kyEe6NQbe1BmpVwFZJfDV+R4O698qvJE295UxRz7/ROxzoYbL9NXOQu7s7GBfeVFF+Ce229G08gIoqGgAbMbJGFcFAeCCMqkMJRqTSBWxewrZ1Ib/ncuqMBJH3m8Sg4noyemrmdFKbFS/sKe+0wYX5f/tp7LJSD39szH66+8gmsuvhCJcAvWXGkGksmEDix/GUuuitpIoyjqwFhTXfR4dSbxnORyVbEadqQmRiqIpVux+/4HYd2NNsGUacufATfHzE88/lgM53I6EFkhKbYpao0fOYqJUzYNstQRvkJ2QwRVE/96b2Ov8ZYfsiVUm1+IxQzVNC+uOhbZ7/P1qNQwakIqC9eArTX36miLigdvdwVULLsGn9eOF5FobcV3Tj0N3VMmbnrIfwOID/Pfmfn49luzcMWF5+O1l19AbnBQmuWqzFHp4mHtC17mGPDAzApZWZMGyNQcC6idJwx/x23GKxUBsjThOeSLZay7yUex2wGHLBP0xXIFyKxqX3rhBZ3JM/096EonsdK0KUpK4MYXt1gqoUQplGRRJTcdZjwxOWBLIzY6wnLteGfVxAm8sqiJ1db+CHbea1/EYnG5mC2Pt8svOBe/e/hBKStCoaACTKlYYQee/CIrJnKOlElx7c2c6d9z9NwQupvoEm/kLDXFNdaZCtXSp2urrerYg7FTa/iE6QUB2ew2SVnIjtN5Wvhqmc9lpSxDHHfy9Y2+w772DXxi688uj5v4A7+z0nOGBvHGq6/i9huux8svPI9MX6/jl/2UX0wZilYhG3/MqyQ1/lQh+yagVcxsDPIKi81eXa0QlHl3gzr83XqbbY4d9thnwuuUlxtA5o7ChIQLzz4D/fPmYMUpk7HStEm6dObZV6m5nN4SIPMy1i5lqUu18U4Da45zcopI7l8OkCnH6Z4+A1tvuwP+53PboLOre7k+QP/5t+dw+XkzMdgzz6rjQEBJ2+TNOZXH6tgA2YYJWjS+5cJMVSXbkIc3bXIyl1qHj1VynUm6nDg1n1vzEfFOb6Sb5BLHbD0pY6ATrU66Pl9PlbINibCCtkBU6w+Qty4N275BYLYmrU3w8US8wqqr4oRTT1+mtOOjtfPymCO/fNHZpyM7OKApTSkxRGPYlB8rZG7vIBt+ns4gKOtnAnFQfhmRcFD7EN/Tsg5dlewoDHorb7LlJ7HLvgdMaJ3ycgHIA/39mP3uO7jqogsx0DNXwx4rTO7UpRTBmDeCrwdjGstQ9sSD1jryJU3V8RJJ0TOyCixgGBA1ceAXv4SVV1sdK6+62mjtyxP2fXjiuuOmG3D79VejPd2KUJAHW0AHVpC0RSSMhNOsaijERTdVAbnqiWzR8+KG6wXgbmU0cluNw7Ln2dPYpTdTIa8RJyB7TwsZCLkQUwNknnjNu8IGQwyQNWbtlDScICu6qydVyw6UObVHdcdndtgZO+65T4NL/oC9lmv90r+exzN/+TPuvvUmFHJDCAcCRls5GST3C2v0Nbvmnv2bv+d+w5N2JBLSFRaraZ4kqXihAoaDOjwWM7msmueiL/Y/aNzmS/63A3uZB+Q577+HC84+C+++NQvRYAumd3dhSld79ezMSos7DTlh449do8fFKfHMO5TJYyibscukXA6F0ghWWm0NbPDRzbDTnnuhtbVN/FfjBnC9v/Xlo9E8XNYJL8QDixVykBWyHVTyQaYPgqb0TENs03U+ksmZ0ej3zjPE6SY8S+wnJ73Ph39kMeyDNg2EqYBjH6C+QjZjIQNkNyBClcVwncrC0RYS1KhKNt6Z1AVP3KyUzRAqh1XXXgdHHPvNCX+5PJb7L5u88+fNxfVXXIrXX34Js2e9IUBmbBR7CUF3JeWBuZn7SyCIcIgJMyGEOQXoehHc1rySofLCGn08LgtKIOGw1Yabb4Gd9iR90TqWX2lM3kmUWDEAACAASURBVHuZBuT58+bh0vPPw9+eeRpTOttlKN/d3qYOMC+TOcLp04jraYpisayN29c/iP6BQQxkMrpEIme14upr4GOf3Ao77r6nrDAnuvHPaO5VtKi86bpr8JsH7zN+mFKnlmYE66odZuclqEdWAgXtGy1pxQDZcckukqkacqpq2CplS12xaR39ry6fsNrQ89FNvpp2lIXhs6+QDWTZ2LMqmY9OX06FDQHZSx95BUVAHmZ1bIBM+kqgnMvrfY447lvYaLOPjeZyLpPvxePtrTdex1k/PQXPP/csUm6EntFRYVIYrlqmZpkuc6EQgThswQbRsH4mr8zrJ9JK3rqTI9Y+Fop04kZbbIm9Djx0wjX6lllAJhhffuF5eP5vz2FSexumdHWgI51EOBhAgEMF7hLXOu1lN7llHGFvXz/m9/Wjf4CR5RmUKkAkkcQ+hxyGNT+yHtZYa9mdrFscFHjn7bdw3BcPRywURDIes8qYTRkBMqvkIMLBmtsbK2RektZ8QuoB2XPItcRpcxHzIabOvrHuA/N9fFUsD2RVy96CUwyyqAxyw+Zd4StlArI3H3JxT5LMWXVMICc4c/iHQFwsGiALlJ3UceqKK+Gwr34dkxqKi4XahV5/9VW88uK/8IsrL8NQfx9aKiPq57DhS/Dl6DXpLF5B0UmOtgIW/WVXVZr6k/cFRFXIT5mxUMzpy5C+KMpPeff9DpxQlfIyCciqjM87B6/865+Y1NGGSR10a4sjxGZBE9TZ9Zc9pkG10EueWef09GLe/F70DdmGHWlqwZ4HHYLP77gTOjq7lrsEg4U6utyTzv7ZT/D4bx9FZzs9QMI1MA5Y15ydch5orHLMBzkqjtn8O2wyjwMivvJV1aximI0fFwzraAyjLmoJIQt8TkdVGF3hg91qGXvm7saK2GgLzyXz9+SYeZST4NBgENXL+pVp0zkEZBUywdnitWwoqIAjvvFtbPKxLT/Mki3Xz+XJc97cOXj8sd/qeG0eGUYyEUUynlDyNa+yrKHHSjksgPbVsueduW9wm5GqIJfMnD4PylQ+bbL5lpKf0rRrItyWKUDOZbP44+8eA7v8L/zjObTFY5jc2SGeil1cVcZsHOhAZ8Vjl6o8uPr7BzF7Xg/mzu9B31BGG3jTLT+Jj2ywEXbda+/lVr72YXbi03/8I/zj6SeRSiQFvlYhW5XMy0xygmrSyPDcPHVZORuwOvqhmh5NgPaAbCdQYyrcaG2VtvjgTyiPEZ/Dp2w91crmVT/CKyJzeRNNoQlM0yDbWLxN+Xn+2AMym3vcZzglZqBsgKwmX7GAaSuuLMWFZSs2bgu7Ajyh3XXrzaIwnvjdY4hHw2hNJZVXmUzEQJqLJ3gBMqvncFhArdF5FyI8XIEkiayUB7OuUh7KyLZgo823wH6HHoZoLL6wH2mpPW+ZAWTyl/fdfhseeeAepBIJbcy0XKgiCFBW0wIEmslnWlA59ajkA5mZNr9vAO+8PxdzevoUtlhpDmCzT34KX/7G8cv9aOzC7pmMkr/ukgtRKuTkeWyqioDRFQRl9+jVFspro1WjM/z3IbEqlgXKdb7IjqqoWmt6MK73ofYfVJhbiztuBikH5TmJspCNJ2VtVFa4pp7+LXtPs03VM/2EPCtkN61pgFxWlUzaolT2gGzgHAhHsM3Ou2Hr7XZsXEkt7I5T97zenh787tFf43e//iVe+ec/kIpF0d3VrjkBVsYGxrVqmaZU8sOQD0ZA05MEZWvw5axaJigXi9joox/D7vsfgLb29kX4ZEvuJcsEIJeLRdx1y0144rHf6DKHZ9fWOIc9mhRuyeZdSGBs1bG0peURDGYymD1nHt56bw7m9Pah0hJEuqsTJ5z4Y0ydPmPCXOYsud3lg/8SHe5uuPJyPHLvXUi3tyISZCqxjUtrzSXuDyDU4vXIViXXopvqopf8+LMA+QMq5KoMzpvYG09sGoo6VBZdYf82Xtn05AJbjcYbZWE0hQGyN40iVeFBWQ5/rhHoaQuCMSOHisVCVXFhvHIZK662Br707e9PaC3sUt2fKhX09PTgJz/4Hma9/CIwUsK07i60t6VqzT0HzEZbOO9ljt+3NBsoUw6Xy2OQgEypaiajht+mW3wCBx1x5Lhu9E1oQOYB8s/nnsHbr78uMI4EA2hLJUVRkJuUIXm5LNlTUIBsBykvOXsGB1UVv/X+XMzt6UPnlKk48tivY531N0QqnV7uvG4X5yB8+cUXcPLxX0c42KLGjMBY03km8KfW2+RvNU2ymjWRsBsCMY7Y0ou92sKaek5S4TypATLMSmhxqQD1gbIshKsgXBdwWvPB8NK32lg0r5S8rapA2XHH3LdqoOyeL30yKS4XPkAQZggBbUEdr8zX73fkMfjYVlsvzpIu969lsMGsN17H2T85GfPefQdTuzoxqatd+xcb86yYRVu4pBlWymCjz1fK1CZnCco2N0BemTQVOeW9Dzp43BZbExKQebDk8zk899Rf8ODtt8phivaOrak4kmwUMWrJcYU0jGf0T7OsfkwmM6e3H2/NmStALjW14PM774r1NtoYH92i0ZD5sEjAqvLvzz2LM0/8vrg/XVJWAdk189jUIyA7C8ZQkM8J2FAIJ7VIIjlzIFNR+KBMm+AzhsJkbiaOMc/jWlSLh2WnQRZt4WpmN27tB0N8FWwSt9oQiLlzVkBfPw2UOL9r4jKVFqqkWVFLoTGsEV6CsQDZKS406VkuY811N8DeRxyF7slTPuxyNp5ff51TqeAvf3oCz/zlSfz6vnuQjoYxfXIXUolYtVrmvkS6AkqNoSE+gTkg8OXgDpUXFhRhLoykqTb7xCex/a67IzUO46AmHCDzYHn5hX/hmksuAEcxosEg2tNppBNx0RXkDIdLRelL6XvQXDEgJjBTNfHu/D68M3ceZs/vRX8uj6OO+yZ23n2Pqv9x44j4cCtARcv3j/8G8r3zXPoHpW3GH5OWkA+BOGTPI1MC56awQpYm4YdChMv1FbKaY64aFq/sRqbVBeBQHv+9YAPNKmSjHzxFoQrZVbwiIFyytE+Yrqa+0GHV8c9V4BbTUVH+njhm3WsVMukaOcJ59YVrEh/3o1Ow9vobfrjFbDz7A1eAntV/eeJx/Jwn/VBQZmDpVKI6KMKhLGUqOgN8+i3zzK2ormIZeW0vy0ikDw3ppfU+ujn2OuTwcbfiEwqQeQC9/vKLuPPG6zEwfx46WtMaz00l4hpC4NhruVRAqVhAucgDqKzOOitoqinemTsfb8x+H3OHMtjyM9tgj/0OQGf3JBncNG6LtgJz57yP4448Aolgs6pe+Q+QrnCgrGpZU1fGJ1NpYfyyOXp5q01WwqIoJEV2KcWqimuWmsZSGCjz+QRXeSbXSmVTUqjKrXHGRlm4OCg3Rs0GnUakOS5dNwBC0oIcsh+fHqk02QSfqmRLF5FXMkG4QDAmZeFUF96EqDyMY0/8MdZef4NFW9TGq/5jBXj8Pnj3XfjDbx7Fu6+/jOndnaIxYhH2KxhQwNRy3l3aNf/d1KzhEQ7u+LRxascZBdbePQWf3O4LmDxtBuLJ5LhZ8QkDyAwe/dtfn8Kzf35clo5dra1oS6dldM4ZeFbEBsRFxSiR0xsuF+VFwUp5KJPBrDk9aJuxMqautjr2PvBgyWcat8VbgYfuvw83X3k5UsFayjATQDwgs1oWGMvTgnczGwqHrMEn6oGXmwsElNa45BaXQu2cg2rBsibHcHQGq1gna/P+x15p4egHp2EzSCfgin4g0LJiNtN744+BskyFTP5mwOzpjWGXXk3Xv2FLh9G+RuMhTvIxr4+PI/jcTrth570b/haLt3f956upprr64gvw2MMPYIXuTqw4udtsEAjKsmD11TI9lgM8fQuUTW/u8hJ9yO3IMNbZdDN88nPbIpFKj/ZHXaT3G/eALLvLfB7XXXIe3nntNQWPTu7sRHtrq/giO7gsikd+FK46NkB2zm2lEt6aOw/xydNx5DdOQGd3d6Npt0i7y3++6IffPh7vv/EaIs0VEDzFCbtRaTbuvNqCVTIbMARhURrSJ1tCiChhHUw+D6/GIcvxTVWy86WoRnzXJvYW+FQ+FNWYC+vyecrCjU7LvY8mQ74S9qkijjf2QC09spzfjD+GUqstcJXUhZzfOK1XGkGJBkT0yZYpEdDW1Y0TTzutIX8bpf2s/m04b3DdlZfh/ttuwapTJmGVaZMUsEoAVpRXCxUXZnBPSsyfaOnax23pB4NINfHku8Z662H7vfYfF4594xqQB/v7cd8dt+KtV15EU7mEztY0ujs6jCtubnGyJdIUDoxLVh3TIMjA2QB51vtzkF5hZRx8zNcwZeo0q8oat8VegXffeQfnn3E6MvPmoKUyLK6e3F1LU5PMlqrNPdfk83yyaAtN71n0uygIn0jsE76d/M0nfvseXlVdUd2GNQ5Zrm51lbErh2t8spOzWQKXVcc8QEU311EVBGo2/ZQOI4piWDasSo5xVAgraR7geTb4hisarydBVipXlLkXiydxxFe+jBVWXLHhd7LYe9p/vgFVGHPem41brrkKb7/wD6w8ZRLa0gnl9RGMweYeCwTZvoZ0wlelLEB2E5rOwY/XRqt+ZF18eoedl3ryyLgE5GKhgKef/BNmvfoSnvvTHzGFfFF3p5p3gZZgNUKp6kNRKogXKhGAxeeRRzZAHsjlUIqnccTXv41JUxpd79E8Ni449xzFwXd3dYu/Z3aeFC0jw2rOkZoIkZpwPLJVxq6h58apbTSak9M2rWfJH5S2mcexV1TI/1jPZb1jCgv7jd08v2xFsE3kCWaJnI7GqJIaTlFh+mNTVVR5YwfGNee3skaplRyj9+Fna0YT90OmWFSaVBnLeEgHuPmhcB/umjwZ3/7+9+XD0LiNzQr09fbiussuRs9bbyJeKWrYaISzBtw7WgIIM9ePUrlwVHJJPyrv3f4kV3TWu2tvvClWXnMt5SUq53Ep3MYdILMi+dX99+KX99yBqR1tmDqpE12taZmKkKTnQntJkhzaXHXseeNigaBMLtmyz1qnr4wdDznCTOMblfGo7WKsMq667FI8/9zfkUomtVWo0a2UTGZYKZdkGENagnpkmTq5cWrjlalRpqjf88ALapDNktN8LEzl5tNDDH6949uCgGz8sP5btZE3Itius7fQS/yYdFm0hQu01bSe0RmWLOIjvIjDTWgKBNEcDKM5xHtELcWSgJghnLa/kV6jeX0xn0fn5Mn45ne/K8+Oxm3sVoCY8ebrr+HBay9Hz+x3bQw/EHAp53HE43FEYnHjmR0oy0ZVvufmdy4vdFbOFWDTT3wKW31++6UCyuMGkHmAsHH36r/+iScefRgdiZiMgRgBVI34ISDz7MfUB3J2XEROS0kPaj8XC6yUrdnSO5TFev/zWexx4CFjtzcsp+/83LPP4rLzz0drOoVQOCLqQaDl/IeZ0F0pD6O5MoxgMxBsatLYOpUWlMCJU6aNYn3ahxsOEeD6nzWZZ+DsJXAOwhcQV3gQts1Rq5D9oIgvnC3VyRQWrJ41Mi1BhlXLnJwWleHrbmpcOaJLIKbmVVI94yr5HjahZwkiujPnjfdCQSeH3fbZB5/aaqvldC9Zsl/7mvPOwt//9LhO8tGIJV4zSDcWjytOjZ7K3iWODb5iyYKJ5XPtHB+5PbkffOzTn8WWn/7sEr+6GTeA/M/nnsWlM0/HjK4OdU6ZAG1pEc6g3HFCrI7NU2BYFEWB9ISqYoJyAaU8ATqPDMdY198Yexx6lDikxm10V+CpJ5/EL666Ch2dnQZdTg0hXwFX3TY72oDTdQRlOu2xxcJ7iFyzil8zAfLb2pI/FqyarSL2DT8nezMBXE11UT+ZV/dV68enfb9PAyAupsnGR5rtMld0RBNG2AhSMnIIzZTmhdi55yWs7z14r4wmNzqdl9ubYp2YXMFor5xVydvtsjO233HH0V38xrt94Ar0zpuHnx7/NRRz2SoYE5RjsYRoi2g0VpVasvlMGsqSR3Ia9OE4vY3El9Ss/dTnt8eKq6yGFVdbfYmJAJYqIEtwXy7jpef/jodvuwnhShnTOR7JSzx/XOpAN9G3O3xRGqbjlpuU8hl4PNPlcigWLGurN1fG8aed1UgEHoODt7e3F1defDH6589HNG4OWlUXNu/GxsYewytdNI93epNhfbObuGPXu5jT0E5ThdOUI9UBvH9v3tUoi9rYtHM79uK3BdTIHjoJuDYj4rnfgBo+GheS7tnCVUmRVJr4e541bOfzgK+rsppfkfu+trCy5CRVUWB1bPseK2RaufJx6owVsN/BB2HGCiuMwZZovGX9CpAueui2W/Cb++7S0AgtXlkh6x5PKMeP06FU+9D3gmZjxCBezTACijJGeVwrpssCbUlTbbfbXtjkY1ssERe/pQbIXAhSFHf+4hqUswMIjZTR3ZZSXEuQ1TArHt/kIRj7gwVAoUzJUb56NhMxr4oki2I+hzn9g/jcnvth6+13athmjsExO/vdd3HqiT/E9KlTTZC/gC2my8FzwMxqmcCsPD0mP7jRau9xQb+RcoFXOXkD5+GSBnnMOnNEsrUqReFohJqPhX05NvqsYVd7pvBTgBtApTmIZnpqhMIIRMJoCYSMm1aVRBWbURfVYREnh7MJPkeBeArDNSE9h83n8MqM1XFeFTLvBsaewjjymC9jo003GYMt0XjLf1+Bl5//J8458bvqURgQk0O2x1iUVTJ9bmhKZP4pkl0yfKBUwlCOyUAF5Nw0H4s+uj/SxW+3Aw7W5KU8M8bwtlQAua+nB7Nefw2/vPsODM57D12tSbQnE4iGfJqHMyTnQU1xd5MBMnWFPD4K6mZzQqqkBGBWJ8VsToDcNzCIwUoLvnzCD7DWuuuN4dItv289d84cXDLzbISjMZcOXUcxOB8K7ewuGVqg7GOcnJ+txfNQjuRqWQ1gkIYqYrhQdFOWPFaGHYdMkPbUhRnPkwtuct7Fgk1XxUp+TMvVYBjBSAQhDg6EzPNAKRPkkX26tEue9sGnNihiRIZTPjvU9/W4PeruKix+5jwrZAIyA3DzBGTHKWdzOOzoo7HhJhsvvzvMEvzmb7/xBi4+7RT0zX1fIJwQIMeNwtCj+WAYINdkl81NNtHHk+kQE615laMrn6L+zWGffQ7/IjbYdLMxpS+WKCCz4fHQfffi9ZdewIt/ewYdqSQ607TKDMupjY5sNJFnBSQvgqZmVTVNMhAJIhgyyRsvK+hxSqMgViKFLKsRhpEOIVdpxr5HfRUbfnTzhv5zjA6EB+65Gy/8/e9162ugWtMMW1XsKxCCIAFZrm8KOg2rWcKRVwNtxw8vQDo4xrZK/Dpc9M910jUrXD2f4JQZ7gRQ9U+um+pT845USdmMgiR983rjOv+LWhSU/d0aa+yrcnciYUiuVBbW0FOFnM+JvuAlNFPKN9l8c+y5zz5qKjVuY7sC3G7333oT7rnhGoFxQukjBsxKuk7EnQ+3mdtbPUACy1oX3BdY6FnyiIUay/R+KItANIaNtvg4Ntx0M8xYaeUxAeYlBsi8JLj1F9fhthuuQyISQldbGl3pNFpjYUQCrKDoXUyxPeOUqCUug5KkttZWpNs7lKsVICCPjCjNQ+5N+azAmM5v3PHn9A8h3j0ZJ51+TqORN0b7PXf4M045WUqJ+qRtS3s2LlkTUnXVsUUwcRvXqAsCss/T8woKYat7nf9Zj//xXexkXT0B2JOrf9+d0Z1uuAagXqMszbGvjB0Y80C0vqDpkn25XR3uqzOX099VhWwVOyt7T1nw4M1msxZL7+gLVuffO+kkpCZIjNAY7TpL7G0fuus23HbV5TK0TybZ0Isj6aiLJE3IYnGpfKxgIO7Y9vb7Lz8oNeVDuuJh+khO3ukDGRZ9WaQ7u3DoMV/DSqutPurfaYkAMi0K77r5Rtx7281oGimjNRFDRyqhRA9WxbxEVICkVBOWxlAoDuuScJUVV8C0aVMRiloiLZuAapwQiHPk7aw6HgnGsN1+B2PqCiujvaNjTM5eo776E/AN33nrLdx/150o5HI1YyBfPvqZDYKvA2YPsBz44M5P7TE9RBTD4wNOHRB7EF6wgVfHIPupvqoS2foM9eBdIxYcEPs1rksXoe6YRkFmUG9VsnkP2YHpDeq9ltmu1mrArulCR8lY0OaI6ZBZTQmECci2f7JQYEP60C9+EWusuWbjqm0J7PPZTAaXnP5TPP/MU0gkEqqKU466YCSUwlQjUQVXmLpHWkjN2jt1pfYw7ifZQhH9mRz6BobQPzQkipQg3TVtGg744pcwfcXRrZTHFJC1o+ay+PWDD+CB22/WeG0sFEAk2IJwgM0gkulOasL0Xp/EILOWMqZ0d2PzDddXtzQUpYawWZyOaT2zDozzGAlEsN1+h2DN9TdqAPEY7vAEpovOmYmeuXPR1tpWtcq0kFK7aTCjrjr2MjiffUYqQxlpAuTQAoMhC1TF9eCrib0aIPpquPpHPSh/wHevfrI6QJbkjSGn7tFXzobHBs423FdfLVdUIMhNrGqkb1U5X2P7pfHGBGFykHwkbcGfO7u68M3vfa8xJDKG+2f9W1/ws1Pw59//1gFyAqyMSVmQukglY6qY6c+9QIXMDm9956CpSYqLAQLy/2PvO8Djqq6t1/QZaUbSqFhypxMgECCN0BNCywOSRy/GYGMbTO+9GGyDC72XgCkJJUASXvKogQBJIMmfHvIMgVBsY9yrpOkz/7f2PufOlS2BjWUj22eS+TQWmpl7z72z7p61116rvQOLl3Wio7NDLtikS9P9+mHY6FMxZLPNew131hog82T+1fPP4o1XX8HCWR8iEQkjEQ0hxnFTykxY4do4dTtySl8AytiKRSHed93xKxg8oL/J0VItMbm6XKYTuRypihxK4RgOHjEWQ7bYqtcWZR2dM+vd2/CY/uRHj+Cj9z8wZi6aEG25WoPIqo4xSdHiU2seC5dsFBfilcyJt1BXsLXqBb5WlZNeQZvsXQBMdfMpQOy/WNhqmnSFTZ0WqkKvJJ6nha2UvbFr3RjZJzGtMfSFfW0CMie/BJApn2JlbACZ3+DIKzek07jgssscIK+js/5ff/0LbpkwTgzGUnUpwyfXoiGVRIMBZPY0pNchV1Wx9jOOVPqVT/tVRXRkNX1kaWdGhs1IW3DalMMldc0tGDbmVAzdbPNe2bO1Asjki//0+zfx8L13IlYuoKUuKfE+MF1MEuTLOjvFzZ9CbPm2gIBUTa0DB2Gnr38Ny2fNRE0sKh/8OLvkwSCKxYLojAnG7Jjv+N2D0G/o5hK/5G5rfwWWL1+G/3nqKcz9eLZ4SPMbSxXwqqGkBDTlkENeN5ucr3S2zU+x56TywZgIWR1zt1Wyv1r2Rqit1sGK3XwyC3/46Qrj8mK1KQYzWiGLi5snmTMTfpze8/wwTDiJSTf2J2Hr87SK5gg/CwQWDARgAjO5RzadCc78TOx/0EH43kEHrf0D5d4BS5csxgUnj0Rm+XIBZPL3krVJQE7WiG2v6JEDdClU1Q4qatUr35JoFlUsIVsoSuHYmWOjL4flmSyWdnTKJDDxidjVNngojhwxBgMGD1opMGF1D0WvAzJPzjd/8xruv+0mtKZq0dKQRCwYlKp4WXsHlgo5rrEqBGTuuPgcRKPY+8CDcOyoU/D7Z5/Be3/7s5GtaIYWP0DkojmFF4yEse2u+2Dbb+0pbk7utm5W4LevvSYm4fz6TW8RVhgEUlUkqDrG6jr5zU+HQihXNF7J5uu+/T21yfr139hw+vTMeok2zTrzN/pPTQ6pTg4ZcZp/csNPYfjpFHF2M4BsDOrFwc1ziLOVsolxEvpF5W2WqjB7KhJnpSt0FJsVN8f2ySVrk1kpC+WVFZR323NPHHXcce6b3Do4Xckj33njZPztzTcER9IN9SbmjaBcg2RNrfSvVGVRQsgAsvixsK9QqghtyoIxI6BcRAclcFniVl5UGOx1STZkNIrGfq0YdvJpGLzJZmt0fHsVkHmyv/z8c3j2qcdQHw5gQGO9TF8tX96BhUuXYcHSZVjSnkEqEZNynzur3rPAwUcdi0OPPxELPp6J1376BIrZDNL1dfLVgGBcLOZleIC2mt846HBssfMu62RyZh2cO+vNW/zxzTfx3DPPoK4uJYDMZBBbIbMBot/szTgzq2Q290y8jnrTqhxOviYaGZyaCNmAU5P/4auC7eurb7LJ2/PQuhvXIF+DsMvCWqN6I3OzwCxUhf1D64tcNBFQHDWRaCCNkjLXB89nQxQWxheDzUGd2CMgmzFqwyVbQE6n0zj2xBOx5VZbrTfHfH3e0JkffYhx55wmSfMN9fWi2GqgzLYuiRTDeDmhKVdU9brmN+9clsNJVVOpQoX5iUVkCyV0FgrozBfQkS2IJE6kcR0ZwahBA9rQf+AgHDp8BIZu/vnVF70KyJ2dHbj/9lvwyfR/YrP+LdJlXrBkCRa1dyJfAaKVkgx/0Gt2/rLlKJYq2OFr38BBRx2LQUM3weK5c/D60z9BIdshi5eIRyXxI5/PMiUN4XgC2+yyJzbb8WsIR5w/xbr8sMydMwd33XqreB6nkswzU0DWySUFJlabgYpWyjb/jhN5QZoIsVq2tIXnd2GqYwvIRi5naQs7fCFAL/l6xsjeAnK1+6ZLsZKbn87veZpiq6IwXXUBZeUdjFWn+SCaWCe5UITNZJZ5baFYDJ/MZ9nUaokIKlCKSUpNQVmHDCh/47AIJVSdOH7kSOy6++7r8tBttO/FgbHnf/40Xvmfn4nMjaEWrJTT9SmJfSMNymowIAG2RSxctADzFyyUApBnjnyzM+cdva85IZyhyov0hTRvmWqtFBVtP4f0b8XmW26NHwwfKXhmn7s6B6BXAfkvf/w9HrzlBmzR2gxUivhg9lzMW7oMX9rpq9hphx3xj18/K53NWfMXYf7Sdmy7w4449ZIr0NjcgvZlSzFt4jjEggE0tzQLd8w4JuHgsh3Y6GOzFwAAIABJREFUcqdv4msHHCyWeKyq3G3drsCsmTNx85QpqK+r02mneMzwyJyilEkeNXAvaZNMPefVqJ5JDqGwaaAIGPM5lJdp3WknpqSKZkVq6I8ulbPVGVtg9ogLrW/9gxzVsWZt1nhqCVNQq47Y0hJdtccigZPYL6UqOF4txvcEYdMEsrhvq2w+h8bnYnaVyxraojpKrQMjet/3gANwwEEHufiwdXT68pvLS888jV/9z9NoSCbR1JhGY7oeDamUUG5l+qjQcrVUAidQp//nPeRyBT1/Q9r3CEsvJCQe3RJKUChJo0/oC/k2lJNv+ulkEm3NTahtbsYVk25EbTK52nvZa4C8ePEiPP7De7H4g3fRWBuTMNH3P5mDXfbZH0cdPwIvPv4QinNnYvbCxXh/zjyZjbno2uux7Y4qVXvjhefw++d+gf6t/VBfn0KO0zHLliGTzWCH3fbGTt/ZF/Ha1d/B1V4R94SVVoDc/SMPTsP//eOfaEzzm0tcwJg/6REhMjcDypyCk461+ZJPeoL6cfU+VqqCcGgN4W31251Uzv7OGxbxGReZklhg2Q+4duNtqCkrWHsjcPImvLaZ3lPTeR3D5hWC38gkFUQuCmowxK6P0i9Ku9gLgBfvZFMojC8yz10299RJTIGZsUMEZIL8RVdcgf4DXCN6XX3UWOxNvvhsgKEBzU1oamoSOpQBCtLUZYXMjMTODrw76xNst+ueeOsvf8K//vZnj2YjeAd5Hgh9FZT8RJoP0caB9CuTveijnYhGMXjIYEy49U7UJlc/PLXXAPmdf72F+6dei836NWLB4sX4YO587LjbXjhm5Ghp6N03/lIMrKvFWx/OxCeLluLAQ36Aw0eOQTJVhz++/ip++fCDosYYMnAgcsUClixZLJrO7XbZDXt+/3BE3djpujp/V3offtU+/6yzkIhEZOiGkkQLyJyeZLah0hTa4JMqU4CZ2l0gwsgm8RE2aSAmQkn+1kxIVW07Ffy66Jd9//arMbzK2HK/RhnhgaxNCzEXAKFUApCLgwXl6vQeK+MiSgzEY/2sOyQAKk1I8W7WTp59jgyV2LBUSTavOr9ZHlmbfLZazog73GnnnCNDIl0keV/Y0d3w35jH6V9/+X947vGHUcll0dLcIoVFTSxuFBVisC5KGVqvfnv4GCxbthwfvPcOnnr4QWTal2PZsiUoFYqiW1Z1keZH8vzgOAkBmedyoVBCU79WTLjx1s+VUNRrgDzl0otQWbYQNeEg3p41G/233BrnXDpOIrbnzP4YD068HOlYGH//YCYWZ3I45ewLsNcB3xNK4mc/ehD/fvN32G6zzVGslLF0+TIgEsWQbbbFfkcPQ+gLilPZ8E/VVdtDVneXXXghyKbWNzQYQI5JhcwLJb/SqU5XR4lZYUoEUonGQApq9LCQr32+4QupMA2v65e/VcHYNALNiW9/b6tjBWQFfuvMphrirjQF/84mhHRReBjVB58jU3v5grweP2z0R7ZVsVWKyPvpm2ozj5WRb9qPj/ltgmAsdpyc3pPHOfFGFh45kxEPaVbJ7P6727pZAR7jv/3udfx82t1okQo5jboUM/jCpogoCn1B4UCydTD2O2GUnLdUzBCo775pKqa/9RayHe0yGEUb2UQ8JgMnzIckKPNSzmqZioxdv7MPRp125mpXyWsMyNzRv/7h93j5yUdRF6jg/U8+waJcCZPvuV+qKd7mfTIbj0y6CjXBCv754Sxsuv3OOOeKq0Wb+fRD0/Den/+IzdpaQUPzhUuXYODW22DfY49HTarO2Weum/O1x3fh8X391VfxxI8eQao2iVRdnfCfUiWbEWiRrxmNsefeZsDKOqcJ/2oagIQ1cVUzjUA7quy5b9mAU8M3C5dnfIurwG3sJnzga6mLLm5tPpkbK1J+9bQVsoCzOLaVUcwVZIRfqlYJxwyKvFLeV35X9UTWgFQz7ccLjzEpkpw2SqWsP7JRW0jGnkkUISin6upx2dXjHCCv43P7kxkf4pcP34/Fc2ahoa4BqZT2Q3hOlSh34/ErFBCvrcXXDjoMbZtWhz34LYcFxvvv/RtvvPprLFuyCK8+/yySiTjqpMkdFW9tfinLMY2kWMbXdt8Dw0ePlSJmVW9rDMgcDX3olhuwfMaHCATK+MeHM7HfYUfhyONP8GK1F8z5BD+ecjXCpQL+NeNj7LznPhh1zgVYumgh7rn6CgxobkIxm8XsOfPQusUWOOSEkWhhOrS7feErQJC79pqr8e706RjYfwDixr7QgjJ/EuA8GsBm4ZEmkGYJpY1skhlZnDT0jHbZVpqiBSYzV41ussBrrTutbM6OYJu+nKmMjb7YWmeaqtv6U0iytAFbXjzstqqOmtupHKK6zqlULxQxDUavAWgagfTBMJyx5u6Rtqg6xvHfpCly+ar8jf8umMw9+WAD+K9Dvo/9v3fgF358N7YN+PiD/+DZR+5H+6IFSCaptkhKkoh8izLZesVcBtvsuje+8p39pefR3a19+XI89aOH8MsnH0c0CBk2oQE+FUVk66hdzhUUlI8+8SSkG7U4/azbGgPyH37zGv73wR+ira4WH8xfiD2/fxj2P+S/u2RRLZw7B49ffw3KuSxmLO3AuROvR/9Bg6X8/82Tj6Fj2TK885/3kQuGcPplV6LRxAJ91sa7/772V2DZsmW4YdJ1mPnRRxjQ1l8sJMUcKBoVHpk/LcDxq5tt3gn/Kie5HVMmP1tS4JWT3Iwq29Rn03DzGnkmcVobgYbHNckeXVQ2hqKgDlqoEuPaVq3CDaddLqsFqNlGbdIEgaKa4aucjUDMMFZNEFGOVxUkWtErtSFAXCwZ2oL/1vewfDIrYpG+Gf6Y1AX7KGJAZPjkHb/6VZxy+ulr/wC6d+iyAjyGi+fPw5N33YKORfNRX1cv1EU8XiPSNwm7yGaFYtv7uJFoHjy0xxUk3Xrn9ZPw6+d+idp4DE31KaRTKYn9KpQr6MgVBJi/tfd3MPK0s1bpSKwxIP+/V1/BK4//CLlyCTt+ez/s94NDEV8hZXfhvDl44voJyLUvx8zlGYy77V7UNTToyGkuZ0ZZS9JIYSCha3as0rFbJ3/0k8cew4+mTUP/tlad0PMAWR3bSFsIZeGLa1JQDonHLPGM4CWZh4WCZ+pjK2Dx2DITdNaYaMVhETturVwueWWdEFSpneWLtUr1bDMNVWHVHIRW8S4gIFv6pFxBsFIRFQjHuENRVs8+MDbvYStg6wwn4OvzUOY2eL8z4bseIBsQFhqDtIUZHtlx550x5rTT1skxdG/SdQV4ns364D/43x8/iGXz5qApTT45Jbp6PVcLKOWy2GbXPbH93t8VT/bubnydl577JZ6edh+WL1oo/t60/GxO1yMeSyBfLossrnngEAwfe4Z4KH/WbY0AeeH8efj5tB/io3/9DblYLa6+5c6VwJgbsGjeXDxx/XgsX7oEM5ZlMPGuH6K+If1Z2+b+ex9YgUcffghPPPwwBgwciIZ0o+iPY/GExx/rgIg27MQ8yGo3jfZYpGPligmhzUulyCqEAGZHkoVaEF7WjEH74p+kTWiidhSQqZAwgn2r6DDPFXA2r2UVHFoxqwOdVMcGjMXTvlIWP4M4o31qEwLW1uNYC+OKGtn7LTqtob03eq3bbRNI+BxeeNjck2rYVMZ+QCZtkW5qwgkjRmCrbbbpA0d549yEWR++jyfvuxMdCxeitbkJDQ31ogiSPkBHhyiFDjnzfDEQ+rTbxIvPx8L330YyEcVHcxfJn/ZvbkQqlZJhEpoS7f/fR+KAQw//zGGRNQLk2R99iMdvvREzPpmNI8acim/tuXe3byiUxdTxYvQxc3knxt95H+ocIK8Xn4LHHmGowI8woLVVotWZSUbaQmRvsbhSGPSWFVmbpoRQBkeZmKUyCH5WgWCBiYDF34kumY01oyfm13+ra7aVchc+mfyukcFZxYZU2FIp65CHrVY9b2Mzxm0B2aoy+O9ENIaaVK2Etcr7+KYOVUFBkK9O+3nUhAVh25iUxp6+t3ygRW1BQNZ4J1FaSMqNkcHlcjjmuOOwz/77rxfnwYa4kbx4zp7xER6+7Sa0L5iH/q2t6NfcLFRWtqMTmfZ2DNpqG+x15DEiMOjp9tZf/4ybr7oE2w1uk8GR3731bzSkarHpwDb5bHRk84jUJHHiWedj6OZbfOpSrhEg84TlRhfLJdET8wTv7jb/k9l48NorES4V8XF7FlfeerdQFu7W91fgJz/+kQByS30KCcMdx6LkkaNyslH6Q1DmBCWMvjckjbMo+NM6uklB6snCGLvVKWY8nHAT4JUgW9IXCn5qOmQGOEzMk1h6EugNiAtHbcHYGgeZiUHrMWEn+CwYy9RdpSwXDW63hF/W1iLG8FNObol5vZrWWyrFeiML/WIaeGJAY4JR5WLgq5w5Qi3DIaRpjOLCzykrUGdxzPAT8N0DXGPvi/wU8Pz48L138fDtN2P5/PkY1L8NLY2NIoFrX96OXKYDO++zP/Y89IgeN3PxooW4efw4hJbNx8CmNGYtXIa3P5opnPKQtjZwNIl88j6HHoHdv7v/pyrH1giQV3UhP/n4Y9xxxYVoikUwP1/EJTfejlS9A+RVXb8v6u84SnrjdRPx4Xv/RiNtUAnCEZrLq8OV3CMRMZqnLpMKBfELpq0heV7+t3gSYVp1soIOaOw6AUtCBto7pHKkGqMsU1CqwLDDIiK+95vBGy8MoS5M081Wx5ySUhkdgdQ04fiYM6GGriAY07eAw3bUT9cwTaK2Vmg28dyQTDWlH9Smk1N7cilBpWL8OqgaKZRQqpREmSGSN8nnM5rkIo2wChK8oBUxG3xqw0kNslTKhTzyxQK23eErGDH2NDT36/dFHWL3vmYFGI5699Tr0LlgPga3taGpoV4uqkuWLUVT/4E4ZPQpn2rz+9F/3sPdV1+CzVub0ZEvYsEyGtovRVNdnSg5suxXxOM47fLxqEv3TNeuE0Bm7M+k88/CgFQNsoEQzr/+FgfI68FH4e3p/4cLTh2rZiwE5CjBNyLAzAZIPBIRa1SCsjTyrBubnXLjzxDNhSIoMzk8GEYwQmP6qFQN0uRq75Cv9gVK4wyg+/Px/H4W4rFs8vnU2F4Gp7s01LxJQcsvV6igMEMr5bJo3ZlCTTCmTEmr+5AMvYhxfT4nE3sCxgRm3s0ouFIdvoEQ+RutpDng4m/0MRvSVsUigcvlBaDJL/OCZCPLLptyPbbezqWj94WPw4wP3sfHH3yAF594FLWhENJ1STEOYnRTfUsLhp17kaSEdHcjIN9zzSXYtF8TOvIlOU9nz5uPhcvbscWggQhFogjV1mLYmeej5VP829cJINOY5srTT8HAVC0itTU4d8otSNbX94Vj4LbhU1bgnenTcfEZp6GhTkMiCcgqeeNPVseM44qIyiJq43AMTGpgJPtm6qjGr/qFUgUVVrnROMLxGgSiMakkMx0dyHZ2osCK1mTxeVab1o/YNPqY1edxy1Jxm6aaaex5ig1LOVhLUNEhA/FwBAlqT2viOvJdLiNMDyFCeyGLIv22pQkYFJWIyY7gLLX3XtynEqyyQhuSrKwtfaJmQwRkkxFJCsNUzGxoSm4kQblQxMWTHCD3pQ8hL8pv/flP+OkP7wEzwpuaG8WgftHChRg7/jr0GzT4UwD5UmzS3Ij2YhnhQBAkcF9/61/YjBV3ugHlUAibbrsDDj3p5B71zesEkJcsWYI7J03EgnffRrQ2ictuu8tVyH3pLOxhW959+21ces7pqE8mJY9MtceGqiAgs0qOarUcjXDqzfjLEtAMryo+yZZfLVVQLBdRlEGQMEKxOILxBMoIilUrUzaY9lshp2Du0ii0adQ+c6GqyY8axCsQAyXf5J4oObgtHIeuVIRuIUURiYYZBwEU8kC5gDhzHqNhRMhPmxAfuySew6dU4kaL7OOrvRFqSQCylAnpC9o1MqyX4KsAzJ/ybxPoy39fdO0UbLXtl9eDs2Hj2UR+y/rTb3+Dn9x7pzjEUfLZ3t6B4869CE39+3cPyO+/h3uvuRRDmtJoLzCFJIBEOITX33ob0WAAXxo6SPTJdc39cMAxJ2DoVlt3+zrrBJD5zi888zPM+ehDbLfzV/GVb+ziRqL7+PlNcPnHX/6MSVddJt6xBGRyxcIfy8i0grEAsoCzSt+MF5paVpoQUZGE0fRdJtt01JgmO5z7rwQj5BBQCYYkgUGm2qSqlmkNL02E9IRm7Pmy9oztpqottEIVTYSYjisoWjCOhOk9UIMIo8TyWaCQQyQIvcjEeEEJS6VPe1jaLMoFgWZC3COxCtV4J5G4SVWuFwIbAyU8uCgvDIVBPasAb14VF6ySSVlYgDY/z7jsKmy/89ec9r6PfR54/v/h9dfwxA/vxZA2qi+acPCoU1DfgwTuo/ffw33XXIqBjQ3oKLDECKAmEsE7s+dg8ZIl6NeYRnNDvZxTu+x/IPY85LAvFpA72tvlpGNH2936/gosXLAAZ588Gpn2JSKcr03UCAiTQxa6gg29mAKy/jsiGk6JOlLL+ipAUT5GJzXyscxQtFNtEstVEK1mORBGJRKT57BKZhVdlDSPasSThIxy6aRS1jW0Vp58rM08HRSR9yqXdPAjGJDtjoSCqBTzCJUKkvFo90P+m+HFI5KErRW6aKgFlBWI7RCLX3esNIV/nLpqrGQbex4g50hTEJipU9aqecCQTXDe1RNFpeRufWsFeJ4uoJEQzbHCYdTU1fVINXz0/n/ww2suRf+GOiwrkLIIoCYaxb8//gRz5s2XoZGtBg2Sc26HPfbGtw89QlRKK97WWYXct5babc1nrQAVFicdcxSikQD6pdOqPxZ6QsGXNIUFZGnwCVjHjPqBry4lpPhYCFBSnSCVMqtkNXIRna9k0RWQzbMyZhMwiiJo9lIBG2NZUgswRvcc3LC0hTGxV+WxDuhZxzd5TwHkIui+LHHvKCFYKojvgFbF5iISjSHCbae2OqYNx6A0IO0KaYKfaoxVeWElcTSk4dyJ7p/9ffWxjOHygkMQptqCvLFUzIbGyBeQamjAFdffipTrqXzWKdmn//uM9/8jFsOtdSkszxUlHYfFyvSZH2PpkiVoqa+T8ytdX49IPIGDR47BVl/ZyQFynz6qfWjjCMijjzsKsVAQzY1+QFbJmwCyCXgUGiOiYC0Te7IfSh0oeBnfYBOVY32ERTYmMrGijKuSU2UaQ6ESQLESEJG9NMPoN0Gje3ovU55mbDNtsCohkxSCfzqPQF8pFREOVBCmBzJKiIaYbE4gJuUSNVUx9dQx8V6R/TLOdURkm5tq6ZDq/vioCiuz88anDWizicltJ3dMEBb+mBWyTvEJUBOQ0w24fApVR67J3YdO/9XelJkE5AmXozlVg2WdBTlHeS4tyObx9b2/g/5Nzfjlz55GophDLJHA90eNxdY7fdUB8mqv9Eb6hAXz5mHM8UcjFgpJh5hTepaa6FIlU2EhigsFaju0IdWqv5o0Zu7WIU3MeYy0THxoBZDV3IWGLAWavRc0LifHO/XD4RCisbj4z3b1T7bG+NWmG0Ge2t+aUBmJiH7ltJU9XyNquHDZ9lhMK39RjMRkhFpvpD9UF82LiPzGVMIiczPm9BpYbFQX9vfkyFn9WyAmPy4VMmVvWjXzcbIhjUun3CSWnO62/q4AAXnatVeiLhHH0s6syN5qapI4aNTJ2PLLO8j5+v6/38G06yehLhLGgcNHYrtv7LJS78BRFuvvObBWt9xWyIloBM0mtomArI09rSQF4AjIUYJdVx5ZqslSsUsqsyaJKE0hlIJMvZnqWapJBStbPWZymvKbyZeEZ6YsjsZCrGaZQEIfCvGeMBI1r+FGgx96SWQyqI8FkDTbG42FBXgjUQKyqfLlZxWUuT+S22jq/Opr2qadoSak+lc6RqR9BpA9RzhpWhqOnFVyrqq00P3Uiw+/vh4/9nTs8NVvuKzItXpGr70X53n24jM/xV9f+IWkkCzJ5hALBBCvqcXwi69A/8FD9GJeLmPme//GP3/zGlItLfjmvgeIj4r/5gB57R2n9fqVCcijjj1SUsL7NTYikaDVpqkk/YAszTwCsoKyNMXMtJ3KwIxdpQCvsag0XLL8N+F6dcrNgrF+zS9I8gZ9ADh2mhVQLiJXrggQE5RJm/CxyO04ZudTPnAog9FTLckoUjWsqsl5h4UjjpI3NnSLvI4FZaEsYqYCJwWi03l28s/v6Kb0haFkvIQU48tsfJJthSwNPENbyD6aC482/QrYYrsv48zLxonrnLutfysw++NZGH3kodh+yEAka5NYkskgGQkjGE1g1OXjMGBIzxaeK+6tA+T17/ivky2eP28uRh5zhEh3+jU1ooZNPetlYSf1BIBVMsYqWdQKBpC78MeUh5mKWKba2OATjtcAMukNAjKpCwNYbIJpSKjeFZQNx1yuCJfMypagTLBVs3mlLpjckWHIaCaDtoYa1CXjiIYJvCpt0ypZeWStjvUnwVj2gVy4JMSz+jXyNjEZ0ipHHeTUR0MvOj6u3DT+xPPCUBYWjO2Fhvvo8cuFIrbY1gHyOjmp19KbfPLxLIw9+nBs1b9Vzqt3Z32MrQcNRCUaw9irxmPg0E1W+Z0dIK/yUm1cf0hAHnHU4YhHwhJtXiOyN/1qb+kJ5WQJyhyfJigrOJIv8wCZng8ELuGMqz7CAsimkqRUwXKzUk0WC2LKk8lUAZk+wgRm0hjZYlmafvTMkKEU04zj+DapBlIFtL7kV8mBTSk0pFRDLdsn26mVvtxNpc394sVEvDlMIKttEqo/BmfzaCWqcr4uFbLfD9lGOjE0c0VANk090SObKpmyOhrOHDZ8hOS7udv6twL06jnt2COwSUuzjEi/89EMbL/pUOQjMZx59QQMdoC8/h3UvrbFBOThRx4uDbH+zS2SPebXHxPMxNuiCyBHvYZbFZCNExr5ZNv4MjyybfpJpWwoDS8o1ISF0kuAOXQCsHLPS9MvU+DUH6TJRzqlIZ3GbnvtJRcMvsbMGTPwhzfeQDIaxKB+jeLfLBQHLx5CWVgunJWzrbaVI2eVLI09C7xm4KNqEUpqgiBt3eaMvM+YEtlUEUmhtooKo7bwLjgCzkWkGtK4ePKNrqnX1z4Aq7E9c2bPxtnHH4u2+jrUNjaibbMtkCgXUQiFcdSYsV626Kq8pKuQV2WVNsK/ocripGOPQrBSQv9+LTo6LV/t9au+aHlNU0/42BUqZJvU4VWXBnDl3zap2QCxArLlm8siByNdoZFHpjI20Ued2YyAcmeeGuUS9vneQTjwkB+IUdCXttvOBKkCixctwn/+/W/cf9cdiBXaUZsgHUGqQmkV3Q/VTncBZFFbUL7HatWYCcngX9X8Xiv96mSeZ71p+XAzkVhgpS/yNq2IPcUFq2PRJ1OH7FQW6/vHiyZZr73wHF586gnsd+gR2Pu/Dkb70qUyvJT+DHN7xyGv70d/HW0/v26/+fpruH3qdWhsqEfKeFlYzlUBWQGOHLLSF/SDoI2lSsWUg1VrSpGF+XyGrfwNFoyNq5o09yhZE3pCAVnvpCC0SpaqmeqLXB7DTzkNo884u8dVeeWF5/DC4w9JOohWv2zscVtV+la9wOhjVY+oN7J0xn3J2MIhy/YaysJLCvFJ4GylX6YOmby3ao/JiZNDFmMh8zvuZ7I+jcum3uwq5HV0Xq+tt+HAz4K5cyUJhkHAn/fmKuTPu3IbwfPeM+ZC9HRNJWurk3p2dNpPWdhq2WiElbLw8cY+nljVFaYiNlWlqC1ErUBA1q/6QlWQR7bAnOmUfxOUO0w00gknn46Tzjynx6NxzpiRKC6ZL7SGrZCVd9ZMQL3AqKez/NsHyDa1usobm8rYpGRb1Yid4Ksa2+t+a3XMBGo7mUdQ1mERq7umDvlyArIbDNkIPlGfvYsOkD97jTbav6Db2yVnnYoWVsjJpDfJZs2F7MQe5Vo6GGIqZNPUU58HC8pG9uYDZtvM0yramMIbOoP+wVXuWEGYBu+slumf3JlVGuCYk8bgpDPO6dFj4KLTTkbn/E+QEMrCxxWzGvZUFj0AsnDIpJKNmsKnstBqWQ2MLC2jgFy9EImHBRNDvGGQanVcFMqiiFSagOwm9TbaD9kKO+4A2Z0JPa7Au29Px8Vnnop+6YYugGxpC3LIbI51oS04VGHkZ0pZVJt5CrrGfMfKx0wUkg6KVJM3+BV/RUCmaoK/U36ZJu8l1Dc14bLrrsdO3/xWt/txxTmnY8nsGRI1ZdUYtqm3EiAbtUYsFhfKwlNZmBFwoTBk2MUkiJTpz0HJno5SexcV8w2AgEz5nZoJKV1h5W5FMwhDQL5iqvOycB9DXQEHyO5M6HEF3iEgnz4WrY2MSdcKmTpeWxnb5BDV9mqVHA1zSMOAWY+UhZGRGW5ZKlD6IJtKWbyErcxNlBWWQ854vDK/8lPFkC+VcOWNt2Kv764cFvrhe+/hjikTkVu6SNOy7cVDgFdtQ3UM3Hg6C4fM4FMFZLbxPC7cKi78HHKXi4sJRPVJ4EhXkG6x/LHQFaZaFh65WERduhFXuAQd9yk0K+AA2Z0KPQPy9Om48PST0dbUiIZUyuh4faPThnu1QyHS2KMWWADZJmp0NRjSr/fVu41IEq8IQ1ew2rSArPREV0BmOKqMHpsGIN3S9vjufivtxy2TrsUbv3pOdNRWQ20HQyyPbE2SvPFpoV/UJMmz3PTioNTj2WvqdWlSmuEXb0iEahEqRDR5WrwrvNQQHRMnONc1NuKqG1ghu4xJ91F0FbI7Bz5lBd6ePh0XnDYGA5qa0FBnAVltN+2gBcGLCRxWZRGVwRA/INtptmpV7OmRpUI2Sgxacnrj1UUx4pHKWIZDqjpkAnWBjnD8+m+c4qhS2G2fbgD5ugn48+uviErE0iy2wtfRaTNCbZt6dljEALJQFpS+CQhbLlkvMJ7OWpqR6mVRpSx0n8kfd2Y6BZCz3ri0pS3UTKlt0GD4JseDAAAgAElEQVRcNHGy80N2n0RHWbhz4NNXgCGn548dgwHNTUjX15kKWQHZApvablZHp8W+0gCyJEGLZ7AFNdPgswMiKwFyVaNMJYICsZG9MaVaEpup4dURawXkEi6ecgN2+87KgHz7lGvx59dfRkNdnU7hmeEQndirVvoyrWfNkgyd0R2HbJUjJYYEGge46ui01VJXw07p8SyNSGnsVc2T7Hg4AZmJITt89esuMcR9GB0gu3PgswH5nFNGY3ALAZlVpgaaeoBsxpGrjm/q/iaj0zSnt009D5Cro9OWtpAKuaJm9dbbgl4XBF6PqjDKCk8uJjwsLTqLEgV14aTrseu39+2yMx998D5uuOZKtC+Yi/pUypgJ6bSeGgwZtzrK38zAiHWxY/XvURYmhcTzr5BRcKNDFm111VCoXGaVH9AKulRCJp9DhzQic0Z7bKgKn9vbhS5Tz30MfSvgOGR3Onwqh3zeqWPQvzFtvvZbu00bbGp9JNRYyEY80QvW45CNW5qd0PPzxwJyhk+WFBGRkSk4s4r0qyxYFWtSM8FNbTrFjKhYxjnXXCd+EFR32NsrLz6P6y65AEMH9heFiIKwNvCUrqCPs07qaVOP+2BNhgjIBFZ1e7P0hEb1qaKCFTIBuFxSKkOHX4rqEGcBOUe3ugw6slnhxFVhUa3u+fhiB8juE+gA2Z0Dq7ICVAI8fN/d+P0rL6GpocGkS1dd1qQyNgoL/cqvbmqhLuZCdpjCDoJ0bepVAVmd3+xdK+Ssft3PGt64qBFIOulGMCYolySXbtzt9yLd1Ozt1qsvvYApV1yMgW2tSNbWqHeF5YyNHtmriLsD5CDB2Di++bwsrOWm8sa2WraVPwGZQE3DejrOaYXcns2I0sK7iBi1BdOnL7luqkudXpWTcSP5G1chbyQH+vPu5hOPPIyXfvakpIaIMsEbrjC2m+brvjc+7QGy9XvwA/LKlIUCMhM51LTe+lwQcDtzGeTMAEipUDRKBfVKZliognIJNckUpj70OJr6tepuVir49Usv4JbxV6G1uVF8LqyZkLq5qYGQyN7sBUVke7byZzagAWRp4K0wGMKqGJYP99EXvmafAnLWAHJWLiq2OiYQW5P6Sydd7wD5856cG+DzHCBvgAe1N3fp8Ycfwks/fxLN6XTPgGyMhSR5mvwrU5upmBA/CwPIVo3gZewZX2EDYkUmT0sQqgIzvTRoJETwLRaoOS7KgAUfi6+wVS0Ui0jUpjB52mMeIC+cPx/jL70AH7//nqSdxONxj/v2ANmz7bQaZFqIGlrD8ODi5kbO2FAVhOFySROmlbIwQO1r8NEzw1bROl3YiXYZZjEVssQ3Gd/nYhGXTroBW2/75d48ZO611uMVcIC8Hh+8dbHpjz08Db/6+dM9ALJWzOoxrIMhrETDQZtx50ti9kvFuoxPW9N3TaVm1p7+NEnUhaKAsJe0Yapj1fFqlRyvTWHStEc9QJ7zyWxcdOrJKHQuF7me51lh+WOvKq4CcJfqPxKVOCXrYSGeHByhtpN65h9+QNZ8PQ63yHw1SpUyMuSPM8ohU74nlT0d4GxcVbGIywjI222/Lg6le4/1YAUcIK8HB+mL3MTHHiIgP4WWxkYzIu37qm84ZAHkSEg52khY0juqYOWjLHwNPk7jEeggxaZOuWmSiKUtWBFrI4x3rYwNVSF2lvSJ0Io5nkzhugeqgEwg/c0rL+H+m6YgWVPrTeTRnc5TWXRRi2jWnq2eWeUzEkqd3swFQyb1bIaeCT81k3r0SWaDT8aoRYGhKgty4NLUE5c6O7GnzUjSFpTsKSC7CvmLPMf70ns7QO5LR6MPbsujDyogM8bJyt7UlL4aciqAbFKdNXxUp9yqHsf2MdM2qhN8BE4BMOGQCcRKWWiFrKoKqzsmZWHTmot5o0fOqadwvDbZBZC5jG++9mvcNWUi6mprvFQQBV1LUVhzfW1GCq9sYqH4NwgGNRXb7Ac11bx6KB2h5bKoLAwAWyqD+6K8uAFk479BUJbGnqmQCcpf3XU3HDvqVKQbG/vgkXeb9EWsgAPkL2LV16P3/PG0B/CrZ55Ca3OToSdWADI29egxbABZUpuNMY98hfdxqkoBdAVklb5xatoCMqtl8sjV8WICsY1DospCgNmntiAgX3v/j6tNPQBvvPoK7p4yUW1Djc2myt58yhDb3BM+WR3fRC3CsNEALypm2MMbndaJPe4DRN5GQDYTfMZgiPsolEWZlEUW7eJQx+YeR6hZ8RvKoljEcaNPxb4HHbIenQ1uU9f2CjhAXtsrvJ6//o+mPYCXuwFkBTDV7kYiIU11Fg45jEgoLJXlSoDsNcKqX/2Vb9UKWdzeTIVMsyEFL+WJq5SFcsdyL+RRzBcR/VRAToImSFaHbLlimwfoV1mIJ7LJBaSmuUpZsDlZ4hC1xlD53N6IvxDKRf8bL0AWkIWyMIDcTkDOZrsoLY4bcyr2O+j76/kZ4ja/N1fAAXJvruYG+FqPPHA/Xn7mabS1dK2QBdjCJthUKmQDyKyQw2YwRJKa9St+F/8HoSp8HhcmdVqrZNPUo9LCUBZsgvGxUhYFFETTmzeqiyJiBOQf/giNVvbmq5CtS511dqs60xF8qZvm9J4JSzUhp5EwKQuGjCiHLBcXC8hdzIV0v6yyQryRLSCXyujMdaIjo8MhnRn1cRbTeqOhHnbyaQ6QN8DPzJrskgPkNVm9jeC5Tz3+GF786U/QWJfsQll4qgSCMStjA87kYUMGkDl591mArJ7J2gRTgx7lkFkhC03BSrho5G5WYWEqZJXBFfG9Y4bj+8ePFK7Y3t549WXcPeVatQ01WYA2oVr4b9PUU5WIxk8Jvyz7Qk/noICwNh2NfM809XSbqxca9bWwEjitkDnSLVSFgLFSFvy3pocUkS8VMdwB8kbwCVq9XXSAvHrrtdH9Nau6H999G9795z+6NPWqgGxkbx4w2wq5a/XoZdP5tLva9OtqxWlHp0WLbCkLKhKMXSUrY9pvquF7HsVCCadeORFf2/PbXY7N7wwg1wsgG3N663ts1CFV7wqlWngxkdFqWoiSQ7act+G9RYfsVfs6Iq0VshlsEWmfyt4IyB5lIdN6aiFqG3u5QknyAPc/+Acb3TnldrjnFXCA7M6OT10BVocP33Ezpv/1Lz2rLFgdm/DQSDikTT1Sq36wFRtL4/rmH6qwTT0a8xgtr9UjFzkazYqSP01SswAyG3uMR8oXRI0xloC8x8qAfA8rZNEhW7tQvweHMdr3xr8NH24BuaJaaqEqbFPP7IMOhnQHyNrgqwIyKQsNZ1VApmOd+iBTZTH8lNOx/yEOkN1HsLoCDpDd2bAGgGxALEzagndt7oXDmtjsV1UQ1DhdYSf3+N80c68qE7NJ1N6AiJG+USomkUdWWWGbeiY1ZOyVE/DVFQD5t6++jHsnT0R9fV0VkI1tqA6x+MHZGAsZ+iLMoFaQB18BkK23hahHPrtCFqc3NvV8gMykbDs2PXzsGTjAAbL7BPpWwAGyOx1WH5BFTVFt4vErPu9hI3+LhIPqBWEAWDhi4WGtHtn6I1vjd2O9yQgn09SzHLIoLbwKWStjazAkY9XFEk7pDpB//SuwQm4QQFbbTdVPV6VvlrKwk4akLMgnE5ADUJUFOQheS6gYYdnPCTyRtlUCckGp0i46HCKhqCVLWWSQ6dQcQFshSzhrPo9gOIIRp52JvfZdOXrKnZIb7wo4QN54j/0q7bmfsrAKBQKWNPIi2gizOmStkLVapp+FKitM5JEHyloVW3DmQAUn4AhitkIWpUVRm3sqe7OUhaorLIfMSlMA+YqJ+Ooee3fZn9+uBMjGA9maIYkFp2nimdFv5ZCpo47omLTQD1WVxcqAXLXflPFqFSmDQyTc9ky2Q1QW0tQzlAXVFtRQ77TLrjj9osvkIuFubgXsCjhAdufCZ1bI998yFe/8/e+eM5oFY6tQsBWyBWYqFkIh9YJQ/tUoKYxaoXtAtv7CtkrWMWrRGlsPYZnQU0BmlUwJ3KcBMlUWTDqpNvWUqvD8kO1giOG/dVIvgpDRUQdIS0iVrCZDXgq13S9qj7199AOy+jp3ZjsFjGlQb7lkPs7m8/jGHnvizIuvcGefW4EuK+AA2Z0QnwnIN0+8GjPemY6EuKZpdWxNheSxfNUPC3csVbMZn6bkzR8K2mVqzzb2SvIdX/+uS1NPAdnabKrKgpNuK1TIpRJOZoW8e9cK+Tev/Ar3TL3Wy9OT0WibFOI3F7L7Igb1ul/hYNhk6XHb1JtC0k/kn8qD63i0+lywKi6abwP8Jf+GTbueAJk+yd/YYy+cdYkDZPfx67oCDpDdGfGZgPzjaffjb799FZFgwFAVFoDNyLFt6lFhITSGTvHxptIw9QyWu1VeeI/ZKbOucFUOWVzfxL+C/g9FFEW/m1P+2MjerEHPKVdMwM7dAfKUiWhMN3hNPRvdZJ3prF2oXFxEh2ztQ43kTTuTHsXCSrmaHlI1TRLZm+xDBQHrfVEqmfgmHQpRxzeboJ3D1/fcC2c7QHafvhVWwAGyOyU+cwUymU5MufRCdC5d7ANkBWOqKih10+EQ/qTrmzbOVgRkBS6jPfYafNUYJ+WQreubcsjSxDM65AIrZAvIMsWnjmkndwvIL+EeAeR0DyoLvzmSSc42gMyxaXsBkUrYSOBUYqwVsCRk+y40yiFXAVn9nOmHrJl6FpCVS85KhXz2pVd+5tq7P9i4VsAB8sZ1vD/X3mY6O3HFWaehks+q14ORh2lFqdWyX2URj2kQqigVzHCF2lLq132Z4PNpkW2Mk+TVGT8LUVmUigLABDePsmClTC5ZTIZKKJCyuHz8yhXyyy/h7qkTJelEOGTK3ExCiG3m2Rw9O6knKoxwBMwE9BqStrKX6tjYcZpJPS9JxGtcqoRPKYu8VMQEYg+Qszl5TKD+xu574pzLrvpcx8M9acNdAQfIG+6x7bU96+zowFmjTkRtOIBErMojU22xIigLhxyLiqFPUCpNvx9y1YbT++ovDT+au2vmXlX2ptWveFj4K2RyyTnT3CMgs0LuBpBff1kr5KbGroBM8BVfZC/CSVUh1lgoTEAGm3jVhp0MgXCM2kzqaVOSbAYvMnR8M4518ks+ryQXDE45WkBmVUwNsgAyOWQHyL12fm5IL+QAeUM6mmtpXwiAD9xzJ9750x/EUMhTWYjBkOWTtUomF0swjsdintKiqkfuCsjiWSFf87Whx+rZD8g2fVrsN2VSz9hXio0lKQutkMdctnKFrIA8AU2NpCyqFbKa0BsLTvm9AWRjUE9AFh7Y0CvKGyt3XGGrz9hvqpeFNvSscb315eDvcznDGee0KqZBPYGYoBwIR3D0iFHYz1lvrqUzdv19WQfI6++xW6dbPmvGR5h86QVIiJpCzXiswiJsfCCswRApgXicAxYR45imlpVeiog/DFRijwjEqlnuDpBlhFpc3hSQ6fZmbTkLpTJGX3bNSpTFay+/KBVyc2NjFw65GnJqHN78nsiRqAyFKH9s9dPChOtknhkKkaHDFSKpFJh1UETy/3JKVfjBOGtAuaGlBdfeejeSqdQ6PYbuzfr+CjhA7vvHqE9s4YcfvI9x552JplTSJ3vTqTbrIaxf/bVCtlNwfkMePyBXjXm0yafVsgKadXujN7Ka09vR6RyK3tg0qQytkEezQt5try7rJIA8eSKam7RCriaFGPmbPz1bJG/aiOT+WAMhBV1hKrQKNjSFJIYIfaE+yCY+xFxUKigUaLVpKmIDyvbfrJIbWvph8u0E5Lo+cWzdRvSdFXCA3HeORZ/ekvnz5uLuG6Zi0ewZHiDzqz+rYOWRWTlr1cmmHnlaAqEHyKa6FNA1VpUeKNskaqtF9vkidwfIorSQ6b2iAPKo7gD5Vy9KYkhLk1bIYrnJC4XnYeFv8lVpDJrrU1OszUj139CK2S95Mw1Kn7JCK3zLHysgi7KCdAVpi1xeHlOqt/t398OJY09HPJ7o08fcbdy6XwEHyOt+zdfbd/zNyy/isXvvRG0iYZKmowgb/+CYGRhhlWmbeqQuAgF+vTfqCp/7mx+UbQadgrU29oRTpuyNwOuvkNnkE6WFxjqxSh512TXYacUKWQB5gmYBxhi+qqPS/qQQXjB0kKWaPh0KhfT9PVmeUhaaEqKNvOpIeNVuU6tq3XaORrOJRzWFArI28wjMzOqbeOtdGDR0k/X2PHAbvvZWwAHy2lvbDe6VX3r2F3jsnjtlHJnjx3Z0mlWy0hWsjrWhJzxyLGJMhqx21/LIqjf2V8gS4WTSpy0YE+Csj4WMT+dzqroQo3o1eq8EgjjpknHYYZfdu6z3q796QTjkfpZD9k/q2ZBW45NspXzc/qDx4PDoFUFhVVmsDMhVmZufbqG6otNwyJmsqi0ElHM5hGMJTLj5NgwcMnSDOz/cDq35CjhAXvM13Ghe4S9//CN+fM/tKOcyPkBWOsACMsEtQUA20jcxGTJaXj+HXOWMmcqhvLF/fFor6BUAuaAcsmqSGYJaxJ4H/TcOPmE0Ir60EB4QAeTJE6VC9vyQJTnE54NMCsMH1NQghwIBT/KmTm5VukKbduS6TbApFSKepWi1oWerY/GtsCqLXF4eHzt6rFhuhsI6yehubgX8K+AA2Z0Pq7wC5EgfuP1G/P2N3wnIka7QkFMrhVMw1iqZ1EUMkRDTm1cYm+7SxOsGkG2Dj5SFUViowRBDTS0gq8n7vkcMw/eGjVhpH159iRUyKYsmMxBCTlstOHUwpPpv63Gh0U06zKJezgwu9cndjF+FVWBIWra14xSXN3o2F1R/nFMwFrlbNi90BR+fcv5F2Hu/A1Z5zd0fblwr4AB54zrea7S3BORbJk3E23/5I2pryCObPDrjIUxgs5QFAZngTLCuysQMTeGjK1gZi5eFAWGPPzagzWq4WFKVhUztGcqiyOSNUhHfPXIYvndc94B89+QJaG1u8lXIbDoqnSKVciwuNAuBWke/q4Bsq3lRVBiZm8jejLSNemRNlxZi2dAvJUkxyXBcmoBs9McCxpTqFUsYe8HF2HOffdfoOLgnb7gr4AB5wz22vb5nBORJ467Cf/7xZ6SSNYZDVjtLT4Mci6FGFBYKzur3a+KbzLCFbd5ZiRsB2VIWKwJyiU29bgBZeGRWyEcOw4GfCshVykKAtztAtub11CB7hkiskI2x0ArRUxrTZLTInv7YNPRyeU9d4UnfjMJil72/g5FnnIWamtpePzbuBTeMFXCAvGEcx3WyFwTkX/z8p3jppz9BsFwy5kJVukLoAAKyaeyxSmYFGgiqWY8XEGpkbmokZCkLZuqx4qwqLGTIwqeyEMpC7hyf1qr5u0cPw4HHdlMhv/i8qCy0QuZ2kNe2gKxVsv7eyN94UaEPMgHZp7KQkW4/MBs/C/F6NsoK9X0m310SmkLoClFYGHWFUV3se/APMPL0s9bJsXJvsn6ugAPk9fO4fWFbTbC6/OzTsGzBXE1o9ryRlZ+NU4ccj3lcMn9H5UIX603/AAjBrMTkDQJx1RPZyt+84RA6u1FlYThlK3sjZdEdIHN0WnTI6XqPsvAA2ahApNnnm9QjIPsnCv3GSHZIxJvgkyYk5Xy8oKh6JFsoICvVsI5N+/XHuXwB+//3YRgx9vQv7Ni5N+77K+AAue8foz61hQTWc8aMRH7pYjNwUTWs16EQgjHpirjX2AszPURmLGxVWR2R1kpTvY89QBY+2RgNidZYq2EFZLq86QQff/YEyO3Ll+Px++7AP//4ZlVnbCpkleVFRJ/sqSwYO8W0bC9eSn02qlyyf1BEc/PY0Kt6OZclCUR0x8Zik+BMu03+rG9uxqUTp2DA4MF96ni6jelbK+AAuW8djz6/NQTk26ZOxvQ//96b0NMcPVVVsOr0lBamUg6L0kKHKKTCNFRFlUMuCyBXzFCISuLoh6y/XxmQFYyL+RL2Oeq4bitkLuST0+7Bb59/VitkS1HIz4RO7RlzIa2SmQMY6mILakNMq5pk6d+ZC4utjBlsWhFnugwBOaOA7CksDEj3GzgQ1956F2pqHX/c50/yL3ADHSB/gYu/vr717JkzcPX5ZyEWqiaIWDtLVpwJH2XBapSALY4P/sQQP20hdEURFaaElNSY3g6HFI30rWuF/NmA/M7/vYVpt16PzOJFXqaeB8KU5onKgmnU1aBTArK/IhZANlW9HY22+yC8smTqcWCkLBcIKimEpiAgW2OhfA6BUATDRo/FXvvtL+Pl7uZWoKcVcIDszo3VXoHZs2bi4tNPRipu7CtNhUzumCCnlIX5aXL4xKBHEpGqE3qekRBpC6ZMC21hAVkpDDb5qvabNKuvUhbFfBH7HNVzU++uyRPQ1mxUFlHVRwtNEYsLZeFxyMZGNGCTskXO1nU7qUe2sjdt4hk3OJOazUEVsdc0zbwM7TeN/jhem8SUex5AQzq92mvtnrBxrYAD5I3rePfK3i6YPw/XX3MVls2dLV/1maOngxZVykKr5DjicaZwhGXggrcunKxvQISAXC4WBICZp0dg9gCZHDJlbl5Tz7jAfRogv/Q8BJBlUs80HKk7jpPb1so4FuXParipHQqRC4UHyFUuWekKSviUprBJJ3R8oyF9u4+qsIMgrJpjtbW48b5paEg39sr6uxfZcFfAAfKGe2zX2p4RjP70+zdw3w2TQFMhoSvMCHJNnJVoTIBYG3s6GRcM0g/CGtRXm2WqPy6hLNWxoSyKJaO8MBUylRXdADJpAuqQD+hO9sZJvcnjzeg0x6XjiMXjhjtmhcxkEzUdsmnTdELSC4aCsN8SVPLzrCm9oTHskAjBW8eltYFnHd5YJXNKb6/9DsSIU89APOHc3dbaSbmBvLAD5A3kQK7r3fjjG7/DHZPGI5lgpJMGhnoNPalCdTAkQRCMRjU9xDOp96kXjIdFla5QykIqZmNcr/pj8sbGoN6nstjrB0fge8NOEhtQ/42j0/dOHm/sN1WDrM08pVX8gGxjqPwVvFbIRoonY9G8SNiIJtUda8hpGcVS2cvKI3dMULbubgTn88aNxzd333NdHyL3fuvhCjhAXg8PWl/Y5Dd/+zpunXA1GuqSQlvo2LTytFRZkLKwAO15WphMOs+0R6gB08Dz+GPDIUuDT+VvCsZ5oQWUQza8crGISDyB48+/HNt+dZcuy/Ka9bJoTBvemJK8hDxW2VtYHluFBcemxbXC+DULIJuIKTU9osytBIi4Qht5dtiFlXpHLqOcMd3djG+FNvjyOP/q8fjWHl0N9PvCMXTb0PdWwAFy3zsm68UWvf/ee7jz+klYNm+OGZE2GmRLWZgKOR6PCziHOQVnsup0yMKCn9ITqqxgY09pC6ZOW0Dm+DQjm5g2LY8phaPsjY3AchknXjQOX9l1hcQQcXtTP2SpjjkyzYuEUBeWP1aFhSaFUGGhjTu/V7PN/RM1hQVjz2QIIs3jQEiGgJxRi82cqC20qTdky61wytnnY5PNt1gvjqvbyC92BRwgf7Hrv16/+7Q7b8Xrzz+L2gS5WTXrqQ6FkK6IIpFImMDTkNfUs9IxGUu2lAVlbx6HrMBsdcnqfczKWAG5kDeATACvlDHionHYvhtAvnfyhCplITl/1CNbQCYox002YLh6wfCqdlVZkDeWRiPVFJL/xwsJm3raoKS5kFTEeU7nEYjNpJ5UyXkcccIIHD7shPX6OLuNX3cr4AB53a31BvdOd918I3734rOop9EQ9ceGnxUgZmVM6kIAmRyyAWSdDtEcPUML6KRetVIWLbKpkAnKfkDm4xIBuWgq5B4A+Te/YsjpBDQ3pj3DfKmQzTaqLzLd3kLCgWu4qc30q2b8Wb8KO7VHcFZ1hfLHhUIZmbymgZAvZnVs+eMSAjhh7OkuXXqDO/PX3g45QF57a7vBv/Lzv/wFnnn0IVTyOY87phZZNMiUvcVjqIlrIy0UDiHAqlK9LH1jyaqy8Cb1zONuK+Q8g01Vh0xQLn5KhbwSIBtJngyHEIjlJ3XUCsgyNm1oFL+6Qg2P7Mi3UiRV4/oKcjIQYqw2LVVhlBatgwdjwk13uOm8Df6T0Hs76AC599Zyo3slVrnXXnoRPvr3/4nDmwyFJMgZ2+pYH0uFHAyCSmQOh5RMhWybZZ6XhWnwda2QVXOsoaZMDFEJHEeVOcXHRtuJF4/DDt/qyiEz/+9eVshpkzpt1RXCJytVQdVFhIAc1oBWaeqJwRGVE6ry0Gk8K4UrSQAqLyhKWVTUvyKX9ZQV1lyIoab9hw7FdbfeDfLo7uZWYFVWwAHyqqyS+5seV+CK887G7P+8g1rTvNPKWIFYNMkGkKlD9m5iNGQ0yT4jITsurYCsXhZs+FnKwjb1yCFXAbmMEy++qgsgz587B5efdRraF84zTT0281T1UaUsGG5KyV5IwJj3IHXIJQK9H5CrE3vSbCRgGytR4Y/JHUs6iDUWUoAulMrY/mtfx3mXXy1qDndzK7AqK+AAeVVWyf1Njytw503X4y+vvyLNvBqhKlRVoYBMLplSs4gY98jNlMlKD2jjzo5Qkyqoqi2MHtnHIfsBmX8nFXK5jBNWAOSPZ8zAyccchnRNHM1NjUYFUuWP1cOiCsi03aTKwk7qyeua19bGolbIKw6KEHRz0tBjkKlNl9ZA0/qmZlx/zwNI1NS4s8etwCqvgAPkVV4q94fdrcCc2bNx2RmnoCYU8HhjBeO4oS8SovklZcEbKQt9YADZ0/0aC04LfDI+rSAoGmTec0pZiNztMwD5FAJybQJN0tSjuoKytzjixkRf3em0mcd7JBySgFMxxbdudAaMCfrW8Eh004YDp/wumyd/TNlbVerGqb2Gln647aFHvWamO3vcCqzKCjhAXpVVcn/T4wosXLAAV557JgLZDqEoWClXAZmURQ3i0bCY1K9QIqtZj8nXUzqAFa+JczKOb6QmCMgF6nuFQzbqCgvIpTJOuIQccnUS7uOZMzD2mMPRUBPvAsgyEGLvZpglFEeXYKYAACAASURBVKJ1aAi0COU0oZ0OFMrE57XBqlkvEGpKz6o5V1RD+myu4CkrrMvbkC22wKTb73GA7D47q7UCDpBXa7ncH6+4AqQe3n7rH7hj4jjEI2FDW8RQm1D+mJQFBy+qlIWxffMZDYkEbgVAhqlSWQ2zmZfjlF6Oo9MrAHKljBMu6grIs2bOwOnHHo76mgSa0g3KHQuHrLabUcrfJC07inA46FXJYeO3IXQFK3QDyFqNV2kLgjGbe0wBYWWsOuQcOqlDzmbkdxdPmIyvfWtXd8K4FVitFXCAvFrL5f64uxX49/T/w9TLL0Q9FRbM1KPcLUGnN23uiZeFv6nnsRZGQubL0lPPiCpFUAXkHAo59bRg1exRFt0AMv2aTzvuCNSxQhaVRVQA2Bodado0XeoIyEpXEJitQb1wxjI9qKPdltvWMW+lNAqlkhkCyRmlRU7M6Ttpv5nL4arrb8GOX/u6O2HcCqzWCjhAXq3lcn/c3Qq8+87bmHTphaiLhpCsSRj9cbW5J25vgSDN1Kq0BaVvxjtCK2QT2+QBslIYBGQ28+hjIV4W+YJRQljZ28oVMgH5dAPIjT0AciRCqoITekzMDhrKQhuPHgBbDtkHzsIxFzkunQOlbaQrdCiEjT1t6O2x3/449qQxSDc2uRPGrcBqrYAD5NVaLvfH3a0Aq9YnH5mG3z73P0inUqKukKZePCGBp3RTCwapYvA9W7p7mkTNiTdSFqpLtkoL5ZMtILM6lvHpFQCZPDQpi+19HDIB+YxhR6IuEUdjukGHQLpUyLTdJBjTq5lgrCoLZv9xIxWQtXGod5MBKNUyq2Njt8lGXj6PHNNB7Mh0voDRZ52L/Q/+gTtZ3Aqs9go4QF7tJXNP6G4FHn/oAbz09OPo35wWY3oFZJW/cayaCgbVvPlvBGMLyDqS3LU6JZfLoZAcCtk8cqQrCrZC5qSeUh6UvW3vGwwhIJ91/FFIxmNIpxtUZeEDZD6WCjmspkJCWUhTTy8aFoBVk+ynLAxdUSygI5NFZ64gKgv1ryCHnEW2UMSYc87HgYc4QHaflNVfAQfIq79m7hndrMC7b0/HY/fcjtyieUgkapRHNpN7BMDqYEhXUK7aWBqjeluNmgqVAEzKgpWx2m8aKsOAJQH5y7vsjqPOuACJZEq2TAB5+FFIxgwgSzqICWGVDD1WxqQqWBkrXSHyt1AQATb2bBPPgLEFZat7ZhOPadJKWdDhzRgKZXJoGTAA5181AZtu4dzd3Adl9VfAAfLqr5l7Rg8rcPt14zHr//6GVCIhpkLa4IsjEo3I0AWHp22UE1+CvhbW30JSQ3xTe6p0oKJCgdgCsk7wqQpCKI1yGfFkEuff8kM0NPeTinv6P/6Oq84ci1RNDOl6qiw4Lm2m9CJKV8idQByyo9P6WJJNymUURGVRrY7ZxBNNNNOlswRkVsgGkH1DIdt8ZUeMm3ITItGoO0/cCqz2CjhAXu0lc0/oaQWmjLscs/71d7Sk61AjtIWqLeg5TCAmJJMTsDUym3ryf7qsmUGRrtN65JALMhDC8WnxsCiRqlBALpohDT8g8+/OOWk4Ppj+Flqbm5CurzeyNwvImvGn1TFB2D4OIhxUQKalJ5UcNjGEfDLfk3eaCQkYZ62rm3ogE6SD4TAOOuIoHHn8CJcu7T4mn2sFHCB/rmVzT+puBV554Xk8ed8d6N+QRK2pkPnThpwKKFcCVSqZYBwQWPbSqD2ZmVTCBTWkz9FYSFNDPA8LAqQB5EQyifNMhVzI5zHm6MMwf+aHaG1uRkN9nQByPKI6ZE7oWUBWuVtIKmW60XGaMBzUqCkBfpsawsfGzKjD2GsKZWFSpVWDnEP/IUNw8/2P+IZg3HniVmD1VsAB8uqtl/vrT1mBpYsX4/xRJ6AtlUBDssbjkD1AVtJCX8ErkysgRsvUnm3qCRgbgyHK3gSQabtpK2RVZQhglstYEZDpYzF/xkdSIdfXGUDmYEi02sxTUA4KOLOZJzxyKGjAVCtkO6lnVRf5QhHtJpapQzTH5JHVC5mPt9zuy5h0290OkN2n5HOvgAPkz7107okrrsDiRYtw8rFHYEg6ibbGtPDHpC3I1xKB9X9qw8kbgdg8EsqCwaGicCAgFwuGQy5q4rRUyCsCsk7TsZnnr5DpYzF/5gxxelNAjiAulpsRRE0zj9WxSt8sGGuFrJ4bFQPIBOWqbwZVHu0Z8sd5bepRaZE31EU2K8MgO3/jm114cneWuBVYnRVwgLw6q+X+9lNXINPZiYfuvRvT33wdgxrrlLYgIIuTmqmOLW3RBZR1SERTREoo0YCeySDeYIjK3QpFNRYS858yK2R6FldWAuSxxxKQZ6JfYz3qUnWIx3RakA5vkbDlkEOIGsrCVsihABUX5LkpfetqYMT3ZRNvOSkLAeUc2ilzM9UxK+Ub752GL233ZXeWuBX43CvgAPlzL517YncrMHfOJxh3xskY3JBCfbJWKmQ2zqQuJihzhFoq42prTwZEyCcLJ1ySNBAPEIWyIHfMCllTQlR+Rg65e0A+9djDpUJuaUyjLpmUcNN41PLHVFWQR1bu2DMWIn9MLplG+gLIZjxb3qckVTr5YwFiVsiZrGnuaUMvEIlg8h33Ysutv+RODLcCn3sFHCB/7qVzT+xuBRbMn49rzjsTDYEi+qXrhUcWQPYm9ewItQKy0hY6HOJN6gldofSFqixUf8wKmVl6QmtUWCETwFeukOljsWDmDMnTS9bUiKeGVMhs6DEhxCgrRGkhGuQqGLOpJ4Bs+WyCcakoWXntpjpeblQW7dksyCXnS0WcfPb5+O73Dpamobu5Ffi8K+AA+fOunHtetytAhcJzP3sKLz/xCDZpbRb5mwIygY7VsdEiWzfOSkCSnCsBA8gCxEWUjf2lDoZYQNa0aaE1BJA1m29FDpk+FgtmzURTQz2StbWeH7IAsuGOo6FoFYzZ3Auq/SYrZNEiGxWH+jGTrsihQwZCiliezUh13N6ZBb2Pc+UyLr7mOuy217fdWeFWYI1WwAHyGi2fe3J3K/C/P3sKP/vh3fjy0IFIJmqqHLJQFrybZwWBSkkjRKiykPBT8R1W/paPCYbiYSG2m6ZCFq65iKKkRBOQKXu7XwZDKHujj8WCWTPQSECuISBHEI0w0JQqC62Qrcubjk2rBllkbwLKZjjEeFqI33FeeWPSFsv5M5MVDpnubptsuTUuHDcBAwYNdieEW4E1WgEHyGu0fO7J3a3Ac794Bo/eeQt2GDoQ6dpalZUFgqiwOhZAtohsnm3z9UyYKMFYo5MIyBpwaikLTQshZVFCsWIpixUB+Sgs+lgBWVOvzbh0hMCsOmRp6AldUQVk0hWs5NUXWQdBKH8TnTEpC9Ee5wSQBZQ7CcgZ7PadfXHBVeOdGb37OKzxCjhAXuMldC+w4grksllMu/0mzPrHnzGkqRFRQ1lIaRw0wjfT07ORTkJbMM3ZNvZEh2wqZKuuoNLCurBxms4Ccm0K592qo9PUK5857CgsmjVTAFn8mFkZR8NSIVP2FvWCTbWxJ8BsJG+sjgWQabNJ/pjqClMZU4NMULYKC1bI5JH33GdfXDRuogNk91FY4xVwgLzGS+heoLsVuOfGqZj+xmv40qD+iIfDKnsjh2y4ZCEqfH6cBGOhLGyVbDwrpEIWT4uiSt/E78LEK9G2k14WNUmcd5uhLAp5nDPsaCycPRPpunrPlJ7NNq2O+VPHpj1zoYBWyQrG/CmRf1Kh0/dY1RWskLVKFv44kxHKIpluxJizzsPue3175crfnRpuBVZzBRwgr+aCuT9ftRW4feok/OP1l7Hd0EGoi8WMykItONX5LSAKi4qRvxGQA8IJG7N6M60nAyFGj6w6ZDOsIY09CN8crkniwtsekGBRVsjnDD8aiz/5BA30sQgGdWRaJvOostAKWcyFyBvzsdEfE5D1HkSgUpFqnH7HHfk82jMEY1bEfJyRx8szWWzxpW1x4z0PuOm8VTst3F99xgo4QHanyFpZgVsmTcQfX34BX9l0MPrVpRAIcDhEFRZ6J6dsOWSOThNdNbdOTOrFZpOqCgVkUgcWkEWrLI29MvKlEoZusz1GXnYNkvUN0tQ76/ijsXTOLDSk6oSuYGXMKT0LyNLYMzpkMReSpl4QHAwJhRSUeZ3ge7IaruqPlbIgEAtdkcliv0N+gLMuusxN562Vs2jje1EHyBvfMV8ne3zLlOvw+rP/gx03GYLBzY0iKQPd3kyFTFC2lAWr0WpyiLHh9FXI2lwrCnUh03sWkIVSKODES6/GV3bbW/aL//3hu27D6888jRrRHtPDYgVAFumb4Y+DKnnToRCtjgnKvFbkCkpRUH9MvXF7lpUxf5cxoJzDfY89hSGbbrZO1tS9yYa/Ag6QN/xj/IXsoQSfXnkJWqJBbNHWKhUpAVkGqGkE72nfdPOUO9Zw0bJokTUZRP0rTIVs0zvYcCsRoJlnV8DIy8djx90VkHmbM2sGrj51NMKVklTIairEOxNCwohJU8/I3wKGN5bGXhWQOcrN0NJ2yt2osJBx6SyWmZHpjkxGfCzue+xpB8hfyBm2Yb6pA+QN87h+4XvV0d6O88eciFg+gy8N7I/aWEypCnoOh0JiuUlzer1RYcEquStdIYBM7bHlkG2+Xbkk1XI2n5f4pJOumICd96gOZcz9eBauPmUkIqiY+CZWyDExyreyN8+c3qgrBIxNY4+MBblqkbrlsl6FTKmb8MgS35QTOd7dj7oK+Qs/2TagDXCAvAEdzL60KwTks0cPR6ijHdsOGoB0bY1UxQTjQFjHi9nEo5xB/ZAZ4VTN1KtYlYWlLqiyMFI0gqWCcQ6d+QJOvnIidt7zO74KeSYuH30ikqEgEgnK3iKISNCpVVnoxJ6khViqIqCAHBTlRxm02rT8MSkLgrDqjzmdl5P3zxdLuOvRn2DIJo6y6Evn3vq8LQ6Q1+ej14e3vb19Oc44cRjQsRzbDh6A1voUgmyahSMISrwRDSM0aVqCTkWDbBQWMhiifDEba6QnGJ2khkKa2kEwlsTnUlkB2UdZfDJrJi4dfSLS4QBqEgkJWZW7bfCJ7C2MqDGmF8kbYIJYdWowSzMhNvT4U/TGnNBT3TH/Gyt0gvYdP37CAXIfPg/Xt01zgLy+HbH1ZHvbly/HqcOPQbl9mWiRBzc2aOMsGkMollCiopBHpURAVnWF0BYmV89yyaQFKD8TuRvKKkXLkTtWQP7mfv+Fw08+AzUm4JSvS6XFy8/8FC8/+iBqojH1QTbmQvypk3omwskkT4eo8qDBkcRJlZGhoxu9Kyh7y9jpvCwy4q2hgEx/5Dt+9BMM3mTT9eSouM3s6yvgALmvH6H1dPsymQxuum4Cpv/hDWzS0ohNW9KIRyIIReMI16bEZKic6ZQRaa2QyR9XZW/iZ1FQ2RulbbTaLFUq8liTOjTp+YDjTsQPRpy80ir99bev4dEbJyEV10w/6o5ZIQttYe+itogixMEVXhCKBQFjNhfJEWs6SEF5ZGnw5ZGTypjj3Kr6uO3hxx0gr6fnaF/cbAfIffGobCDbNH/uXFwydiSaImFsNaAfEuGw0BXRVIP8LLYvBwoFBWSjoCAwq7GQmcyzFXKljEK5gqw4rykYE5gPPG4EDj1pZUD+42uv4NEbr0Mz/ZA9uoJp03Y4xOiSaQ8aDqPMvL58VmgTqjokCcRYbormOFcQGZwAsr0XirjlocccIG8g52tf2A0HyH3hKGyg27BowQKcO+p4pMMhbNW/H+rjUUlmjiTrEErUoNTZiUouK3tPqoL0hSotNMKJDm86GKLObrlSBZk8ATmLTC4ryR3/NWwkDht1ykor+MYrv8KPb5iAgek0YkJbaHWsQyJRAeEwx6gTCQRCIZRyGRSzGRlOyZcK6MwVlK5ghUzeuFBElt7MpjJWyqKImx96FIOHOspiAz2F1/luOUBe50u+8bzhwgXzcfaI41AfDmHz1mb0S6nzWygWRyhRS7IXlVzOk715EU5UVhTyKBXLUo0WSgVp3mVLdF5TQKbtJdUOBx9/Eg7vBpBff+kFPDJ1PDbv1w/xeEwn9vw8smnshWuTQCiEYns7ipkOVMoKtGzmKSjrzxzBmFI7bo/x18gVS7hp2o8xaOgmG89BdXu6VlfAAfJaXd6N+8UJyKcdfzQawiFs1tqMAfW1UpmGwlGVvsm4dEl8I8TtjWZB1g/ZZyZE4CMQZqgNLhSQMT7EVDt8/4TROPykMSst9AfvvYvHbpmK4OL5ku3HKlkGRESLzAo5JKqPcH2D8NmFZUukQmalni3mRU7XmVNgzhdKCsilolTKcpHg9lUqmHrfwxg4ZOjGfaDd3vfaCjhA7rWldC+04gowzumUY49EfSSIzduaMShdj6gMX4RlWs/m6tnRadIF9Kcol0zitKgryqJs6DTVqQClSXyub2nFuZNuwOBNN+928Z+461a897tfo7G21scja4OPNAWBOFxXLw3FwvJlwiPT+F4M6fme+ZKAcVamAnknMOeRK5RQDgRwxIhR2PvAgxGPq2rE3dwKrOkKOEBe0xV0z+9xBRbMn4dRRx+BVDiALVtbMCidQm2UcU5hmdgTO04SFkZlobI3mgpVBBjV/rKoVbFwuEVtthmj+Lahm+Kaux9ArAdAfPiWG/DRH14XcyOtkLU65nAKfZl5C8UTAsjFbFYuBNQ8U1aXlaqcAyIl5Jip5wGyUhflQAgXXjsVW27rUqbdR6D3VsABcu+tpXulFVaAgHzSUYejNghs0daCwY0p1MeiCAQ1Y89mOVljeiotRPpGsyEmdpjx5Q4/IDNoNEs6IYv+m2yKCXdPQyzRfYV6742TMfP3v8HgxjTiNKjn+HQ4LJ7MnMhjcgkrXavyICCzgdiZLwpnXShVZCBFGngGkNnYI4VSCQZx/sQp2HIbB8juxO+9FXCA3Htr6V6pG0AeedThSKCMzdtaMLSxDnWJmOTXSQp1MCRgyBtDTSV1mnpgGQ4pi5ObKB3yWh2zWs4IZZGV1I7+m26Ga+95EPEeAPnWSRPxwZuvYtsBbaKBJhizOpYK2ViASp4fq3RW5hUmTLNxWEChEkDRADKbiWzk5UqkLJRPrgSCOG/CZGzhANmd9724Ag6Qe3Ex3Ut1XQFyyCcddRiilSI2a+2HoU31SNcwhZpgrPl1DHSy1psCigaQiyUOZ7C5pgbxpBBIW9BMSAdDFJAn3ftQj4A8f+4cPH79RNS2LxGVBY3xyR2Ln4ZU6IYy4YWgwklBBeR8ifFQARTKEAC2umMFY3WZqwRDOPeaydh8m23dYXcr0Gsr4AC515bSvdCKKyCAfPThiJQK2LRfM4Y2NaApmUCIGXs0GpI4Jw081dFp1SBT6aDhohxfzoOURa5QRkdB3d0Yp0Qd8oBNN8eke3uukPm6t192PmoWz0M8YqgKcZtj0CrdK/Qm6o5ySUaneSHISxpJEIVywEdXaGOPDT4CM+mWs6+ZhM2/5ADZnfm9twIOkHtvLd0rrURZzMfoYw5HsFDA0H5N2KQ5jabaGnFVU9qiCsgl+kgIh6w+yGzosbkmFTI5ZAFocscE5ByyuRwGbbo5Jt4zrccKmZsz9cKzkFy2EKmYNvOEKuFPyfgzDUUDyHSfo6OcjGojhBIrZJG8FUXyxt/LcAg55EAQZ119nQNkd9b36go4QO7V5XQv5l8BVshjjj0CgXwOg5oVkFtSBGSawTOhgzFOmq/H6lSMhSh5M809AWCqKkhVmAYfqQq6sOXyBQzabAtMuPv+HmVnixYuxPWXXoCmfAf61en7BkIRAWVeDMT2UyxA1b+CPyUWivI7csgVrZBlGITUBYdTZFqvIM3A408/FzvtshvCEbUTdTe3Amu6Ag6Q13QF3fN7XAEB5OOOFEAe0JjG0OY0+tXVmrgkBWSVvgV8eXoGkMtlmcojf6ySt5KMMXfmMuJjQdqAgDz+zvt6lL0xRuq5nzyG3bfeHIOb6pW7JiAbDplBTTQTEk/mSllim8glswIuVIBiOYCCgLAOghCQWS3T5U2lbwFcefNd6D9osDsL3Ar0ygo4QO6VZXQv0t0KcFJvzLFHIljIo7WhTrL1WuuSAowSKiqNPXK5TAspy9QejX34UzTIBGQjecswcDSjzbwczeELRQzcbAtcfce9PQLyDROvwfNPPYFvbrkptmhtlvflmHQoFBHpm2npeUqPYEC3QwG5ooAslbHyxgTkvBkMUVAu4Orb70P/wW5Sz30CemcFHCD3zjq6V+lmBQjIpxx3FAL5PJrrUxjSnBajetIVBGQ210QPTC2wALI6rQkgU/ZGysIAMmkLAjKbeeqRXEIknsDwM8/DHvsd2O363zBxPF546nFsv8kgbDeoDSETH8XBFJW+CWchz2WhrhVyRVOuqUMuAwXDKYupkMje2GBUc3oC8rjb7nWA7M7+XlsBB8i9tpTuhVZcAQLy2GFHKyDXpTCwqR5tdSmtkAnGRvpGUNbkEPLI5HOLqJRotanmPjI6zYm9TFbpAkMZELwPGTYCh49c2cuC23LjtePx3JOPY+uBbdhxk8EIhwLmPTk6HdaMP0FjDu5pvQxqkcsVrZIJyLT99Bp7TDDRpGtuA8H5qlsJyEPcwXcr0Csr4AC5V5bRvUhPlMVpxx8jrm5NdUm01dehrT4laR1KV5i7gCETO6pBpwRmVqKdlLoxRqlQQDZDP+K82nIy1qlUwcHHnYBDTxzV7QGgQT4BeZN+zdhpsyGIh3UYRZp7ZnRbQDkQkElqqdRRkSpdAbmid1bGUhFrpJRO66lR/ZW33oP+gxwgu09A76yAA+TeWUf3KiusACfwZn70IS44ZRSCxaIAckt9qgsge6AsoGgw2SRPk8tlNSwqC6O2YHQSf0dAplaYPw867kT89wkndbv+N183Ac8/+QQGtTRi+6GDkIrHVGpnuGv5aQA5xKERKCCzKqYOmpzxSoAs/hpqVk9A/s4hh+KwE0Z5vhzuRHArsCYr4AB5TVbPPbfHFejo6MAFZ4zFB29Pl8RpUhYKyknEQ2GhLbRCVpOhkFSopJGtHplVqQFkZuhRbpavehGTv82XKvivY4bhB8O7B+RbJk0UDrmtMY1tBvVHU7JWK2MOhjBw1fO0CKjiQ7jkgGqROZUnTcay0BTWy8Lv+FYoFjBky61xwcTrdfLP3dwKrOEKOEBewwV0T+9+BRhyOuq4o7Bk3lw01dWhuT6JxlQSTckaxElZGC0ywVGn9jhEzSpZ06epSaaaQjjkHEenKT3TxA7N2eO/y9ju67vgmLFnoqm1baUNuWXyBLz09JNoqa/HlgNa0dZQJ8DJwRABZFIVHm1ieORAQLXIZoRaqmQzPk26QkepacGpk3tDttoa54+f6gDZfRB6ZQUcIPfKMroXWXEFCMijhx1tAJnVcQpNqSTSyQRiIQPIRg8sdAFBmQBpk5/LCshM62BTjxVqUXjboqQ+M0WEQEl+9+TLrsbOu+210kG4bfK1eOmnP0FzfT22GNAPrQ31Apy8GACmQpYLAhAyk3siia5A/Ssoc6OvBcG5oGDM99OmXk6sOQnI542f4gDZfQR6ZQUcIPfKMroX6Q6QTz7+aCyeN0/oikbeU7VoqE0gJk09pSwIjgRiHRJR6RlHmKVCFu8KwxtLo00BWYY0CnmVpxVLGHXJOOy8255dNiGbyeDWSRPwuxefRUtDPTZt7Ye2hnodCrF0hbw3bSkUnMkgK5VNlUVZKAvK3/R99b38FTIr9sFbboVzr3GA7D4BvbMCDpB7Zx3dq6ywAqyQTxl+DJbMmydg3FSfQjpZi4aaOGJhHV9mZSz+EqJy0LuCMqOdylIhc0Sa1bFOypGuUHUDKQOhMIpFfOewY3HwMccjGot5W/GbX7+Mqy88D8lICP0a6jCgqRFt6QYJORWaglU635+VcZActn1v0XuosoL0RFllb6zOq85vmhrC7Wjs3x/DTz8PQzbfwjX23KdgjVfAAfIaL6F7ge5WoL2dgHysR1k0pgjINagnhxyJmIYaK1NWrMrfWl1wIFCRnL0C8+wIhAaIrdSMIC1a5AJlcEUUQ1Fce+9DaO7X6m3Kyy88h6vOO1uUHa3pBrQ01KEtXY94lEqLEEKe9E7fN2zK84DOiRgO2SgtvAuCRjp528Fk7GIRO++6B04883wdNnE3twJrsAIOkNdg8dxTe14BAvLY4cdhyXw29cgdp9CQrBHFBaOUdGqOjTVWqwEEKqZClpcU2x8xrbfgJ+PLrI5zeZmQy9kk6EIRiMZxzd3T0NTSzwfIz+OK885CS6oWbU2NaG2sR2t9PeIxlb7RAtTSJQLInsqCvhbUH2t1TOpCqnJJvzZ6ZDM2bXXJO+26B0444zwHyO4DscYr4AB5jZfQvUBPFfKpJwyTCjmdqkU6lRRAbqitRQ2tMD0O2TTzRAWsSmCwQuYYs/DGSk/IyHJeG3pSGZPOEOqigHI4ijEXXYmvfP2bpmEHvPzC87ji3DOkkdi/qRH9aWxU34B41NAl/uEUUVtQ5WHen1pkI30TtYUZCFG1hVIVHFCRx1Ih7y60hauQ3WdhTVfAAfKarqB7frcrwAqZgLx43hwB43SSgJyQnzWxmFanIjkz0jNSFsRiAWTjKyHqhiogKxgTmHUww4JyR66IRHMrbrzvQdTU1sr2WEBmRd7W3KgcciMBWSkL6qB1Ys/y19pUlNZeoCLmRqRKFHQpfVP/DJXd6QVCgLpUxE7f2l2sONUoyd3cCnz+FXCA/PnXzj3zU1bAAvIiAeRaA8j8WYtaHyD7aQPlkNUGkxwyQVEDRlV/LNyxrYzNT6aKZHMFRBtbcNP9D6O2NtkFkOtqEmhrbMTA5ka0NTWgJhaXSlb8mM1FQQZTJIXaTAyiCsgqrWP6tFIWVunByt06wSXq0xhx5gXY0sU5uc/EGq6AA+Q1XED39O5XQDhkqZA/QUOSQJxCQ6pGgDnpAbIBRSM9C1YIiKQrJHZUR05zBQAAIABJREFUAFmrUZW7ibGQKC/y4gSXy+ck5okp1PHmVtx0/0MeIL/ywvO4/NwzkYzHZFJvQEsj+jemUZtghBQB2XDIMrWngMz/EZfFz4I6aGNMbwdDPI8Laexpw5FNvVKlghPPvhA7fXNXdzq4FVijFXCAvEbL557c0wqoyuI4A8hJwyFrhZxMJP5/e98BZlddbb9u7/1OSaUERB8q8AqgCIoF9T3RpyIlCSEkgZBegEAICSSkkYDUEEogBKSIjSKo4MMH/6dPaaJgQdCngoTUmbnt3HNu+39r/869MzEzSXAylyTzm8/7zWBmzjl3nTNr9rf22mvD47YlCwc/2/YzFbzWIOSGhiy6LStkyybkEoolVsaKkI2ihUBLO76+bkdCXnjhTKnG04k4hqUToiVHQkFFxm7+MXDbdje6PeyQIRmfrtlRm2pTiFjuyhyjtqvketCQrXFzkOTcWfPw4WOP1w+ERqBfCGhC7hd8+of7JORsFpPHjbY15BDiEbosFCFHehIym3uN0Wm7qcYtHhJa310hS2NPgumVN7nIKrlowiixQrYQbm3HNXf0RshepGJRDEmnREeOhUNwe1gdq+EUNaHXYzDF1q9ZDXdXyMp6x8Ahasaqycev7c0hNWA8CfnfNCHr34j+IaAJuX/46Z/uAwEOhpw/7kxs37RJMizY2CMZkpCjwSA8bndjUk/iL+11Tk463rgBGmrPHXMrTFaiIlHYzgrTlBQ4s14hmxaibUOx+nY29ZSGTMlCVchexOm0SKcxLJVALBKCx+OF2+0R6WIHQmZ1zAuoQTX1bKubmtAryQh1d66FGqNms4+qN33IH9KErH8f+omAJuR+Aqh/vA8NmeFCY89Cx5aNSIYjSNCLHAoKOUaCQclEboxO1yMxmTAhscjcc1eRfXfdGjK9x3X9mBnJNiEz68K0EGsfilW3r+8m5Cdpe5uJkNeLaDiEIamU6Mj8w+D19kHIduIcZRM1mWdLFLbbQzRkW9cmGUtEZ7kkA9fnaELWvwp7AQFNyHsBRH2InRGwTBP337MB331gAwJut1TJIllEwo0KWUVwqgERyZMgIcry53qFrPRbtTKpByFLZVyyNWR+tpAYMgwrbyMhK9vb00/+EIvmzhLPM3XjtoRq7DHkyOv1wePxwM0/CpQsYDf1nPYqJy44lSEQVRVLhS7hRkqy4DWpF8OHelTI/6olC/270D8ENCH3Dz/907tAYOvWLZg2bjRqlil5FnGxv4WkYvW6PWI9a5BxPeiHFXKZhFxRkkXFHgjpQcgGCdmulknM/O/00BFYfutdOxLyhbMQ9JKQAxLBObQlhXQsqghZqmS1uUSS5mwyrjs9FCGXFSHbBNyQLISUlb5NQpYKeYaWLPQvQ/8R0ITcfwz1EfpAQJacjj1TVjglYmo4RE3shZVkYQ9nSFPPtp/Rf8xgIerI0tTjyHR9IMQ0pZlnFNVnieeUStlCy7CRWLb2zh0I+QoSss8rVjdWxkNaUmhNxOHz+JRs4VHXoIKNVDh9PWa+7oGuN/FUhawkDOW6qKfOVcSkR8lCN/X0r0J/EdCE3F8E9c/3iQAJeTIJ2TKFkBkwFKOeHAnBZ6eudU/sKbdDg5AlqJ6arZ1bId5j6sbddjfV1CvL/98ybASWrd2xQr7iIlUh02ZH7bo9ncKQZBxerx9er0dkC4YMdafMkZBVulBDnrCrYSHkHmQsTgs746KKGs6ZebEmZP270G8ENCH3G0J9gL4QICGfP+Z0VGXJKfOQw8r+Fgkh4PXaOcTducjqODU4pELmFmp7Us+WJxpkTFK2h0KKJGTTRMvQ4VguGrJyWfyEGvJFs21C9iMaDkrIUHsqJePTJGRWyS6PvX3aro57TgkqvdieztuBkG1tWyYIS6jWHBg/SxOy/k3oPwKakPuPoT5CHwhs3bIF5405XWnIMbU1hIRMHTkgAUN2QL0dNLQDIddqsspJJbuZajqvXh3b0gUJmhWyYZlo7YWQr7AJORTwIxIMoDUZx5CWNAI+P7weLzxej5It6pa7xmAKUKFcUpclbDeFVMjMQbb/W7aX0PYmPmRNyPoXof8IaELuP4b6CLsg5EljvoaaqQiZjb0ECTkSRtDeAF3fHKJIkZa3GpyskEVKVj5fkrHY3KgdcxjELCotWWQMVsiWIuQetjdWyFdeNFsqcSHkQEAm9tpbkgj5g0LG9CN7ZEhEbQ6ROAt7fLsiu/QoU9guj54+ZNkeokKPpEJGTQ+G6N+CvYKAJuS9AqM+SG8IsEKeeNZpqFqmbAxJRqNICCmHEAz41aRcY8mo0pBJyFzhRC1ZNGSpkFV1bBSLyurGCpmvEht6amqvZegIrOiDkMMBv+jICYbUp1MI0wctFbIbHntARPKQScj0QjvUYAgrYCFkydKoD4bYCXD1bI0SXRZ6Uk//BuwdBDQh7x0c9VF6QYCEPOGMr6JqFZGMR0WySESjoiUHJeRHSRZqfZJ6qfRNmQ5BTfy/PRp5rI6LRUXIdsAQQ4akQh42HCt6TOrVK2Q29UJBRcixSEQ05Ahtd3ZTjxODampPOSzqe/3qk3qyWNXeeK0GQboT3xgBStL2+gPS1Hv/h4/Wz4FGoF8IaELuF3z6h3eFwNYtm3EuCdmWLGSvnl0lU0IQqYBbn1klSwiyyrIQpwUz11ghc2SaVTGJWOQKJVtIuJBkWvROyBwMWXzhbGV7swk5GgqhLZ1ANBKV3Xp0WfAzcy3cbl6DTchSIVcbm65ld5/tSVa6cX2vn/r/P3zsRzBm6hzxNesPjUB/ENCE3B/09M/uEoFCoYA1X1+Np5/4PlLxCFLUj2NRkS7YZGsQsr1oVAVgkotVJrK4LOxGXlEIWZGyyBcWq2QVOFR1unDa+En43FfPEJLlBwmZO/XCfqUhs0LmxF5LMoE4Cdmr9GMSsgyIyNRgd5Xc8CHb1XFPQhbtWDTkkljfjjruBIydNlsH1Ovfh34joAm53xDqA+wKgWf+6ymsWHip2jxNuSIWRSIWQTQUhpuShe1w4Oh0g5DtKlkImRWwNPMMFIweGnIPycITCGLlHfcg1WPJaX10moRM8ichh0NBpOIxxGMx+ISQPTKgQkJ2M47T1pH5x0CaevaYNPVj2RhSjwG1N07LGierhKOO/xjO1oSsfxH2AgKakPcCiPoQfSPw3z9+CssXXoJUhGSsnBYk5ViEhFwnQYd4kncgZB6SIfF2zGahaKBo2PrxDhpyGZ5AYGdC/tEPsejCWQiRkFkdB1khhxCLhpGMczjEJmRKF26XImXJRFbNPVrcZDKvUSHbK5sazTyOVpvS7Dvq+BM1Ietfgr2CgCbkvQKjPkhfCJCQly64xHZZkIwjSMViMjmnwoXUklMhZHuvngyHiIzMClm5KwqUKwyjIVlIU8/OSHb7A7h63b07VMjcqbfIjt8kGTPyk8085mgkEnH4PT64bR2ZhMwXK+R6lVyxoz/rhKzkCdv1wWWroiOzQi7jKO7U0xWy/iXYCwhoQt4LIOpD9I3AT378JJbNnycuC0oV1JFT8agMiFC/VVnI9crUrpHF9sZjVlRDzyAhmyiSkMXypsaoFSmX4PUHsbIXQpb4TZ8X3KsXCXFaj5nMUcRiYfhkOIT6sRdet9PWkR2g/Y3ZGhwMUXv0VAOP0oTKsKAvWi1frb80IevfgL2FgCbkvYWkPk6vCDz91JO46rKLlVRBHTkWlWqZbgufl4SsKuP6tJy09XYiZMMm5Lpk0YOQrRLcgSBW7UTIP8DCOTMR8vsQDvqlQo5KsFEEUWZp+P3wuFVjT1nfXPC4nKJrK0JWm6br03iy8Zo6sr0F2+JePamabQ15um7q6V+B/iOgCbn/GOoj7AKB3776Cr6+fAm2vv2WaurRj8zGXjSCgM/XqI5JghRv1bScLVnUK+SCgYJdKTeGQhqLTstwBwI7EfJvX/k1li6Yh81vvqn0Y5Iyw42YxxwOw++3K2TRkLsJmcMqJGU1qWcTslTDVg+7G6vmepVs4ujjT8LZmpD178FeQEAT8l4AUR+ibwQ4ebfh9lvxnW/crXRkvmRIJCaxmI7Gtme7UpZpPQZaQib2REM2DOQNA2J9o1xhx2/K2HTJgsfvx6o779tBQyap37DyKjz20IOqqRdihUwNuU7IQXFZeDzUj22nBStkJ6tkl1yDkiRsrZhfN/zHmpD1Mz8wCGhCHhhc9VF7ILD+1lvw0L3rkZaGHrVkEnJUbGh12xsbezIYUo/gtK1vdUIuSEOv24fcPalnictiJ0IGcP2KpXjsm/cjzKZeKKA05EaFHFC79YSQWRW7pTImGVO64B+SukZMaWIHDVlIumeFfCLOnj5H+5D1U99vBDQh9xtCfYDdIXDn2jX45j13Ih1VcoVyWkTFhuZyu8BxDNXYU009h0S+s0KuNSpkVsnitJCpvR01ZO8uCPnRB++zLW9BcVjEoxFbslCErCrkuu1Nacgk5WoPQq439aghq4q5Pj5N21sZx3zkRD0YsruHQP/7HiGgCXmPYNLf1B8Efv3yL/H15VfC6OiwyVhZ32LhsLgbhIhFulAeYDU6DQmLL5WUZCFOC9tlUSdkg8FCJVOyJFbddf+OkgWA61ZchUcevF9cFtGQX7Is+KKWHGBTr6EfK8nC43JIvobH5VKj03UnBYlYtpYoX7Iptjf137FUEl8dfwGO+PDRKotDf2gE+oGAJuR+gKd/dM8Q4MLTS2ZOxZuv/77hQ6aOTC8yd+vRg1yXLOorlOhFdnFzR6kkhMzBEE7qSZ6FrSHXCTndPhSLbrgViVR6hwu6bjkJ+T7EQkHRkGMRVsjRRlOvTsg7aMh2hSwbpkWqsBrEzEk9RdKskknOFoaPeh9mLFwm70F/aAT6i4Am5P4iqH9+twjQS3zxtMl48/XXkGSmhcgWMXFa+Lk5pDEYwqQ3FTDE/3ELdblUtgdC6oSsGnuShSwTeyVMnr8IH/3kKTtVqD0JmRtDqB9LhVx3WTDxjZUxm3q2huyiJ9nptMek1eCHSnWzR6ftClk8ySUTww89HDOvWKEJebdPgf6GPUFAE/KeoKS/p18IkJDnXDAJf339NaQTzLSICSFTS6Z0ID7kHSI4ucdZEXKlXCdkShb2xB6r5B6EPH3RUhx70sk7XSMli8eoIdNhIRVyRDTkSDgsljsPt0/LlJ6yvVE/ZkOP3mjJQbaXq+6gITPPgiRt51h8/oyx+NSpX9FyRb+eEP3DdQQ0IetnYcARqFar+OkzP8Ga1cvhQU3sb9SQmWnBXORGQ6/hslCZyMxJFkK2x6alqWdLFtLck3B6E9MXXYVjT/pkL4S8FI9RQ6bDQgg5LFV5WCpkn4TUc4VTzwpZETLsCnlHyaJnU4+Jb7yu+dfcjPbhIwYcQ32CwYGAJuTBcZ/f83fZ2bEd084ZjZppqChOIeSYpLAx+lKaej1sb6pC5oBGWZLe8tSPRUPudlqIdGGamHFF74R819pb8K0N6+BzOsRhoSrksCTNCSFzp15dshDZQlXI/FA6sRqPFslCJvXsDAurIn8I8gUDC69fi/bhI99zfPUFHBgIaEI+MO7jPv8uOrZvx+SxZwCWgXQ8JnkWJGWuUyIpqoChnltDAJfTgWqZhEypooeGLEH1ioyZcTFz0TIc+/GdJQuTFez0C/B/v3tVtk4LIUeiiISDdoXMwZD6UEidkNlKVB7knpJFfTuIclmQpCs4/KhjcMbEKYjGE/s8/voC9w8ENCHvH/dpv79K6sgP3H0nHnngXrQmSMhxae4xX0IC4usrnOytIaxTmW9RK1dgkIzrAfV1p4XtR84ZBmZeuQzHfXxnyYKgzbtgIl5/5Vd2hRxWGnIoJNr1jhUyNWSXNPTqQyGqMlYNPXlJI4/VMceoq5iyYDEOPeKf9vt7o9/AvoOAJuR9514c8Ffyyxeex+Wzp6I9lUCaTot4XFnfPJ7ucCHx8tLyplLguFdPUt6KReTrk3pSMau1TrlCETMXL++TkC++YCLeeOVXYnmj/5jnUy4Ln4TU18PpPXWXhdOJqoxsK6lCwoTqpGwH1EvyXKmCGYuWYtT7NSEf8A9uE9+gJuQmgj3YT/XS88/h0umTMSSdQEuCGnJcGnsMi6deXM+1EEK2YzlRrXYPhpjdOjJJka6LbKGIWUuW4fiPf6pXeC+aPAF/fPXXDcsbCZm5yI0K2W7qcRhEBeY7JJy+4aywLW9C0PQhWyXkCgaMUhmzF6/A4R84crDfVv3+9yICmpD3Ipj6ULtGgIQ8b9pktCWistuuriP7fL7uVU4k5gYhO0FCZlNPAoaKRQkWqtvfWB1njQLmLF6B4z/ROyHPOe9c/Pl3r0hlTA05EQkjHI7A7/PC51MVcsP2JgH1DnFYsDJWAfRqdx6/JiFTOsnmDYw47P2YOGfeTsMo+hnQCPQHAU3I/UFP/+y7QiCXzWLDHWvxzOOPoDWVREucFXIMwaC/ByGrRaeqQnZK4psane6O4BQ9uWAgaxhCjrOvWomP9EHIsyaNx19//xubkMM2IduShRCyPRzC6pg7/hwk5HIP7die1LM3XLM65jk/9rn/wFnnTX1X719/s0ZgdwhoQt4dQvrf9yoC33nwPty79kYMTadUYy8eU6lvXOdUt73ZhMwkOMZo9qyQxYdsFJEvFJDJF0SymEtCPrn3CnnGhHPw1h9+i0RUJb1xU0nErpC9Pm/3pB4HRGT8mYRc3wZSr5AtkSro6sjkSMgFnPTvp2Ls5Ol7FRt9MI2AJmT9DDQVgW/fdy/Wr7keQ1tSaEkmxWlBohQvshAycy1oebP321GyMIsoFAqqkUd3RcFAplBANpdHtmDgwqWr+iTkh75xD75z1+0I+dyIRdWmEmrIPq8PlEpkYwj148aSUzQ2gahmniJjjmjTd9yVKyAYT+CsSVNx1LHHNxU7fbIDHwFNyAf+Pd6n3uEj334Id9xwLdLRENpSSaTptIhGJYaT6jHZmLJBg5Br1JDVglNKFdLMo2yQyyGTN3D0CSdh3Iw5SKZben2fWza9gznjx8DrqIpswXOxQvb5PELK9RVOqqnHCrlm+49tuxvDhSwLuaIplTHPOerID+HCxSv1uPQ+9WQdGBejCfnAuI/7zbvI53JYsXA+/vSbX2FIWlXJXH5KLbc+HMLP9ANLeD0Jkj5krnGybW85EiOr43wB/zF6HE6fOLnP909CnjnuLARdDsSiNiGHQlIds7GnFp3aAfXiQWbspj2ZZ1fI9B1TN+6iRJI3cNgHP4R5S1drQt5vnrr950I1Ie8/9+qAuFIOXSy+9CK8+vz/YlhLCq2plGwQoSdYacgqrL5OyMxElkk9kSxUlgWlijohf2EMCfmCPrHZ/M5GTD/7LIQ9DqmOuWg1bBMyXRYk5HpAPf8A1Kpq8KPuP2Z1THdHNqeq44JVwpdGn4MvfO1MTcgHxBO5b70JTcj71v044K+GhLzo4jn49S9+hmEtabSxuZeIwS8LT9VePRJjNyFXwSk/NvGkmUdyzCpCJkGeOmYczpi0a0KeMvp0RLwuOY9oyKEQvHaF7BGXBTVkepCdqFaYeWxP6HGfn1THrMhZHRdQhhMrbluPVEvrAX+v9BtsPgKakJuP+aA+Iwl5wYWz8PL//lQq5PaWFNKJBIJ+P5wuNvSUVEE9l5+dUIQsFbLBybwCMlklV9BlceqY8TjzvF0Q8saNOH/0aYh53Ein4kjKLr86ITPxrZ72poZCJMyIFbKtHfMPAMm/K2cgk8+j4nDhmnX3aEIe1E/xwL15TcgDh60+ci8IkJAf2LAeD224E9GAF8NaWpBOJWXNktPpkipZEbLyIbtqbLKpRh43T+dEriAZK1I+dex4nHXelD6x3rRxIyad+RXEvW60p5OI2RUyNWS+SMheOw+ZhCwpb5YpAyF0dPAPQBcJOa8GUz74r8fh/NnzEI5G9f3VCOx1BDQh73VI9QF3h0A204Xp48fAynZhWGuLyBbcr8fBDK5ColzBlxAyk9dsQmaQkOjHWTosSMgGvjj2XJx1ft+EnM/ncPfaNXjuqSfQkoiDq6PCwRC8fh/83u4KmdN6jNGor21iqBB3+HXlWR0rycKqVnH5tTfhkMPet7u3qP9dI/APIaAJ+R+CTf9QfxDIZLowbdyZMDNd4rRob21BIkKnhVtIWDY/1wlZtj+THAuouyt2IOSzz8Xo83c9Mffqyy9h9aVzkY7FREdm5GeDkGWNk3JZ0P8ssZumKa9snjp1QdwVnbk8StUaFl93Cw45XBNyf+6//tm+EdCErJ+OpiNAQp485nQh5PZUEkNa0kjGY+J44IBI74RsKGdFLoeubE6q42yhgP88mxXyrgn5lZdexPJ5szEkmUA6GVeELE09FVLvlaaeW6YCZRCEmrVRlCpc6ccFGUQp14CrbliLQw4/oumY6RMODgQ0IQ+O+7xPvctMVxemnDMGuW2b0ZaMoz2dlrAhCfuxU9d2qJDLljT1qOWyOs5SsigYEr2pCLlvyYJv/JWXXsBVF87EsJYk0skkIsGg6Mfyaiw6dYGrplSFzAAhNg9z6LSbh8ywcLg9WHL9LTj4sMP3KTz1xRw4CGhCPnDu5X7zTsrlMp75r6dw8/IlSERCUiUzbCgYDPRKyKWyhbzIBjk1Lk1S5rTeHhPyi1gydwaGpOJob0lLhawGQ+oVslpyWmHsZrks5J/hJGA2J3IFyThfNPHxz30BZ0+eBn8wuN9grS90/0JAE/L+db8OmKv90+t/wNyJ4xALBWSEmi9ug25UyLTA2U09DmmoYRBKFZQtlMOCFfKX9qhCVoTMTSVD21oQ/TsNWbksuGlaWeyUtS6rJBJxd6iR7a+eMwlfHjPugLkH+o3sewhoQt737smguCIS8qzxYxEL+RuETEuaarCpV4OQyyUhSE7LkYipI1NDZuW6O0I2jAIeWH8XnvjmN9CaiGNYe5tY7HzcGCK2N2rINiGXKiiYynfM85GY84YpdjdWyKedMwlf0YQ8KJ7P9+pNakJ+r5Af5Of94x9ew4xzxiAa9KMtmUBrOinZyGyy1bd3dFfIlqqQbe9xjpN6Bboudk/Im97ZiImnfwWeakkcHcPb2xEJ1SULe3Sai06dTtGPKY1k8jnk8nnkOBloqAafUSrha+eehy+dOXaQ3zn99gcSAU3IA4muPnafCLzxh9cwdexZiAkhx9FGQo7HRddllSxh8SJZAKUSx5cpVXRXyBybJmmqCrlvlwUHQyac/mX4UUV7OoWhrWnZqdczXIiJb0yY4ybrXCEvpMxRbUoV9D4zQ+OwI4/CBZcsRDyZ1HdVIzBgCGhCHjBo9YF3hcDGv/0NV14yF1v+8me0skJOJcRpEQz4d2zsOYByua4hU9MtKJfFuyDkiWd8GUFHTQZQSMo9l5xKuJDHDQZvknjpdeZEIBt7qkImIZs4+tgTMOOKq/RN1QgMKAKakAcUXn3wvhDgCPUPHnkYt65ahrZUQl5MfgvZTgv6kaVCdtRQKZUbQxpSKWfV6PSeVsiTzvgKQk6gjWFGqYRdIaudel630pCZg0zyZQg9h1DyBUXGrJKpIR91/AmYtWipvqEagQFFQBPygMKrD74rBH746MO4afkSkSyoIdOPTI8ww+ol7Y3NPQeEkDMF5a6QtU0SLsTGXmG3ksXmjRtx3plflTzk9pYkWlkhB5mH7JXIz3q4EFPeJE2OE4FCyoZUyNSP2dAjIc++QhOyfqIHFgFNyAOLrz76LhB44pHv4cali9EqwyFJDGlNSzQmx5jr03rUdpnApsaYlY4s9jfb+rY7DZmEPPnM0xD0kJBT4ugI0YfsVYTss/OQK/QfS4VM3bigJAt7w3WpCpzyldNw2vjz9P3UCAwoApqQBxReffBdIfD4w9/FdVddIYQ8JJXCsLZWRMMkZDb1XPDYW6BJyJQn1MYONRhCaxr13i/upqknhHzWaZKHTP2YlXjIH1ByBQmZljeXCxxWUVKF0pBVQ0/5j4OxBK646TZEojF9QzUCA4qAJuQBhVcffFcI/Ojx7+PrixchHgpgSEsKI0jIkbBaqeRUmRaMxKxVKiJZiFwhk3qskrN7RMi0vU0Z/TVEvG6xvbF5GPQHxF6nJAuPnIfDJ4z4pMtCKmWRK7hLr4hQPIkla+5AMBzWN1QjMKAIaEIeUHj1wXeFABeX3rj8KrzwzNMiJ4wcMgTxaFgqY1Uls6mn1irtSMh7XiGTkKeOPh1Rn1vGpluScSFkPwdCpKmn5BFullYh+N0asgyFGCZCyZQmZP0oNwUBTchNgVmfpC8Erl++FM888SiGpBM4eNhQ2XtX3wBNQmZzr1qtqOhNW7KQ+M09lSxYIY85A3G/Rypkxm+SkKkdk5B9tLw5nKjnH+fpQ667Kwqc0jMRTaVx5ZrbEQzpClk/yQOLgCbkgcVXH303CFy37Cr85PFH0J5OYNTwYQ1CJinXh0NYIYv/+B8k5Oljz0TMz40hKYn5lAqZE4HS1HPDWXPCLHEir+4/VttJ8gULZdRwxuTpOP7kT8Ml9jj9oREYOAQ0IQ8ctvrIe4DANUsX4+nHHsbQdBKHDh+mcpFpd3PbtjfZBF3tJmQ7ZOjdVMgzzj4TsYBXKuR4NCKEHKgTMjeFwIEit5JIZczGHm1vbOqZqDldmHfNjRg68qA9eDf6WzQC/UNAE3L/8NM/3U8ESMhPPfxdDEkncdiI4Ugn4vC4lYasrG8u1GpVVR2zSrZjMSlf7JHL4p2NmDnuLMQDPrHWJSJhBOwKmS4L+pAdNcjYNPVjNaFXb+qZqDpduOTamzQh9/M+6x/fMwQ0Ie8ZTvq7BgiBl55/DqsWzoenUsLhI4fL+HQ9fa0nIe+kIe8hIW/ZtBGzxo1GPOAVySIWDiEQUE29+mAIampsWgjZ9iIrHdlE1eXCpdferAl5gO6/PuyOCGhC1k/Ee4pAPpfDjHNGo9ixHYcfNEJChmSlksvZcFtwzFo2eNSjN0UTPXWbAAAgAElEQVS2yMtE3e58yFs2vYPZ54xGIuhFeyqFCAnZ70eATT1WyG43atUaCkVmVtS1Y0oWymERTqUxa8lKtA4d+p7ipE8+OBDQhDw47vM++y5JyFPPPhNmZwcOGzlc/MgyrCGyBUmZkgUJmSSsfMic1GPFzPD4PSHkuePHIBGkZJFCOBhAkFnIMhTilWChaqUqFXLeyINWPMmvsAn5q+dPwUmfPxUOrqTWHxqBAUZAE/IAA6wPv2sESMiTx5wBs2ObVMhDW9LwedjUU5N61JK5fJT6sSJkWt5IyFzhtGeEfNG5Y5FgzGcqIeFFJGS/VMdeeNxulMsMplehQpJnIcFCReRME2dOnYWPnfJ5fRs1Ak1BQBNyU2DWJ+kLgUI+j0umT8E7f3odo4YPxfC2FrGiSVPPrSrknQhZlpwWEI6nMXvZql0uHaVkcdGEs5EM+SXmMxzwI1AnZI9Xjl/ippCiAYOShaxsUpIFCfmsaSTkf9c3UCPQFAQ0ITcFZn2SPhGo1fC3t97EgimT0BoJYUR7qx3442xUyYqQDbXjznZZcIVTy4iDccWa2+HzB/o8PAn54olnIx0MIp2MIdSDkH0en3idS6Wy0pDtUHqRLYoWah4vRk+dhWNOOFHfQI1AUxDQhNwUmPVJdoXA1i2bQZ23NRTAyGHt8IuG7G7Y30jItKIJIcuUntqpt6eEPG/SOKRCfrQkODbtb0gWPq9PMpdlbLoHIdODzFChD330RIyZMVcPhOjHt2kIaEJuGtT6RH0hsHXzZsw+5yy0hAI4eNgQNUVHDdleeCqE3LNCfleEvAmXkJDDAaTjMYT8PuWy8HnACpl7+4oWPcj2lF6B0gUJ2cLRJ52MsTMv1DdOI9A0BDQhNw1qfaJdETKn6VghHzJcETLtaJJp4eZWvR0JWWSLfAGtIw7Bot1KFpsw/7xxSIeDSMajCPkUIft9Xvg9XsDhRJFj05zOkxwL+pGVZHHMSZ/E2bMu0jdOI9A0BDQhNw1qfaJdEfLMsWcgFfTh0BHDEGAKm0tJFsxF5gdHmkWyqOch54vwhaO4YOFifPCYf+kT3K2bNmH++ecgHQ4hGYsg6PMi4GNjT4XTA04YJsem8zYpGxK5WTBL+GcS8mxNyPrJbR4CmpCbh7U+Uy8I0GP89pt/xbzzzkXc58bhI0dI9SrDIbS/OXckZAmqlxVOBrKGgS+MHY+xk6ftkpAvmzweLeEgEkLIrJCV7Y1ujlrNAYOSRV4Rcr7IgHoTgWgcp0+bgyOOOkbfN41A0xDQhNw0qPWJekOAMsHCOTPx59/8GsNSSRwyfKgQJgc2ujXkHhUyB0OyWeQKrGJNfPHsCTh90gV9gvvGa7/H1fNmoy0aRiIakepbCJmShduDKqf0GCzEbdN8iR/ZRHrkwZhz9Q2iMesPjUCzENCE3Cyk9Xl6RSCXy+L8M0+D1bENI9taMHxImzghOLChcpFdgIOEbDSGQkicTGIzuHz0Yx/HuJlzkWpp7fX486dPwV9+8yuMGsGs5QiCXh/8fsoWipBL5apq4kkwfcHOtLDQctDBmLNKE7J+bJuLgCbk5uKtz/Z3CHBSjwHyxe1bcVB7i+zVY/XaqJCdLvKxDGzk8jkhzVyugDxHnYsmDLOEWUtX4vhPfKpXbOdOHI+33/g9Dj9oOBLRKAJeLwIBLwIepSGXOKXHRh4bepQs7ArZHYriK5MuwL+c+Al9zzQCTUNAE3LToNYn6g2BSqWCF372P7hz1TIkQwEMbW2Bj7Y3bp4WDdkphCz77kjIkvJGrbeIvDTjTEXIJ3+6V4AvmTwBf/vD76VZWJcs/LS+eTzisjBLtLwVYeTz4nWWhl7RQsGy8G+f+AzGX3iJvnEagaYhoAm5aVDrE/WFwPatW3DllImIer2yhJSLR3s29RyoCSFne1bIzJwoqs3Qc5atwkc++ZleD79gynnY+MfXMGJIG+IRashs6rFCpg/ZIx5kg5VxPQeZORZs8pmmEPKEi+frG6cRaBoCmpCbBrU+UV8IdGzdgiXTzkPU51UB9R632hrCCtnlgqNWsyWLPHL2Lr18keFCRWQKBi5asRof/dQpvR5+4dTzsOn/3hBtOhwKIdhTsnC5YJqWChKihiw6sprSyxVNDDnoECHkgw97n755GoGmIKAJuSkw65PsCgHLNPGjb92Pl5/+EeLRmGzxkHB6SXxjuFC3ZMEqmdnI1JEzeQOdRhHTFy3BKad+qVdHxMJp52PLX/6EYW0tkvQW8PpsL7Jq6hVNU5G9TcgkedGSRbooYsLFl+HTp35Z30CNQFMQ0ITcFJj1SXaHwG+e/188cvsaRCPhxoSekDIrZLosSJqNHAta3/LIFIroMooItw/D2g3fQLqlZafT3LhkEV7/5fNoTSVlbJr+Y5Et5LMXFivkAsPuVYVMQpYVTjxf0cQkEvIXNSHv7v7pf987CGhC3js46qP0E4HfvvALIeRwKKAsb25unVabQ0RDNorIZrLIZLLotLMsqB93FU1UgxHc++3voa29faer2PTWm7hhwUUIej3Kg2wTMZ0ctMBZFglZbbRWVbIiY6bLRdNtOP/ShfjAUUf3893pH9cI7BkCmpD3DCf9XQOMwHP/7xk8tOY6jGxvE0KmXNGokFETH3KmK4OurozkWNCHTPIkISMcwz0PfadXQu7YsgXXzpsFv8epyNjrVUMhPlUtl9nAYzVcyCMrGjLdHAV05gs47uRTMPXyKwf4nevDawS6EdCErJ+GfQKBnz/z33jolutw8JA2W7KwdWTJsqiBI9OdXRlkc1nk8mrFEkenOw0TzmgCGx76Ftradq6Q2TD8+rzZ8LodIlVwual8tivlSokVMglZVckZjmbzlcvjI5/+LKZfvmSfwEdfxOBAQBPy4LjP+/S7NItFPHr/PXjtZ88iGg41NGSGx8ukHqrIMr8iQ0K2/cIFE12FAjqLFjyxJO7+5kO9EvK2zZuxbM4UxAMBO8OiW7qg7a1WKaspwEIBXdmcesn+vjyO/8znMXvRVfs0dvriDiwENCEfWPdzv3w3WzdvwsIpE/G+oW0qmF60Yzdc9qJT2RjCyE1WyJI5YSBD/ZhVs1mCL5YSQm5ta9vp/W955x1ccv54HNSSQiDAgRBbsqCmTEKuVURDZkXckckIEVMSoYPjhFM+j1makPfLZ2p/vWhNyPvrnTtQrptpb397C6vmzcFBqZjkIEszz9aRudHDUa0hk89KU69heTMK6MgV0GWW4U+kcPeDvRPyts2bcOW0yUhHg5AJvZ46sptpb1VkC3l0ZrPKucGGIeWLgomPkpAXasniQHnU9of3oQl5f7hLB/A1MkNi0ZyZcOU60Z6MKw8yyZgVsu2yQKXaTci0p7Hpli1gO8mzVENACPmbvVbI27dsxtVzpyPM/Apvt93Nx/hNtwuValmO12Vvs1aZywWx1HG56YyFiw9g9PVb29cQ0IS8r92RQXY9ma5OXHbBRLSHAwgFfPC41bYQknJdQ65VqCFnkM2qCpmSQkcmh+25AnJVCCFveODBXgm5c+tW3DB/LrwuZ8P25vd5ZCsJs5YrlZK9QDUnpCw7+7guipLFpz6LaQsXN0LyB9mt0W/3PUBAE/J7ALo+ZTcCD957N564bwPeP3I4gjsQslrf5HI4UatWkWFDT3KQDXRmc9ieyWFbPg8DboTiSay//4FeCTmzfRvuWLIAtbIFP6M3vR6QkH1uD5wOoFIpi1uDGjUbepQtKFl05goIxFKYetkiHHfCCfqWaQSagoAm5KbArE/SFwI3rVyGV372LA7ltmmREdySZaEqZJX2Vq1UVIWcUWPT2zMZbOOAiGHBcLgQiSdx5333907IHdtx9/IrUbFMIeKAV4UKecjGICFXwFwMasfyyubRKbKFgVypginzF+EL/6kn9fQT3BwENCE3B2d9ll4QeOvNN3Hb6hVA1xZEQyE75c0Dj4cbpxUhu5wu1CoVZGzJIpPNYWsmKxVyV7EE0+lGJJbAuvvu65WQf/7MT/CLh78Fp6Nq+5Dd8Ep1XGNEhhCyYROy6Mgk5CxHqQ1kSlVMmb8Qp2pC1s9vkxDQhNwkoPVpdkbgB48+gnXXrMCHRh0kwT9ej1c0ZBKy6Mg2IVcpK9CSls2iI5vFto4stklDr4qSw4lwNI51fVTIKy+5EK5cByLBgEzosToWb3OtCu7zq1ZJyEVk8oqMKVt0ZnKSY5G1qrjg0stx6pd1hayf3+YgoAm5OTjrs/wdAkx4++799+IHD9yLw0Zy07TPrpApWXgaSW+0vbGKJSF3ZTJKrujMYFu2gGwVKMOJSDSKdff1riHfumQhzG2bEAz4RT9mdazECtbHipCLZrFbrqA+3ZWFYZWkQv7ahMkYfc458Hq9+h5qBAYcAU3IAw6xPkFvCLzx+h8w+9xxOLQthSGphJAwg+nlc11HpobscAghs6nX0ZXBtq4ubOPnTB4FpxvlChCJxfqskO9dvRSZTW9L5KbP4wUJnoMmJGNWyPQhm5bZqJB5DhJysVxFxqrAcnpx+z334JBRo/SN1AgMOAKakAccYn2C3hD40xuvY/4FE3FwS0J23VEzlk0h3DZNYm5IFg5UymUJFdre2YXtXV3Y2pnB9nwRRYcHpWoVX/ra1zB5+gwEgsGdTvWdm6/Ftjf/LHIFid7B7DibkJVsUZU1ThzJ7qIc0pkRDdms1FCEG/lyFWvv3oBDNSHrB7kJCGhCbgLI+hQ7IlCtVvHqyy/hxivmoz0RRTgQFGcFrWhCxiRle4SaFW25XEInK+OOTmzrJCFn0VEsoehghVzBkqtX4aRPfrJXmB+77QZs+cv/yZ4+WuiUWKEqZFT5VRVWWRFyZ5ciZI5RWzUnLJcXRqmMG9fdpQlZP8RNQUATclNg1ifpiQD9xPOmTgYy29CWjMHnpX5cJ+R6hay2hShCLmM7ybijE1tJyF1ZdJWqMEF9uYrFV1+Nk07unZCfWHcTtv7l/4TohYdtqaKuIbNCLpVKyDIXozMjx8/mi7AcLlhOD/JWCTdpQtYPcJMQ0ITcJKD1aboR6OzYjsumng9/pYhYuNvuJv7genXMz041HMIQ+a0dHapC7ujC1mwBmXINVg34pw99GHMvnY+DDz10J4hffO7nePXJx+AqmT3WO9VEQ5YqmZ+rNZQqJeRyOWxns7Azg6xhoezywnI4kCuSkO/UFbJ+gJuCgCbkpsCsT1JHgPrtXbeuxU8ffxhtduCPx+1VFbJNxqq5pxadskLmZuit27crMuYrX0SuDFjVCsaeOwHnTr6gV4DvWXsjtv3u12hNxOHgHij7gzKFNPaq/KqGcqWMXC6LrR1s6OVQoJ3O7YNVriJrmrjpjnWakPUj3BQENCE3BWZ9kp6EvOzy+fjzr19EaywChvz0bOiJw0IafIzhdAshG1YRW0jI2zuxtSuHrXkT+TIr2wrGTpiACX0Q8vfvXY+/vfICwkF/9w2Q6lhJyJQr+F+URDg6zeqYAydGBSg5fLCqJeQMCzdqQtYPcJMQ0ITcJKD1aRQCb/zhD1i7eiVKHZsRDvik2UbirTf1hIi5bdomZKfDIduft27rwNbOTmzNGtiWN2GUy0LIZ088D+eef36v8P7Pw9/CGy/8VFZBoeGu6NaR67Y3ujjY1NvalUEHHRY1F6yaWwjZsCq47tbbdIWsH+CmIKAJuSkw65PUEfj2A/fjW+tuw7B0zJ6cU1GbJGJWx/UKuS5ZsJrleqVt1JC78thasNCRM2CULCRaWrF01WocfsQRvQL8/OPfw+9+/szfkTErY6mRJZyejg8Oh+RyBWyh5S1vwnJ4YHLopFrCJz//HxgzfgKCoZC+iRqBAUdAE/KAQ6xPUEegUCjgwbvX4/898QgS4aBoxhzW8LidioxtUmYjT3KRXW4ZClGE3InthTK25Q105PIomiZGHHoo1qy7C4FAoFeQn/v+d/Hb/yUh27Mg6iv7v9VQCJPkSMiM22RGRsYow4ILVqUqUsZ5M2fh5M9+Tt9EjUBTENCE3BSY9UmIwC9ffAGXz5mNYeI99gkhc5S5TsBetwt+j9oWUt88bZr0CHMLdBEdVgVbOrtkzRIJ+aBRh+HmdXf2SshbNm/Cs99+AF1v/qkBvk3FqkKWKT1FyoqQizL9lzUrsGoOWJWKWOomzZyJk0/5rL6BGoGmIKAJuSkw65MQgV+9+CKWzLsIbbEw/F6XBP3Uw+hJwiRkn8fViODkzxhFE5lcAfmaG9vzBWzd3iGboT0+P2ZefDE+8clPweV27wTw//z30/j+Xbdh1JCWRlXcrSPXq2Q7YKhSRVfBQEfWQLZcRakMGTgpV6uYOGOGJmT9+DYNAU3ITYN6cJ+I4UBLFszHO3/5C+JBHzyowOt0SsKbu+49tqUKpSVzvVIFecNEvlRDoebE1q4ubO/YjlzOQDSZxIaHvgW/v4eDogfEL/z0f/CDu29DWzy6IyGLvaJ7Wo8acoUB+DkD2wpsFtK9UZXqmIR8+rhx+PyX/hNuDpboD43AACOgCXmAAdaHVwh0dnRgxqSJ8LtcCPr98FQtuGsVuB2Ax6t8yDIuLf5jpzgtrFIVeauCgsOFnGFie1cnOjq6kCvkEUumcO+3v9MnIb/6/HP44YbbEfZ7UXMADtvuVrPdFiJX2MMhkiaXL2J7sSyhQvQllys12bcXioSxcOVqDB0+Qt9KjcCAI6AJecAh1ieoE/KlM6YBtQp8HhW16XEA7koJLpKy06EqZY9HvMlOl0cCfgrlMvJmWQLqM5msBAB15bKIp9O4/zvf65OQX3/5Rfxowx3gPAgJWUVXqC+UD7me+KZC6rPFEjrNEqxSRZp5rJorlRo8fh+uXH0Nho0cqW+kRmDAEdCEPOAQ6xOUSyWsW7sWv3j2v9VEntcHn51/7HY7JbPC7XDCQ08ydWWvD2TSfKEgLy4e5StvFISYGf4zaep0jB43Dk6Gzffy8cbLL+KHG25DVSphErGj7q9Q321b36pVVsI1CbvPGCasUlkImhoy/3+v348rVq3WhKwf46YgoAm5KTAP7pNYlonLL7wQm956UwZBfD4/vPzs9ws5uzmtJw0+9XJ7XBK5yT16mS5uCsmBlrk8l5HmM7KA9Nqb1+C4j3y0T2Bff/klPL7+VnDbCMdCasxBbvBwt8uiWnOi6nQjY5WRMwyUy3RXkJDpvqjC7fNpQh7cj29T370m5KbCPThP9vKLL+L2G6+Hkc2qzGPRjL2qSvZ5hZD5WTItXG44XU5Y3OLRpTZNc6yZ03oFoyCpbJQtrl97K477aO/boEnkDz/wALb++Y+omgZqVhGolqUqVnnIVSFoh9ODqtuLqsMlzo2CYaJctoSQVVOvAp8/gMuvXoVhI7RkMTif3ua+a03IzcV7UJ5tw7o78MPvfU/22nlkEERtlZbxaKmQPfKZVbPX5YHDUUMhX0A2l0Uum5XBEO69K0iFnMdHP3Eyps+Zi5bW1l7xfPutt3DV/Hl436jDKRCjWimhVrbgKJeVB5nCMq1yTjeqUBtJSPw8B+UVRciqSvYF/Fiw8mpNyIPyyW3+m9aE3HzMB9UZjUIB962/Cz/78VPw+/zd20DcagBEXh4PXCRqrwdubpmu1ZDP5ySBjSPN1I5NsyifuzI5TJ17IU4fPaZPHDe9/TZWX7kQQ4YOt1Pe1BAIG4qOihqdlmh6kSWoFVdRKBgwTQMlqyRNPTotlGQRwMKVV2PoCO2yGFQP7nv0ZjUhv0fAD5bT/vTZZ3HjyhVIRMKiH3McWvmO1fZnIWO3Gy6vV/6NYUKlkqU043wOeRJysSCTebl8Dg63BwuWLMPxJ/QuVxDXLe+8g5uXX4VwPKGqYVs8dtSqkORNjkvbhMumHgnaLJWEkJm9XLYbe/RBcwBlwQpNyIPleX2v36cm5Pf6DhzA5yfRPfP0f+H2669HOhYTb7GQsD0aTSJ2u1kd21Wyy63IkfJEIY9cLi9VMaf1isWCSBej3vcBXHPLLbvcAr3pb29h/fVfBzzKrVFf1yQasp1foTIs1IsGOLoqrFIJllVCyTKVy6JSgTfgw2XLNCEfwI/pPvXWNCHvU7fjwLqYrs5OXHnpPGS3bZPNIFId24TMr122bOGSKpnasaqOSciGYSCfL4huXCRBFwviPb5s6QocfMghOwTO90SNcsPVSxajnMvC7fHKPzmqpFxWxyyPlROZhCwvW76o1ACLAyFCyJbtRa7A4/Vj/vIVWrI4sB7NffbdaELeZ2/N/n9h27dtw8XTpiDgdCIcDAoZu2xCrn9mtez0eOB0uqQiLRrUcouqSi6a0mgzTFbMBQwZOQI337Vhl8BwP96CObMQ9NA+55UJPVRFOLYnRNS2EBUqpOQK/iGo1NTINBeqKh25hFKZhOzVhLz/P4r7zTvQhLzf3Kr960KpxX73wQfx5GOPIhEMIBDww+VUhNyTjJWG7JHGWrFoCBGTkEmsIlWQjItF0ZCHjBiJm++6e5dAkEivXng5SkZRVd3Uje11TUpAtht89rJTp9MpgyMlGZfmdF6lu7FXLonGfenylbpC3r8ev/32ajUh77e3bt++cMZfzp8zB9ViAW3JpAyAKDJ2wkXpQuQKZXmjoGCaJopGAZZpSmPNKpfla6mOzSIs00Lb8BFYs37XFXJXZwduXb0aRi4n5+spWXChqd3hE12ZfyCcTpIxE97KKFVpkePodAWlUlkscNVqGccc/xGMnzZdBlr0h0ZgIBHQhDyQ6A7iY99xyxr88JFH0J5KoiWZFLubkLAMfqht0iIpOJ3SSKMkYRWVy4EvEqRVsmTBqWmVpVo++l+PwcIVq3aJ6q033oDfPP88EvG4NA/VMAhli6r8XF2ioHwiiXK1moxLs0JmBrI088oVpSWXTBkQaRsxHJctW4lAMDiI76h+681AQBNyM1AehOe45Ybr8OxTT2F4SytSyYSQI90UsrjUli3osmAlXMjnQb+yVMclSySDUrkkEgKJkoTMsemrrrkWRx511C7RXHv91/Hqc88jkUzIGDa1YtGR7ewK6sUkYvE/u1wijRRZEfMPgJBx2a6OLfk35hG1jRiJ+UuWakIehM9xs9+yJuRmIz4Izvfi88/hthtvQKlQkAo5Fo3JyDT12PowCElZBjIMA4VcHib1Y0oTpfpgRkUm6axqWRwXrKBX3HAT3n/kB/tEkLLHXTfdiFd/+RLiCUXIjYYeIB5nVuY+eyCFhrgirW4k4XJFyST8QyBOC9XYc3hcaB0yDPOvWqYJeRA8u+/1W9SE/F7fgQPw/N9/+GGsu/kmDEmnEY9GEAmFZDsICVmkC49HpApxUHAsupCHaRhChkxYE6nXrTzJ9CMXigaMQhErb7p5l4T8oycex91rb0E8FEYilYSf+jT9bLWqkHHPBarcRE2t2BRphERcAUOQ+N9SoZcsFUzk9aGlvV0T8gH4nO6Lb0kT8r54V/bja2Ile/tNN+Fnzz6DVCyCeDiMYCCAADMrKFvUq1OHQ4g2zwyJQkG2c4COByczJpwiWRj5vHiQ6bDg6+rdEPITjzyCu2+9BYloFKlUCv6AH84a4GJlbOvWHqfSjulFJhGb8mIOMrVq6tdlWFZRpAu4nHB6vUimW3GZrpD346dy/7l0Tcj7z73aL670nY0bMW3iuZJxnIhFEPUH1JaQYEhlVchSU+7Ac6DA0ehCHhWJx3SJRFFBTYYyaH/L5zLirihaRRSLJORb8IEP9i1ZPPn497F+7RrxPKdTKYSCIZEoqFurLdYuuJ1OCcSXc/DY5bKQvWomlmBa6uuawwGXzweHw4l4MoXLlmrJYr94APfzi9SEvJ/fwH3t8knI0ydNgNvhQDIWRSQQgLtaQcDPDGSfyq5wueFwOlAsWqg6IYMhJU7KWbaey4pVxqfZ6DPEi2wYJlbd3DchcwT6se99Dw/evR4hvw+pVBLxSFRGrCmXyHooe3S7KrkVJoqWCYMkbJrSwKt/5h8IiBvELTp3PJnEgmXLtYa8rz1sB+D1aEI+AG/qe/mWSMhTJ4yX1LZ0PI5YJAQ/l5baHmSngz5kl9oU7XKLVlxuhPvYsoFpSqUqU3uULPgyCli1Zi0+8MEP9fr23vzrX7Fg7hzxDod8HiQTCcTCEVkHRUIWUva44XI6UbasbimEUkWJmnFZLHCM46RBjl/XN4ckUyksWLZCE/J7+WANknNrQh4kN7pZb5P5xdddvQKvvPQSWpIJ8QMHfQH4/dyjR0JUwxgkZMkiFjIu235jU8kIQsIGioYiY9rh/uXYf8Ok6TPQ0tbe61v5y5//jItmTBNnRSTgQyISRdhuJjYI2e1WeRmWGs0W7ZhNPE7vOZzyYig9ozepJbNqJiknUmksWL4CQe1DbtZjNGjPowl50N76gXvjTzz6MNavvQWtqRTisThCwaDouYFgAF7qsqyQ2bgTvZY+YwtFDoEUWRlbUhlTrmBTzygaEoc5+7IFOPHkk3u9aLoxXn/tNSy4+EL4vT7EwmHEggHZbu23l6bKUlWXUyQIyiEMECoxXIhuDmYwwwGrwuhNShd0XagGX6VSRpKEvGKlJuSBe2T0kW0ENCHrR2GvI0C3w11rbkJrSxpxVsiBkFSrQVaswYA011ipsmHHVU1FswSzRCeFJQ02ui7Y0OPWEFbKwUgUcy+7HEf98z/3eq3ZTAZzplyAd955By3ptFTHIW4hcTpsuYJNPQ+YWiHbQOytISRjrm8q16ooybZp5YEmWUvlTPtbpSwV8uWakPf6c6IPuDMCmpD1U7HXEXj1Vy9j/ZqbUchlEWOFHAoiFIogFAohEApKY4++YMoTlqS7WTBKSq6QzSC5HLJdXULOwVAQXxk9Bp/59y+AQUC9fTDmc9zpX5Mcitb2dqSiUYR9XriqVXhcDtnTR9+xxG3S32FvKOFyU07nyXRgibv0mADHDAt6k/lHoiwEnUimFCGHQnsdK31AjUBPBDQh6+dhryNACYH2s4FocakAAAPTSURBVF88+wzi8YQQcTAcRjgQQiAcFOcDydUsmrAoU9iOBxIwpQra4UiSn/vil3D4+/8JRxx5ZJ/5x7z4rq5OnDd2LErFohByWhp6YdXIcznhdTllYo9yBcPf6HPmp3KV+jWbejYZ28FC5Qor4woqMjBSRjQexxVXr9aEvNefFH3Av0dAE7J+JgYEgUe/+SCefPRhBMKUK6JSGYepI4dC0uATyYI6roTRU7ZQNrdILI7WoUPxiVM+i3RrK3z+3SesUYZ4/uc/x02rVyEWi6IllVbNRL9P7fBzOmXQo8JJQHt5qcRsVqpqXFsmBO3oTSFibgvhOLXaIBKLx7H42us0IQ/Ik6IPqitk/QwMOAIch15x2aXIdHYiHI4iEAwhHAkJKXsDfhkcYXVcKOQkq4JbQ5h3/KkvfBHJdPpdX9/WLZuFkLdv3oLW1lYkExyd9kq8J7dYV60SKnZOhpCy5FdwKEQly9FZQYeFJL3x31glm2UMHTkCBx86Cmeee66O33zXd0X/wLtFQFfI7xYx/f17hABJ7efPPoNH7v8GHHCIQ4HDIT6fD6FgQCpXcTqUyzjmYydK1vHBhx0mk3Gsnt/tB2WSZ3/8FB5+8AGkW1qRZAazzw+324lquYJqyVTLS+vkKwlvJZhFS61u4oYQEnWpgmqtIuFEn/nCqRh1xAfQNmRII1v53V6X/n6NwLtBQBPyu0FLf++7QoDk97e//lUiMKkZb9u8Gb/48ZMyrMHJufaRB+HI445Hqq1dCLq/H2wEfuueu7Hp7bfFqkZCJrdzMq/MbGOpkFUFzNxjWtxYITcC8UuW2PK+ePoZGHXE+zFsxIj+XpL+eY3Au0JAE/K7gkt/c38QYBUrkZZQFTBJmmH1e/PjobvvxJ9+/zuk0q3weLziqqhKxjFJ2RIdWQiZKW/0QBdprbNEQx4x6hD883EfwUmfOaVPR8fevFZ9LI3A3yOgCVk/EwcUAr/91cv4yWOPwOVizKdbFoVQM2aUJnViOidoceP0HzOY+fmwI4/E4R/8EI494URpOvZlrzuggNJvZp9EQBPyPnlb9EX9owjQHfHQbbfg7Tffkk3WHIeu1jdM00khFXJJ8peZOnfQ4Yfjy2ePR+IfaCT+o9eof04j0BcCmpD1s3HAIbBl40Y8/fB3xLLGOE8SsqOmIjf/+sc/in0t3T4E/376GUimW6Qq1h8agX0BAU3I+8Jd0NewVxGgVk2Z4u8/mGHxsx8/idZhw/FPRx8jAUf/iKNjr16sPphGoAcCmpD146AR0AhoBPYRBDQh7yM3Ql+GRkAjoBH4/54DzCeCd9meAAAAAElFTkSuQmCC;" parent="1" vertex="1">
          <mxGeometry x="130" y="220" width="219.08" height="320" as="geometry" />
        </mxCell>
        <mxCell id="juLNzmiUpROk8GgBu0bY-9" value="&lt;span style=&quot;color: rgba(0 , 0 , 0 , 0) ; font-family: monospace ; font-size: 0px&quot;&gt;%3CmxGraphModel%3E%3Croot%3E%3CmxCell%20id%3D%220%22%2F%3E%3CmxCell%20id%3D%221%22%20parent%3D%220%22%2F%3E%3CmxCell%20id%3D%222%22%20value%3D%22tee_sleeveless%22%20style%3D%22html%3D1%3Bshadow%3D0%3Bdashed%3D0%3Bshape%3Dmxgraph.bootstrap.rrect%3BrSize%3D5%3BstrokeColor%3Dnone%3BstrokeWidth%3D1%3BfillColor%3D%231CA5B8%3BfontColor%3D%23FFFFFF%3BwhiteSpace%3Dwrap%3Balign%3Dleft%3BverticalAlign%3Dmiddle%3BspacingLeft%3D0%3BfontStyle%3D1%3BfontSize%3D14%3Bspacing%3D5%3B%22%20vertex%3D%221%22%20parent%3D%221%22%3E%3CmxGeometry%20x%3D%22480%22%20y%3D%22240%22%20width%3D%22110%22%20height%3D%2220%22%20as%3D%22geometry%22%2F%3E%3C%2FmxCell%3E%3C%2Froot%3E%3C%2FmxGraphModel%3E&lt;/span&gt;&lt;span style=&quot;color: rgba(0 , 0 , 0 , 0) ; font-family: monospace ; font-size: 0px&quot;&gt;%3CmxGraphModel%3E%3Croot%3E%3CmxCell%20id%3D%220%22%2F%3E%3CmxCell%20id%3D%221%22%20parent%3D%220%22%2F%3E%3CmxCell%20id%3D%222%22%20value%3D%22tee_sleeveless%22%20style%3D%22html%3D1%3Bshadow%3D0%3Bdashed%3D0%3Bshape%3Dmxgraph.bootstrap.rrect%3BrSize%3D5%3BstrokeColor%3Dnone%3BstrokeWidth%3D1%3BfillColor%3D%231CA5B8%3BfontColor%3D%23FFFFFF%3BwhiteSpace%3Dwrap%3Balign%3Dleft%3BverticalAlign%3Dmiddle%3BspacingLeft%3D0%3BfontStyle%3D1%3BfontSize%3D14%3Bspacing%3D5%3B%22%20vertex%3D%221%22%20parent%3D%221%22%3E%3CmxGeometry%20x%3D%22480%22%20y%3D%22240%22%20width%3D%22110%22%20height%3D%2220%22%20as%3D%22geometry%22%2F%3E%3C%2FmxCell%3E%3C%2Froot%3E%3C%2FmxGraphModel%3E&lt;/span&gt;" style="html=1;shadow=0;dashed=0;shape=mxgraph.bootstrap.rrect;rSize=5;strokeColor=#1CA5B8;html=1;whiteSpace=wrap;fillColor=#ffffff;fontColor=#1CA5B8;verticalAlign=bottom;align=left;spacing=20;spacingBottom=0;fontSize=14;" parent="1" vertex="1">
          <mxGeometry x="370" y="190" width="340" height="120" as="geometry" />
        </mxCell>
        <mxCell id="juLNzmiUpROk8GgBu0bY-10" value="Upper Wearing" style="html=1;shadow=0;dashed=0;shape=mxgraph.bootstrap.topButton;rSize=5;perimeter=none;whiteSpace=wrap;fillColor=#F7F7F7;strokeColor=#1CA5B8;fontColor=#6C767D;resizeWidth=1;fontSize=18;align=left;spacing=20;" parent="juLNzmiUpROk8GgBu0bY-9" vertex="1">
          <mxGeometry width="340" height="30" relative="1" as="geometry">
            <mxPoint as="offset" />
          </mxGeometry>
        </mxCell>
        <mxCell id="juLNzmiUpROk8GgBu0bY-15" value="tee" style="html=1;shadow=0;dashed=0;shape=mxgraph.bootstrap.rrect;rSize=5;strokeColor=none;strokeWidth=1;fillColor=#1CA5B8;fontColor=#FFFFFF;whiteSpace=wrap;align=left;verticalAlign=middle;spacingLeft=0;fontStyle=1;fontSize=14;spacing=5;" parent="juLNzmiUpROk8GgBu0bY-9" vertex="1">
          <mxGeometry x="11.724137931034484" y="49.99999999999999" width="42.20689655172415" height="20.000000000000004" as="geometry" />
        </mxCell>
        <mxCell id="juLNzmiUpROk8GgBu0bY-18" value="tee_sleeveless" style="html=1;shadow=0;dashed=0;shape=mxgraph.bootstrap.rrect;rSize=5;strokeColor=none;strokeWidth=1;fillColor=#1CA5B8;fontColor=#FFFFFF;whiteSpace=wrap;align=left;verticalAlign=middle;spacingLeft=0;fontStyle=1;fontSize=14;spacing=5;" parent="juLNzmiUpROk8GgBu0bY-9" vertex="1">
          <mxGeometry x="130" y="50.003076923076925" width="110" height="20.003076923076925" as="geometry" />
        </mxCell>
        <mxCell id="juLNzmiUpROk8GgBu0bY-22" value="jacket" style="html=1;shadow=0;dashed=0;shape=mxgraph.bootstrap.rrect;rSize=5;strokeColor=none;strokeWidth=1;fillColor=#1CA5B8;fontColor=#FFFFFF;whiteSpace=wrap;align=left;verticalAlign=middle;spacingLeft=0;fontStyle=1;fontSize=14;spacing=5;" parent="juLNzmiUpROk8GgBu0bY-9" vertex="1">
          <mxGeometry x="11.724137931034484" y="84.00615384615385" width="58.62068965517242" height="20.000000000000004" as="geometry" />
        </mxCell>
        <mxCell id="juLNzmiUpROk8GgBu0bY-23" value="jacket_sleeveless" style="html=1;shadow=0;dashed=0;shape=mxgraph.bootstrap.rrect;rSize=5;strokeColor=none;strokeWidth=1;fillColor=#1CA5B8;fontColor=#FFFFFF;whiteSpace=wrap;align=left;verticalAlign=middle;spacingLeft=0;fontStyle=1;fontSize=14;spacing=5;" parent="juLNzmiUpROk8GgBu0bY-9" vertex="1">
          <mxGeometry x="130.01" y="84.00923076923078" width="129.99" height="20.003076923076925" as="geometry" />
        </mxCell>
        <mxCell id="LxTWU85x69obKllCB4rI-1" value="" style="shape=image;html=1;verticalAlign=top;verticalLabelPosition=bottom;labelBackgroundColor=#ffffff;imageAspect=0;aspect=fixed;image=https://cdn3.iconfinder.com/data/icons/flat-actions-icons-9/792/Tick_Mark_Dark-128.png" vertex="1" parent="juLNzmiUpROk8GgBu0bY-9">
          <mxGeometry x="250" y="45" width="30" height="30" as="geometry" />
        </mxCell>
        <mxCell id="juLNzmiUpROk8GgBu0bY-11" value="&lt;br style=&quot;font-size: 14px&quot;&gt;&lt;br style=&quot;font-size: 14px&quot;&gt;" style="html=1;shadow=0;dashed=0;shape=mxgraph.bootstrap.rrect;rSize=5;strokeColor=#1CA5B8;html=1;whiteSpace=wrap;fillColor=#ffffff;fontColor=#1CA5B8;verticalAlign=bottom;align=left;spacing=20;spacingBottom=0;fontSize=14;" parent="1" vertex="1">
          <mxGeometry x="370" y="310" width="340" height="120" as="geometry" />
        </mxCell>
        <mxCell id="juLNzmiUpROk8GgBu0bY-12" value="Lower Wearing" style="html=1;shadow=0;dashed=0;shape=mxgraph.bootstrap.topButton;rSize=5;perimeter=none;whiteSpace=wrap;fillColor=#F7F7F7;strokeColor=#1CA5B8;fontColor=#6C767D;resizeWidth=1;fontSize=18;align=left;spacing=20;" parent="juLNzmiUpROk8GgBu0bY-11" vertex="1">
          <mxGeometry width="340" height="30" relative="1" as="geometry" />
        </mxCell>
        <mxCell id="juLNzmiUpROk8GgBu0bY-27" value="pant_straight_sides" style="html=1;shadow=0;dashed=0;shape=mxgraph.bootstrap.rrect;rSize=5;strokeColor=none;strokeWidth=1;fillColor=#1CA5B8;fontColor=#FFFFFF;whiteSpace=wrap;align=left;verticalAlign=middle;spacingLeft=0;fontStyle=1;fontSize=14;spacing=5;" parent="juLNzmiUpROk8GgBu0bY-11" vertex="1">
          <mxGeometry x="11.72" y="50" width="138.28" height="20" as="geometry" />
        </mxCell>
        <mxCell id="juLNzmiUpROk8GgBu0bY-28" value="pant_flare" style="html=1;shadow=0;dashed=0;shape=mxgraph.bootstrap.rrect;rSize=5;strokeColor=none;strokeWidth=1;fillColor=#1CA5B8;fontColor=#FFFFFF;whiteSpace=wrap;align=left;verticalAlign=middle;spacingLeft=0;fontStyle=1;fontSize=14;spacing=5;" parent="juLNzmiUpROk8GgBu0bY-11" vertex="1">
          <mxGeometry x="210" y="50" width="80" height="20" as="geometry" />
        </mxCell>
        <mxCell id="juLNzmiUpROk8GgBu0bY-29" value="skirt" style="html=1;shadow=0;dashed=0;shape=mxgraph.bootstrap.rrect;rSize=5;strokeColor=none;strokeWidth=1;fillColor=#1CA5B8;fontColor=#FFFFFF;whiteSpace=wrap;align=left;verticalAlign=middle;spacingLeft=0;fontStyle=1;fontSize=14;spacing=5;" parent="juLNzmiUpROk8GgBu0bY-11" vertex="1">
          <mxGeometry x="11.72" y="80" width="38.28" height="20" as="geometry" />
        </mxCell>
        <mxCell id="LxTWU85x69obKllCB4rI-2" value="" style="shape=image;html=1;verticalAlign=top;verticalLabelPosition=bottom;labelBackgroundColor=#ffffff;imageAspect=0;aspect=fixed;image=https://cdn3.iconfinder.com/data/icons/flat-actions-icons-9/792/Tick_Mark_Dark-128.png" vertex="1" parent="juLNzmiUpROk8GgBu0bY-11">
          <mxGeometry x="150" y="45" width="30" height="30" as="geometry" />
        </mxCell>
        <mxCell id="juLNzmiUpROk8GgBu0bY-13" value="&lt;span style=&quot;color: rgba(0 , 0 , 0 , 0) ; font-family: monospace ; font-size: 0px&quot;&gt;%3CmxGraphModel%3E%3Croot%3E%3CmxCell%20id%3D%220%22%2F%3E%3CmxCell%20id%3D%221%22%20parent%3D%220%22%2F%3E%3CmxCell%20id%3D%222%22%20value%3D%22pant_straight_sides%22%20style%3D%22html%3D1%3Bshadow%3D0%3Bdashed%3D0%3Bshape%3Dmxgraph.bootstrap.rrect%3BrSize%3D5%3BstrokeColor%3Dnone%3BstrokeWidth%3D1%3BfillColor%3D%231CA5B8%3BfontColor%3D%23FFFFFF%3BwhiteSpace%3Dwrap%3Balign%3Dleft%3BverticalAlign%3Dmiddle%3BspacingLeft%3D0%3BfontStyle%3D1%3BfontSize%3D14%3Bspacing%3D5%3B%22%20vertex%3D%221%22%20parent%3D%221%22%3E%3CmxGeometry%20x%3D%22381.72%22%20y%3D%22350%22%20width%3D%22138.28%22%20height%3D%2220%22%20as%3D%22geometry%22%2F%3E%3C%2FmxCell%3E%3C%2Froot%3E%3C%2FmxGraphModel%3E&lt;/span&gt;" style="html=1;shadow=0;dashed=0;shape=mxgraph.bootstrap.rrect;rSize=5;strokeColor=#1CA5B8;html=1;whiteSpace=wrap;fillColor=#ffffff;fontColor=#1CA5B8;verticalAlign=bottom;align=left;spacing=20;spacingBottom=0;fontSize=14;" parent="1" vertex="1">
          <mxGeometry x="370" y="430" width="340" height="120" as="geometry" />
        </mxCell>
        <mxCell id="juLNzmiUpROk8GgBu0bY-14" value="Overall Wearing" style="html=1;shadow=0;dashed=0;shape=mxgraph.bootstrap.topButton;rSize=5;perimeter=none;whiteSpace=wrap;fillColor=#F7F7F7;strokeColor=#1CA5B8;fontColor=#6C767D;resizeWidth=1;fontSize=18;align=left;spacing=20;" parent="juLNzmiUpROk8GgBu0bY-13" vertex="1">
          <mxGeometry width="339.99999999999994" height="30" relative="1" as="geometry" />
        </mxCell>
        <mxCell id="juLNzmiUpROk8GgBu0bY-30" value="dress" style="html=1;shadow=0;dashed=0;shape=mxgraph.bootstrap.rrect;rSize=5;strokeColor=none;strokeWidth=1;fillColor=#1CA5B8;fontColor=#FFFFFF;whiteSpace=wrap;align=left;verticalAlign=middle;spacingLeft=0;fontStyle=1;fontSize=14;spacing=5;" parent="juLNzmiUpROk8GgBu0bY-13" vertex="1">
          <mxGeometry x="11.72" y="40" width="48.28" height="20" as="geometry" />
        </mxCell>
        <mxCell id="juLNzmiUpROk8GgBu0bY-31" value="dress_sleeveless" style="html=1;shadow=0;dashed=0;shape=mxgraph.bootstrap.rrect;rSize=5;strokeColor=none;strokeWidth=1;fillColor=#1CA5B8;fontColor=#FFFFFF;whiteSpace=wrap;align=left;verticalAlign=middle;spacingLeft=0;fontStyle=1;fontSize=14;spacing=5;" parent="juLNzmiUpROk8GgBu0bY-13" vertex="1">
          <mxGeometry x="115.43" y="40" width="120" height="20" as="geometry" />
        </mxCell>
        <mxCell id="juLNzmiUpROk8GgBu0bY-32" value="jumpsuit" style="html=1;shadow=0;dashed=0;shape=mxgraph.bootstrap.rrect;rSize=5;strokeColor=none;strokeWidth=1;fillColor=#1CA5B8;fontColor=#FFFFFF;whiteSpace=wrap;align=left;verticalAlign=middle;spacingLeft=0;fontStyle=1;fontSize=14;spacing=5;" parent="juLNzmiUpROk8GgBu0bY-13" vertex="1">
          <mxGeometry x="11.72" y="80" width="68.28" height="20" as="geometry" />
        </mxCell>
        <mxCell id="juLNzmiUpROk8GgBu0bY-33" value="jumpsuit_sleeveless" style="html=1;shadow=0;dashed=0;shape=mxgraph.bootstrap.rrect;rSize=5;strokeColor=none;strokeWidth=1;fillColor=#1CA5B8;fontColor=#FFFFFF;whiteSpace=wrap;align=left;verticalAlign=middle;spacingLeft=0;fontStyle=1;fontSize=14;spacing=5;" parent="juLNzmiUpROk8GgBu0bY-13" vertex="1">
          <mxGeometry x="140" y="80" width="149.14" height="20" as="geometry" />
        </mxCell>
        <mxCell id="juLNzmiUpROk8GgBu0bY-34" value="done" style="html=1;shadow=0;dashed=0;shape=mxgraph.bootstrap.rrect;rSize=5;strokeColor=none;strokeWidth=1;fillColor=#33A64C;fontColor=#FFFFFF;whiteSpace=wrap;align=center;verticalAlign=middle;spacingLeft=0;fontStyle=0;fontSize=16;spacing=5;" parent="1" vertex="1">
          <mxGeometry x="495" y="565" width="90" height="40" as="geometry" />
        </mxCell>
      </root>
    </mxGraphModel>
  </diagram>
</mxfile>
